#N canvas 482 49 958 559 10;
#X obj 26 32 inlet;
#X obj 42 508 outlet~;
#X obj 789 41 inlet;
#X obj 789 64 bind \$0 a \$1;
#X obj 789 86 bind \$0 d \$2 100;
#X obj 789 108 bind \$0 as \$3 0;
#X obj 789 130 bind \$0 ds \$4 0;
#X obj 41 386 vline~;
#X obj 789 152 bind \$0 loop \$5;
#X obj 262 120 r \$0-a;
#X obj 280 142 r \$0-as;
#X obj 479 173 r \$0-d;
#X obj 523 174 r \$0-ds;
#X obj 572 175 r \$0-loop;
#X obj 41 433 vcurve~;
#X obj 152 393 when == 1 bang;
#X obj 152 432 f;
#X obj 152 467 del;
#X obj 26 54 t b;
#X obj 152 499 s;
#X obj 635 175 symbol \$0-do-a;
#X obj 329 142 symbol \$0-do-d;
#X obj 26 76 s \$0-do-a;
#X obj 225 88 r \$0-do-a;
#X obj 442 152 r \$0-do-d;
#X obj 40 317 pack f f f;
#X obj 98 224 unpack f f f f f s;
#X obj 442 207 pack 1 0 f f f s;
#X msg 41 355 \$1 \, \$2 \$3;
#X obj 225 178 pack 0 1 f f 1 s;
#X obj 200 465 symbol;
#X obj 425 41 loadbang;
#X obj 152 345 swap;
#X obj 106 107 vsl 15 50 0 127 0 0 empty empty a 5 25 1 10 -262144
-4034 -162280 2900 1;
#X obj 126 107 vsl 15 50 0 127 0 0 empty empty d 5 25 1 10 -262144
-4034 -162280 3300 1;
#X obj 182 106 tgl 15 0 empty empty loop -22 8 2 10 -262144 -4034 -162280
0 1;
#X obj 151 125 hsl 45 15 0 127 0 0 empty empty a_curv 5 7 1 10 -262144
-4034 -162280 0 1;
#X obj 151 145 hsl 45 15 0 127 0 0 empty empty d_curv 5 7 1 10 -262144
-4034 -162280 0 1;
#X connect 0 0 18 0;
#X connect 2 0 3 0;
#X connect 3 0 4 0;
#X connect 4 0 5 0;
#X connect 5 0 6 0;
#X connect 6 0 8 0;
#X connect 7 0 14 0;
#X connect 9 0 29 2;
#X connect 10 0 29 3;
#X connect 11 0 27 2;
#X connect 12 0 27 3;
#X connect 13 0 27 4;
#X connect 14 0 1 0;
#X connect 15 0 16 0;
#X connect 16 0 17 0;
#X connect 17 0 19 0;
#X connect 18 0 22 0;
#X connect 20 0 27 5;
#X connect 21 0 29 5;
#X connect 23 0 29 0;
#X connect 24 0 27 0;
#X connect 25 0 28 0;
#X connect 26 0 25 0;
#X connect 26 1 25 1;
#X connect 26 2 25 2;
#X connect 26 2 32 0;
#X connect 26 3 14 1;
#X connect 26 4 32 1;
#X connect 26 5 30 0;
#X connect 27 0 26 0;
#X connect 28 0 7 0;
#X connect 29 0 26 0;
#X connect 30 0 19 1;
#X connect 31 0 21 0;
#X connect 31 0 20 0;
#X connect 32 0 15 0;
#X connect 32 1 16 1;
#X coords 0 -1 1 1 105 65 2 100 100;
