#N canvas 403 295 351 267 10;
#X obj 16 9 inlet;
#X obj 103 30 inlet;
#X obj 16 219 outlet;
#X obj 16 184 list trim;
#X obj 16 31 route bang;
#X obj 16 161 list prepend \$1;
#X obj 43 118 t b a;
#X connect 0 0 4 0;
#X connect 1 0 5 1;
#X connect 3 0 2 0;
#X connect 4 0 5 0;
#X connect 4 1 6 0;
#X connect 5 0 3 0;
#X connect 6 0 5 0;
#X connect 6 1 5 1;
