#N canvas 1 49 958 1150 10;
#X obj 14 25 inlet;
#X obj 21 541 outlet;
#X obj 14 76 list append \$1 \$2 \$3 \$4 \$5 \$6 \$7 \$8;
#X obj 14 98 list trim;
#X obj 14 47 t b;
#X obj 38 47 loadbang;
#X obj 14 152 for 0 7 8;
#X obj 14 174 t f f;
#X obj 82 212 == 7;
#X obj 82 234 sel 1;
#X obj 82 256 b;
#X obj 21 512 list;
#X obj 65 452 list;
#X obj 15 120 t b l b;
#X msg 146 221 bang;
#X obj 65 429 list prepend;
#X obj 65 474 t l l;
#X obj 65 399 any;
#X obj 15 276 t a a;
#X obj 15 331 defined;
#X obj 15 353 == 1;
#X obj 15 375 sel 1;
#X obj 15 397 b;
#N canvas 1 49 958 1150 at-index 0;
#X obj 13 23 inlet;
#X obj 179 36 inlet;
#X obj 59 27 loadbang;
#X obj 59 49 def-f \$1 1;
#X obj 30 110 f;
#X obj 46 183 list split;
#X obj 74 212 list split 1;
#X obj 74 234 list trim;
#X obj 34 266 outlet;
#X obj 30 157 list;
#X obj 30 132 t b f;
#X connect 0 0 4 0;
#X connect 1 0 9 1;
#X connect 2 0 3 0;
#X connect 3 0 4 1;
#X connect 4 0 10 0;
#X connect 5 1 6 0;
#X connect 6 0 7 0;
#X connect 7 0 8 0;
#X connect 9 0 5 0;
#X connect 10 0 9 0;
#X connect 10 1 5 1;
#X restore 15 255 pd at-index;
#X connect 0 0 4 0;
#X connect 2 0 3 0;
#X connect 3 0 13 0;
#X connect 4 0 2 0;
#X connect 5 0 4 0;
#X connect 6 0 7 0;
#X connect 7 0 8 0;
#X connect 7 1 23 0;
#X connect 8 0 9 0;
#X connect 9 0 10 0;
#X connect 10 0 11 0;
#X connect 11 0 1 0;
#X connect 12 0 16 0;
#X connect 13 0 6 0;
#X connect 13 1 23 1;
#X connect 13 2 14 0;
#X connect 14 0 15 1;
#X connect 15 0 12 0;
#X connect 16 0 11 1;
#X connect 16 1 15 1;
#X connect 17 0 15 0;
#X connect 18 0 19 0;
#X connect 18 1 17 1;
#X connect 19 0 20 0;
#X connect 20 0 21 0;
#X connect 21 0 22 0;
#X connect 22 0 17 0;
#X connect 23 0 18 0;
