#N canvas 687 420 450 300 10;
#X obj 87 98 bng 15 250 50 0 empty empty empty 17 7 0 10 -262144 -1
-1;
#X obj 93 164 print;
#X obj 93 142 args-8 1 2 3 4 5 6;
#X obj 215 99 bng 15 250 50 0 empty empty empty 17 7 0 10 -262144 -1
-1;
#X obj 221 165 print;
#X obj 221 143 args-8 1 ball 3 4 5 6;
#X connect 0 0 2 0;
#X connect 2 0 1 0;
#X connect 3 0 5 0;
#X connect 5 0 4 0;
