#N canvas 383 477 450 300 10;
#X obj 13 23 inlet;
#X obj 179 36 inlet;
#X obj 59 27 loadbang;
#X obj 59 49 def-f \$1 1;
#X obj 30 110 f;
#X obj 46 183 list split;
#X obj 74 212 list split 1;
#X obj 74 234 list trim;
#X obj 34 266 outlet;
#X obj 30 157 list;
#X obj 30 132 t b f;
#X connect 0 0 4 0;
#X connect 1 0 9 1;
#X connect 2 0 3 0;
#X connect 3 0 4 1;
#X connect 4 0 10 0;
#X connect 5 1 6 0;
#X connect 6 0 7 0;
#X connect 7 0 8 0;
#X connect 9 0 5 0;
#X connect 10 0 9 0;
#X connect 10 1 5 1;
