#N canvas 431 116 450 300 10;
#X obj 83 127 print;
#X msg 164 26 1 2 3 4 5 6 7 8 9 10;
#X obj 68 34 bng 15 250 50 0 empty empty empty 17 7 0 10 -262144 -1
-1;
#X obj 83 105 at-index 5;
#X floatatom 92 63 5 0 0 0 - - -;
#X connect 1 0 3 1;
#X connect 2 0 3 0;
#X connect 3 0 0 0;
#X connect 4 0 3 0;
