#N canvas 657 458 450 300 10;
#X obj 103 93 t b b;
#X obj 103 156 bng 15 250 50 0 empty empty empty 17 7 0 10 -262144
-1 -1;
#X obj 134 158 bng 15 250 50 0 empty empty empty 17 7 0 10 -262144
-1 -1;
#X obj 100 26 tgl 15 0 empty empty empty 17 7 0 10 -262144 -1 -1 1
1;
#X obj 103 55 metro 1000;
#X obj 174 199 t b b;
#X obj 178 232 timer;
#X floatatom 178 254 5 0 0 0 - - -;
#X obj 130 123 bang-every 6;
#X connect 0 0 1 0;
#X connect 0 1 8 0;
#X connect 2 0 5 0;
#X connect 3 0 4 0;
#X connect 4 0 0 0;
#X connect 5 0 6 0;
#X connect 5 1 6 1;
#X connect 6 0 7 0;
#X connect 8 0 2 0;
