#N canvas 0 22 450 300 10;
#X obj 29 32 inlet;
#X obj 74 33 inlet;
#X obj 29 189 outlet;
#X obj 29 113 is \$1 \$2;
#X obj 29 135 sel 1;
#X obj 29 160 b;
#X connect 0 0 3 0;
#X connect 1 0 3 1;
#X connect 3 0 4 0;
#X connect 4 0 5 0;
#X connect 5 0 2 0;
