#N canvas 206 22 508 443 10;
#X obj 25 15 inlet;
#X obj 71 207 outlet;
#X obj 202 260 t b;
#X obj 335 133 loadbang;
#X obj 25 277 any;
#X obj 71 53 change;
#X obj 71 86 list;
#X obj 25 129 route \$2;
#X obj 335 260 def-any \$3 \$4;
#X obj 52 246 s bind-\$1-\$2-new-value;
#X obj 202 216 r bind-\$1-bind-dump;
#X obj 116 387 s bind-\$1-value-set;
#X obj 116 331 list prepend \$2;
#X obj 116 353 list trim;
#X obj 71 16 r \$1-\$2-new-value;
#X obj 25 370 s \$1-\$2;
#X obj 106 86 r bind-\$1-new-values;
#X connect 0 0 7 0;
#X connect 2 0 4 0;
#X connect 3 0 8 0;
#X connect 4 0 15 0;
#X connect 5 0 6 0;
#X connect 6 0 7 0;
#X connect 7 0 4 0;
#X connect 7 1 1 0;
#X connect 8 0 4 0;
#X connect 10 0 2 0;
#X connect 12 0 13 0;
#X connect 13 0 11 0;
#X connect 14 0 5 0;
#X connect 16 0 7 0;
