#N canvas 0 48 958 1150 10;
#X obj 25 15 inlet;
#X obj 78 207 outlet;
#X obj 202 260 t b;
#X obj 342 133 loadbang;
#X obj 25 277 any;
#X obj 25 129 route \$2;
#X obj 342 260 def-any \$3 \$4;
#X obj 202 216 r bind-\$1-bind-dump;
#X obj 25 370 s \$1-\$2;
#X connect 0 0 5 0;
#X connect 2 0 4 0;
#X connect 3 0 6 0;
#X connect 4 0 8 0;
#X connect 5 0 4 0;
#X connect 5 1 1 0;
#X connect 6 0 4 0;
#X connect 7 0 2 0;
