#N canvas 731 75 395 321 10;
#X obj 12 109 int;
#X obj 12 73 rescale \$5 \$6 0 127;
#X obj 167 72 rescale 0 127 \$5 \$6;
#X obj 12 143 ctlout \$3 \$4;
#X obj 167 12 ctlin \$3 \$4;
#X obj 12 13 r \$1-\$2;
#X obj 167 108 s \$1-\$2-new-value;
#X obj 12 41 change;
#X connect 0 0 3 0;
#X connect 1 0 0 0;
#X connect 2 0 6 0;
#X connect 4 0 2 0;
#X connect 5 0 7 0;
#X connect 7 0 1 0;
