#N canvas 1652 921 515 807 10;
#X obj 25 15 inlet;
#X obj 70 163 outlet;
#X obj 134 15 loadbang;
#X obj 25 277 any;
#X obj 25 129 route \$2;
#X obj 134 261 def-any \$3 \$4;
#X obj 25 370 s \$1-\$2;
#X connect 0 0 4 0;
#X connect 2 0 5 0;
#X connect 3 0 6 0;
#X connect 4 0 3 0;
#X connect 4 1 1 0;
#X connect 5 0 3 0;
