#N canvas 1257 161 1418 453 10;
#X obj 12 197 print string;
#X obj 117 196 print optstring;
#X obj 569 126 r bind-\$0-value-set;
#X obj 569 148 print value-set;
#X obj 12 175 r \$0-string;
#X obj 117 175 r \$0-opt-string;
#X obj 273 62 bind \$0 lol-sec \$1 100;
#X obj 273 82 bind \$0 salsa 500 0;
#X obj 273 122 bind \$0 opt-string 0 ../thatwave.wav;
#X obj 273 102 bind \$0 string ../fristwave.wav;
#X msg 273 11 haha 400 \, lol 200 \, ghetto 500 \, opt-string ../../../opt-wave.wav
\, salsa 600;
#X obj 221 175 r \$0-salsa;
#X obj 221 196 print salsa;
#X obj 273 144 bind \$0 double 500 666;
#X obj 297 172 r \$0-double;
#X obj 297 193 print double;
#X obj 9 7 cnv 15 250 150 empty empty bind 20 12 0 14 -203904 -66577
0;
#X text 13 38 [bind namespace name argument default];
#X text 13 61 use case: uniform way of handling right inlet events
and object arguments with a default value.;
#X connect 2 0 3 0;
#X connect 4 0 0 0;
#X connect 5 0 1 0;
#X connect 6 0 7 0;
#X connect 7 0 9 0;
#X connect 8 0 13 0;
#X connect 9 0 8 0;
#X connect 10 0 6 0;
#X connect 11 0 12 0;
#X connect 14 0 15 0;
