#N canvas 144 283 526 412 10;
#X obj 23 36 inlet~;
#X obj 119 37 inlet;
#X obj 119 59 route phase damper;
#X floatatom 277 119 0 0 0 0 - - -;
#X obj 226 248 /~;
#X obj 301 212 clip~ 1 999999;
#X obj 53 148 phasor~;
#X obj 65 210 *~;
#X floatatom 277 71 0 0 0 0 - - -;
#X obj 277 95 mtof;
#X obj 277 23 loadbang;
#X obj 65 306 tabread4~ \$0-transition;
#X obj 277 143 * 0.4;
#X msg 277 47 136.766;
#X obj 65 282 +~ 501;
#X obj 65 258 *~ 1000;
#X obj 30 340 -~;
#X obj 345 117 t b f;
#X obj 225 190 pack 0 50;
#X obj 225 216 line~;
#X obj 31 394 outlet~;
#X obj 31 366 +~ 0.5;
#X obj 53 172 -~ 0.5;
#X obj 65 234 clip~ -0.5 0.5;
#N canvas 151 52 754 678 transition-table 0;
#X obj 428 534 cos~;
#X obj 262 534 cos~;
#X obj 214 529 cos~;
#X msg 158 598 bang;
#X text 242 138 back the phase up one sample;
#X msg 295 444 -0.0005;
#X obj 262 508 *~ 3;
#X obj 427 510 *~ 5;
#X obj 262 559 *~ 0.33333;
#X obj 427 560 *~ -0.2;
#X obj 214 557 *~ -1;
#X msg 159 425 bang;
#X obj 213 468 phasor~ 22.05;
#X obj 204 259 cos~;
#X obj 156 254 cos~;
#X msg 100 323 bang;
#X msg 13 195 \; pd dsp 1;
#X msg 237 169 -0.0005;
#X obj 204 233 *~ 3;
#X obj 204 284 *~ 0.33333;
#X obj 156 282 *~ -1;
#X msg 100 150 bang;
#X obj 155 193 phasor~ 22.05;
#X obj 156 315 *~ 0.75;
#X obj 214 617 tabwrite~ \$0-transition;
#X obj 156 342 tabwrite~ \$0-transition;
#X text 292 216 twice the table length;
#X text 280 193 period is 2000 samples \,;
#X text 80 369 This one is used - first and third harmonics only.;
#X text 28 644 This alternate one puts in harmonics 1 \, 3 \, and 5
;
#N canvas 0 22 450 300 (subpatch) 0;
#X array \$0-transition 1002 float 0;
#X coords 0 1 1002 -1 200 140 1;
#X restore 539 32 graph;
#X text 537 179 ----- 1002 samples ----;
#X text 24 27 This network puts a half cycle of a band-limited square
wave into the table "array1.";
#X text 22 64 Logically the half-cycle is in samples 1 through 1000
\; samples 0 and 1001 are provided so that the 4-point interpolation
will work everywhere.;
#X obj 215 590 *~ 0.6;
#X obj 163 394 loadbang;
#X connect 0 0 9 0;
#X connect 1 0 8 0;
#X connect 2 0 10 0;
#X connect 3 0 24 0;
#X connect 5 0 12 1;
#X connect 6 0 1 0;
#X connect 7 0 0 0;
#X connect 8 0 34 0;
#X connect 9 0 34 0;
#X connect 10 0 34 0;
#X connect 11 0 5 0;
#X connect 11 0 3 0;
#X connect 12 0 2 0;
#X connect 12 0 6 0;
#X connect 12 0 7 0;
#X connect 13 0 19 0;
#X connect 14 0 20 0;
#X connect 15 0 25 0;
#X connect 17 0 22 1;
#X connect 18 0 13 0;
#X connect 19 0 23 0;
#X connect 20 0 23 0;
#X connect 21 0 17 0;
#X connect 21 0 16 0;
#X connect 21 0 15 0;
#X connect 22 0 14 0;
#X connect 22 0 18 0;
#X connect 23 0 25 0;
#X connect 34 0 24 0;
#X connect 35 0 11 0;
#X restore 237 280 pd transition-table;
#X obj 277 165 * 1;
#X obj 413 64 t f f;
#X obj 413 86 *;
#X connect 0 0 6 0;
#X connect 0 0 5 0;
#X connect 1 0 2 0;
#X connect 2 0 6 1;
#X connect 2 1 26 0;
#X connect 3 0 12 0;
#X connect 4 0 7 1;
#X connect 5 0 4 1;
#X connect 6 0 22 0;
#X connect 7 0 23 0;
#X connect 8 0 9 0;
#X connect 9 0 3 0;
#X connect 10 0 13 0;
#X connect 11 0 16 0;
#X connect 12 0 25 0;
#X connect 13 0 8 0;
#X connect 14 0 11 0;
#X connect 15 0 14 0;
#X connect 16 0 21 0;
#X connect 17 0 25 0;
#X connect 17 1 25 1;
#X connect 18 0 19 0;
#X connect 19 0 4 0;
#X connect 21 0 20 0;
#X connect 22 0 7 0;
#X connect 22 0 16 1;
#X connect 23 0 15 0;
#X connect 25 0 18 0;
#X connect 26 0 27 0;
#X connect 26 1 27 1;
#X connect 27 0 17 0;
