#N canvas 1 49 958 1150 10;
#X obj 88 209 inlet~;
#X obj 430 212 inlet;
#N canvas 0 0 450 300 (subpatch) 0;
#X array \$0-buffer 1 float 2;
#X coords 0 1 1 -1 140 50 1 0 0;
#X restore 103 132 graph;
#X obj 247 167 tgl 15 1 \$0-armed empty rec -1 -7 0 10 -262144 -258113
-1 0 1;
#X obj 430 234 bind \$0 rec;
#X obj 149 351 > 0.01;
#X obj 149 373 change;
#X obj 104 112 cnv 15 100 15 empty empty empty 20 12 0 14 -262144 -66577
0;
#X obj 193 295 del~;
#N canvas 1 49 958 1150 64-blocks-in-ms 0;
#X obj 113 202 loadbang;
#X obj 113 224 samplerate~;
#X obj 113 246 swap 64;
#X obj 113 268 /;
#X obj 113 290 outlet;
#X connect 0 0 1 0;
#X connect 1 0 2 0;
#X connect 2 0 3 0;
#X connect 2 1 3 1;
#X connect 3 0 4 0;
#X restore 241 304 pd 64-blocks-in-ms;
#X obj 148 452 spigot 1;
#X obj 93 525 tabwrite~ \$0-buffer;
#X obj 148 474 t b b b;
#X obj 148 284 *~ 1;
#X msg 463 545 \; \$2-buffer resize \$1;
#X obj 460 355 f \$3;
#X obj 465 524 pack f \$0;
#X obj 460 302 loadbang;
#X obj 460 324 t b b;
#X obj 477 457 *;
#X obj 554 366 samplerate~;
#X obj 460 386 / 1000;
#X obj 149 329 env~ 64;
#X obj 149 395 sel 1;
#X obj 149 417 change;
#X obj 171 243 r \$0-armed;
#X connect 0 0 13 0;
#X connect 1 0 4 0;
#X connect 5 0 6 0;
#X connect 6 0 23 0;
#X connect 10 0 12 0;
#X connect 12 0 11 0;
#X connect 13 0 11 0;
#X connect 13 0 22 0;
#X connect 15 0 21 0;
#X connect 16 0 14 0;
#X connect 17 0 18 0;
#X connect 18 0 15 0;
#X connect 18 1 20 0;
#X connect 19 0 16 0;
#X connect 20 0 19 1;
#X connect 21 0 19 0;
#X connect 22 0 5 0;
#X connect 23 0 24 0;
#X connect 24 0 10 0;
#X connect 25 0 13 1;
#X coords 0 -1 1 1 165 85 1 100 100;
