#N canvas 559 149 500 385 10;
#X obj 29 42 inlet~;
#X obj 29 238 outlet~;
#X obj 121 42 inlet;
#X obj 166 42 inlet;
#N canvas 241 165 450 300 \$0-dry 0;
#X obj 71 88 inlet~;
#X obj 71 110 outlet~;
#X obj 250 79 inlet;
#X obj 250 101 switch~;
#X obj 312 51 loadbang;
#X obj 312 73 f 1;
#X connect 0 0 1 0;
#X connect 2 0 3 0;
#X connect 4 0 5 0;
#X connect 5 0 3 0;
#X restore 29 193 pd \$0-dry;
#X obj 203 43 loadbang;
#X obj 166 64 == 1;
#X obj 80 103 == 0;
#X obj 166 86 t f f;
#X obj 203 176 unpack 1 0;
#X obj 90 193 mute~ \$1 \$2;
#X text 133 321 inlet 1: the audio signal input;
#X text 134 340 inlet 2: the cold message inlet for the abstraction
;
#X text 133 356 inlet 3: the power button (1 or 0);
#X text 134 275 about: switch between a dry and a wet signal \, will
completely turn off wet processing with mute~ when not in use.;
#X connect 0 0 4 0;
#X connect 0 0 10 0;
#X connect 2 0 10 1;
#X connect 3 0 6 0;
#X connect 4 0 1 0;
#X connect 5 0 9 0;
#X connect 6 0 8 0;
#X connect 7 0 4 1;
#X connect 8 0 7 0;
#X connect 8 1 10 2;
#X connect 9 0 4 1;
#X connect 9 1 10 2;
#X connect 10 0 1 0;
