#N canvas 1037 650 450 300 10;
#X obj 86 67 noise~;
#X obj 182 88 tgl 15 0 empty empty empty 17 7 0 10 -262144 -1 -1 0
1;
#X floatatom 139 44 5 0 0 0 - - -;
#X obj 139 70 mtof;
#X obj 86 161 *~ 0.5;
#X obj 86 183 dac~;
#X floatatom 140 169 5 0 0 0 - - -;
#X obj 86 139 bypass~ lop~ 200;
#X connect 0 0 7 0;
#X connect 1 0 7 2;
#X connect 2 0 3 0;
#X connect 3 0 7 1;
#X connect 4 0 5 0;
#X connect 4 0 5 1;
#X connect 6 0 4 1;
#X connect 7 0 4 0;
