#N canvas 849 412 549 328 10;
#X obj 30 12 inlet;
#X obj 26 260 outlet;
#X obj 213 12 inlet;
#X obj 101 52 phasor 0 1 \$1;
#X obj 30 183 tabwrite \$0-buf;
#X obj 356 33 table \$0-buf \$1;
#X obj 213 34 route bang;
#X obj 30 84 route bang;
#X obj 30 106 f 1;
#X obj 177 211 tabread \$0-buf;
#X obj 177 233 sel 1;
#X obj 194 141 f;
#X obj 194 117 - 1;
#X obj 194 166 mod \$1;
#X obj 54 107 f 0;
#X obj 101 75 t f b f;
#X connect 0 0 7 0;
#X connect 2 0 6 0;
#X connect 3 0 15 0;
#X connect 6 0 3 0;
#X connect 7 0 8 0;
#X connect 8 0 4 0;
#X connect 9 0 10 0;
#X connect 10 0 1 0;
#X connect 11 0 13 0;
#X connect 12 0 11 0;
#X connect 13 0 4 1;
#X connect 14 0 4 0;
#X connect 15 0 9 0;
#X connect 15 1 14 0;
#X connect 15 2 12 0;
