#N canvas 768 49 1150 1150 10;
#X obj 78 100 inlet;
#X obj 267 105 inlet;
#X obj 95 432 outlet;
#X obj 119 281 + 1;
#X obj 78 122 bang;
#X obj 83 273 f \$1;
#X obj 210 217 f \$1;
#X obj 267 127 route float bang;
#X connect 0 0 4 0;
#X connect 1 0 7 0;
#X connect 3 0 5 1;
#X connect 4 0 5 0;
#X connect 5 0 3 0;
#X connect 5 0 2 0;
#X connect 6 0 5 1;
#X connect 7 0 6 1;
#X connect 7 0 5 1;
#X connect 7 1 6 0;
