#N canvas 294 180 512 577 10;
#X obj 23 23 inlet;
#X obj 330 24 inlet;
#X obj 87 422 outlet;
#X obj 180 497 outlet;
#X obj 23 265 f;
#X obj 69 282 +;
#X obj 93 282 r \$0-step;
#X obj 285 220 r \$0-start;
#X obj 331 46 bind \$0 start \$1 0;
#X obj 23 310 t f f;
#X obj 47 374 r \$0-end;
#X obj 23 395 sel 1;
#X obj 23 419 b;
#X obj 38 237 f;
#X obj 23 45 b;
#X obj 331 157 handle \$0 rewind;
#X obj 223 57 r \$0-rewind;
#X obj 331 68 bind \$0 end \$2 0;
#X obj 331 90 bind \$0 step \$3 0;
#X obj 153 468 t b b;
#X obj 23 160 spigot 1;
#X obj 23 441 s \$0-last;
#X obj 153 446 r \$0-last;
#X obj 86 75 r \$0-last;
#X obj 113 143 f;
#X obj 150 97 r \$0-loop;
#X obj 223 220 t b b;
#X obj 250 143 f 1;
#X obj 23 374 >;
#X obj 124 355 f;
#X obj 53 415 b;
#X obj 331 112 bind \$0 loop \$4 1;
#X obj 86 97 t b b b;
#X obj 296 396 count;
#X connect 0 0 14 0;
#X connect 1 0 8 0;
#X connect 4 0 5 0;
#X connect 4 0 9 0;
#X connect 5 0 4 1;
#X connect 6 0 5 1;
#X connect 7 0 13 0;
#X connect 8 0 17 0;
#X connect 9 0 28 0;
#X connect 9 1 29 1;
#X connect 10 0 28 1;
#X connect 11 0 12 0;
#X connect 11 1 30 0;
#X connect 12 0 21 0;
#X connect 13 0 4 1;
#X connect 14 0 20 0;
#X connect 16 0 26 0;
#X connect 17 0 18 0;
#X connect 18 0 31 0;
#X connect 19 1 3 0;
#X connect 20 0 4 0;
#X connect 22 0 19 0;
#X connect 23 0 32 0;
#X connect 24 0 20 1;
#X connect 25 0 24 1;
#X connect 26 0 13 0;
#X connect 26 1 27 0;
#X connect 27 0 20 1;
#X connect 28 0 11 0;
#X connect 29 0 2 0;
#X connect 30 0 29 0;
#X connect 31 0 15 0;
#X connect 32 0 13 0;
#X connect 32 1 24 0;
