#N canvas 2862 552 506 490 10;
#X obj 23 23 inlet;
#X obj 443 16 inlet;
#X obj 23 365 outlet;
#X obj 23 45 b;
#X obj 191 266 outlet;
#N canvas 3023 1193 489 733 generate-sequence 0;
#X obj 71 95 pack f f;
#X obj 164 189 f;
#X obj 215 267 until;
#X obj 303 331 +;
#X obj 266 267 i 0;
#X obj 215 314 i, f 7;
#X obj 352 199 swap;
#X obj 215 380 mod, f 18;
#X obj 164 459 i, f 30;
#X obj 164 213 t b f b, f 15;
#X obj 352 172 unpack f f;
#X obj 338 345 t f f;
#X obj 71 508 collect, f 55;
#X obj 71 119 t b b l l b, f 54;
#N canvas 2875 1065 450 300 how-many 0;
#X obj 44 116 mod;
#X obj 44 86 unpack f f;
#X obj 44 53 t l l, f 14;
#X obj 44 144 == 0;
#X obj 44 171 list append, f 14;
#X obj 44 202 route 1 0;
#X obj 44 234 /;
#X text 86 18 limit \, step size;
#X obj 74 235 unpack f;
#X obj 44 19 inlet;
#X obj 44 276 outlet;
#X connect 0 0 3 0;
#X connect 1 0 0 0;
#X connect 1 1 0 1;
#X connect 2 0 1 0;
#X connect 2 1 4 1;
#X connect 3 0 4 0;
#X connect 4 0 5 0;
#X connect 5 0 6 0;
#X connect 5 1 8 0;
#X connect 6 0 10 0;
#X connect 8 0 10 0;
#X connect 9 0 2 0;
#X restore 258 170 pd how-many;
#X obj 71 557 outlet;
#X obj 156 90 print cmd;
#X obj 70 62 def-f \$2 10;
#X obj 145 61 def-f \$3 1;
#X obj 70 9 loadbang;
#X obj 70 29 t b b;
#X connect 0 0 13 0;
#X connect 0 0 16 0;
#X connect 1 0 9 0;
#X connect 2 0 5 0;
#X connect 3 0 5 1;
#X connect 4 0 5 1;
#X connect 5 0 3 0;
#X connect 5 0 7 0;
#X connect 6 0 3 1;
#X connect 6 1 11 0;
#X connect 7 0 12 0;
#X connect 8 0 12 0;
#X connect 9 0 8 0;
#X connect 9 1 2 0;
#X connect 9 2 4 0;
#X connect 10 0 6 0;
#X connect 10 1 6 1;
#X connect 11 0 7 1;
#X connect 11 1 8 1;
#X connect 12 0 15 0;
#X connect 13 0 12 0;
#X connect 13 1 1 0;
#X connect 13 2 14 0;
#X connect 13 3 10 0;
#X connect 13 4 12 1;
#X connect 14 0 1 1;
#X connect 17 0 0 0;
#X connect 18 0 0 1;
#X connect 19 0 20 0;
#X connect 20 0 17 0;
#X connect 20 1 18 0;
#X restore 154 59 pd generate-sequence;
#N canvas 2446 1035 450 300 sequence 0;
#X obj 15 31 inlet;
#X obj 16 216 array define \$0-sequence;
#X obj 47 159 array size \$0-sequence;
#X obj 47 91 list length;
#X obj 15 62 t l l;
#X obj 15 193 array set \$0-sequence;
#X obj 74 139 outlet;
#X obj 47 111 t l f;
#X connect 0 0 4 0;
#X connect 3 0 7 0;
#X connect 4 0 5 0;
#X connect 4 1 3 0;
#X connect 7 0 2 0;
#X connect 7 1 6 0;
#X restore 154 87 pd sequence;
#X obj 23 228 array get \$0-sequence 0 1;
#X obj 61 83 + 1;
#X obj 23 82 i;
#N canvas 2740 1116 450 300 mod-inclusive 0;
#X obj 44 8 inlet;
#X obj 99 8 inlet;
#X obj 41 199 outlet;
#X obj 41 96 >;
#X obj 92 163 i;
#X obj 41 161 i 0;
#X obj 41 126 sel 1 0;
#X obj 44 31 t f f;
#X connect 0 0 7 0;
#X connect 1 0 3 1;
#X connect 3 0 6 0;
#X connect 4 0 2 0;
#X connect 5 0 2 0;
#X connect 6 0 5 0;
#X connect 6 1 4 0;
#X connect 7 0 3 0;
#X connect 7 1 4 1;
#X restore 61 148 pd mod-inclusive;
#X obj 191 202 ==;
#X obj 191 222 sel 1;
#X obj 23 188 t f f;
#X obj 263 84 print sequence;
#X obj 154 112 - 1;
#X obj 169 143 t f f;
#X connect 0 0 3 0;
#X connect 3 0 9 0;
#X connect 5 0 6 0;
#X connect 5 0 14 0;
#X connect 6 0 15 0;
#X connect 7 0 2 0;
#X connect 8 0 10 0;
#X connect 9 0 8 0;
#X connect 9 0 13 0;
#X connect 10 0 9 1;
#X connect 11 0 12 0;
#X connect 12 0 4 0;
#X connect 13 0 7 0;
#X connect 13 1 11 0;
#X connect 15 0 16 0;
#X connect 16 0 10 1;
#X connect 16 1 11 1;
