#N canvas 576 71 440 542 10;
#X obj 78 100 inlet;
#X obj 195 55 inlet;
#X obj 95 432 outlet;
#X obj 78 122 bang;
#X obj 130 311 +;
#X obj 214 133 r \$0-start;
#X obj 165 259 r \$0-step;
#X obj 83 273 f;
#X obj 204 170 f;
#X obj 314 166 bind \$0 step \$2 1;
#X obj 314 144 bind \$0 start \$1 0;
#X obj 71 333 t f f;
#X obj 176 101 route bang float;
#X connect 0 0 3 0;
#X connect 1 0 12 0;
#X connect 3 0 7 0;
#X connect 4 0 7 1;
#X connect 5 0 8 0;
#X connect 6 0 4 1;
#X connect 7 0 11 0;
#X connect 8 0 7 1;
#X connect 10 0 9 0;
#X connect 11 0 2 0;
#X connect 11 1 4 0;
#X connect 12 0 8 0;
#X connect 12 1 7 1;
#X connect 12 2 10 0;
