#N canvas 792 330 526 414 10;
#X obj 11 23 inlet;
#X obj 243 24 inlet;
#X obj 23 326 outlet;
#X obj 153 325 outlet;
#X obj 23 114 f;
#X obj 244 90 bind \$0 step \$3 1;
#X obj 244 68 bind \$0 end \$2 1;
#X obj 69 131 +;
#X obj 93 131 r \$0-step;
#X obj 38 47 r \$0-start;
#X obj 244 46 bind \$0 start \$1 0;
#X obj 23 159 t f f;
#X obj 92 176 r \$0-end;
#X obj 68 197 sel 1;
#X obj 68 221 b;
#X obj 38 86 f;
#X obj 104 47 r \$0-reset;
#X obj 104 69 b;
#X obj 68 243 s \$0-reset;
#X obj 153 295 r \$0-reset;
#X obj 11 45 b;
#X obj 68 176 >=;
#X obj 179 221 f;
#X obj 119 221 s \$0-send;
#X obj 204 220 r \$0-send;
#X obj 95 221 b;
#X connect 0 0 20 0;
#X connect 1 0 10 0;
#X connect 4 0 7 0;
#X connect 4 0 11 0;
#X connect 6 0 5 0;
#X connect 7 0 4 1;
#X connect 8 0 7 1;
#X connect 9 0 15 0;
#X connect 10 0 6 0;
#X connect 11 0 2 0;
#X connect 11 1 21 0;
#X connect 12 0 21 1;
#X connect 13 0 14 0;
#X connect 13 1 25 0;
#X connect 14 0 18 0;
#X connect 15 0 4 1;
#X connect 16 0 17 0;
#X connect 17 0 15 0;
#X connect 19 0 3 0;
#X connect 20 0 4 0;
#X connect 21 0 13 0;
#X connect 24 0 22 0;
#X connect 25 0 23 0;
