#N canvas 590 405 1219 1455 10;
#X obj 23 23 inlet;
#X obj 443 16 inlet;
#X obj 23 632 outlet;
#X obj 23 265 f;
#X obj 91 281 +;
#X obj 106 255 r \$0-step;
#X obj 39 191 r \$0-start;
#X obj 443 38 bind \$0 start \$1 0;
#X obj 38 426 r \$0-end;
#X obj 146 566 sel 1;
#X obj 39 238 f;
#X obj 23 45 b;
#X obj 443 149 handle \$0 rewind;
#X obj 108 192 r \$0-rewind;
#X obj 443 60 bind \$0 end \$2 0;
#X obj 443 82 bind \$0 step \$3 0;
#X obj 198 631 s \$0-last;
#X obj 76 23 r \$0-last;
#X obj 176 140 f;
#X obj 191 110 r \$0-loop;
#X obj 108 222 t b b;
#X obj 23 546 f, f 14;
#X obj 443 104 bind \$0 loop \$4 1;
#X obj 23 510 t b f, f 21;
#X obj 146 631 outlet;
#X obj 23 166 spigot 1, f 26;
#X obj 436 603 s \$0-running;
#X obj 436 582 t b;
#N canvas 1076 242 870 635 loop-stops-run-at-end 0;
#X obj 59 204 outlet;
#X obj 58 162 spigot 0;
#X obj 103 43 r \$0-last;
#X obj 103 130 f 1;
#X obj 163 43 r \$0-running;
#X obj 163 130 f 0;
#X obj 58 13 r \$0-loop;
#X obj 103 89 b;
#X connect 1 0 0 0;
#X connect 2 0 7 0;
#X connect 3 0 1 1;
#X connect 4 0 5 0;
#X connect 5 0 1 1;
#X connect 6 0 1 0;
#X connect 7 0 3 0;
#X restore 282 150 pd loop-stops-run-at-end;
#X obj 76 45 t b b, f 15;
#X obj 23 376 +;
#X obj 38 348 r \$0-step;
#X obj 23 452 >;
#X obj 146 590 t b b b, f 18;
#X obj 23 397 t f f;
#X obj 23 310 t f f f, f 14;
#X connect 0 0 11 0;
#X connect 1 0 7 0;
#X connect 3 0 4 0;
#X connect 3 0 35 0;
#X connect 4 0 3 1;
#X connect 5 0 4 1;
#X connect 6 0 10 0;
#X connect 7 0 14 0;
#X connect 8 0 32 1;
#X connect 9 0 33 0;
#X connect 9 1 27 0;
#X connect 10 0 3 1;
#X connect 11 0 25 0;
#X connect 13 0 20 0;
#X connect 14 0 15 0;
#X connect 15 0 22 0;
#X connect 17 0 29 0;
#X connect 18 0 25 1;
#X connect 19 0 18 1;
#X connect 20 0 10 0;
#X connect 21 0 2 0;
#X connect 22 0 12 0;
#X connect 23 0 21 0;
#X connect 23 1 9 0;
#X connect 25 0 3 0;
#X connect 27 0 26 0;
#X connect 28 0 25 1;
#X connect 29 0 10 0;
#X connect 29 1 18 0;
#X connect 30 0 34 0;
#X connect 31 0 30 1;
#X connect 32 0 23 0;
#X connect 33 0 24 0;
#X connect 33 1 16 0;
#X connect 34 0 32 0;
#X connect 35 0 30 0;
#X connect 35 1 21 1;
