#N canvas 128 474 651 336 10;
#X obj 32 34 inlet;
#X obj 275 44 inlet;
#X obj 42 262 outlet;
#X obj 141 174 t f f;
#X obj 270 156 r \$0-end;
#X obj 167 226 moses;
#X obj 198 268 -;
#X obj 270 178 t f f;
#X obj 141 152 count \$1 \$2;
#X obj 198 290 t b f;
#X obj 235 196 + 1;
#X obj 275 66 bind \$0 end \$3 8;
#X connect 0 0 8 0;
#X connect 1 0 11 0;
#X connect 3 1 5 0;
#X connect 4 0 7 0;
#X connect 5 0 2 0;
#X connect 5 1 6 0;
#X connect 6 0 9 0;
#X connect 7 0 10 0;
#X connect 7 1 6 1;
#X connect 8 0 3 0;
#X connect 9 0 8 0;
#X connect 9 1 8 1;
#X connect 10 0 5 1;
#X connect 11 0 8 1;
