#N canvas 113 483 549 300 10;
#X obj 63 25 bng 15 250 50 0 empty empty empty 17 7 0 10 -262144 -1
-1;
#X obj 147 213 print == default.wav;
#X obj 61 116 print == 500;
#X obj 59 210 print == 20;
#X obj 59 168 == 20;
#X obj 341 113 print balls;
#X obj 353 220 print should be 500;
#X obj 349 166 bng 15 250 50 0 empty empty empty 17 7 0 10 -262144
-1 -1;
#X obj 147 94 def-any ../ha.wav ../../ha.wav;
#X obj 61 94 def-any 0 500;
#X obj 147 142 def-any ../default.wav 0;
#X obj 59 146 def-any 20 0;
#X obj 341 91 def-any \$1-balls;
#X obj 353 198 def-any 500 666;
#X obj 147 116 print == ../ha.wav;
#X connect 0 0 8 0;
#X connect 0 0 9 0;
#X connect 0 0 10 0;
#X connect 0 0 11 0;
#X connect 0 0 12 0;
#X connect 4 0 3 0;
#X connect 7 0 13 0;
#X connect 8 0 14 0;
#X connect 9 0 2 0;
#X connect 10 0 1 0;
#X connect 11 0 4 0;
#X connect 12 0 5 0;
#X connect 13 0 6 0;
