#N canvas 761 381 494 361 10;
#X obj 30 15 inlet;
#X obj 41 294 outlet;
#X obj 41 261 any;
#X obj 100 106 list trim;
#X obj 100 153 list length;
#X obj 100 180 > 0;
#X obj 100 202 sel 1 0;
#X obj 30 67 any \$2;
#X obj 66 261 any \$1;
#X obj 30 37 b;
#X obj 100 234 b;
#X obj 125 235 b;
#X obj 30 89 t a a;
#X obj 100 128 route 0;
#X connect 0 0 9 0;
#X connect 2 0 1 0;
#X connect 3 0 13 0;
#X connect 4 0 5 0;
#X connect 5 0 6 0;
#X connect 6 0 10 0;
#X connect 6 1 11 0;
#X connect 7 0 12 0;
#X connect 8 0 1 0;
#X connect 9 0 7 0;
#X connect 10 0 2 0;
#X connect 11 0 8 0;
#X connect 12 0 3 0;
#X connect 12 1 2 1;
#X connect 13 0 4 0;
#X connect 13 1 4 0;
