#N canvas 239 365 450 300 10;
#X obj 78 260 outlet;
#X obj 51 96 f \$1;
#X obj 51 137 t f f;
#X obj 51 166 sel 0;
#X obj 78 228 f;
#X obj 51 35 inlet;
#X obj 51 65 t b;
#X obj 51 198 f \$2;
#X connect 1 0 2 0;
#X connect 2 0 3 0;
#X connect 2 1 4 1;
#X connect 3 0 7 0;
#X connect 3 1 4 0;
#X connect 4 0 0 0;
#X connect 5 0 6 0;
#X connect 6 0 1 0;
#X connect 7 0 4 0;
