#N canvas 574 364 450 300 10;
#X obj 28 14 inlet;
#X obj 28 237 outlet;
#X obj 28 112 list trim;
#X obj 28 175 == 0;
#X obj 91 176 list trim;
#X obj 91 198 t b;
#X obj 91 220 f 1;
#X obj 28 197 == 0;
#X obj 29 134 route float;
#X obj 28 38 route bang;
#X obj 28 90 list append \$1;
#X obj 81 61 t b a;
#X connect 0 0 9 0;
#X connect 2 0 8 0;
#X connect 3 0 7 0;
#X connect 4 0 5 0;
#X connect 5 0 6 0;
#X connect 6 0 1 0;
#X connect 7 0 1 0;
#X connect 8 0 3 0;
#X connect 8 1 4 0;
#X connect 9 0 10 0;
#X connect 9 1 11 0;
#X connect 10 0 2 0;
#X connect 11 0 10 0;
#X connect 11 1 10 1;
