#N canvas 1 443 958 363 10;
#X obj 120 117 inlet~;
#X obj 119 270 outlet~;
#X obj 281 111 inlet;
#N canvas 1 49 638 363 write~ 0;
#X obj 115 64 inlet~;
#X obj 115 86 delwrite~ \$0-buffer \$1;
#X connect 0 0 1 0;
#X restore 120 152 pd write~;
#N canvas 1 49 638 363 read~ 0;
#X obj 79 191 vd~ \$0-buffer;
#X obj 73 112 r \$0-delay;
#X obj 73 134 sig~;
#X obj 79 213 outlet~;
#X connect 0 0 3 0;
#X connect 1 0 2 0;
#X connect 2 0 0 0;
#X restore 101 216 pd read~;
#X obj 281 133 bind \$0 delay \$1;
#X connect 0 0 3 0;
#X connect 2 0 5 0;
#X connect 4 0 1 0;
