#N canvas 784 216 450 399 10;
#X obj 41 32 inlet;
#X obj 41 360 outlet;
#X obj 74 185 + 1;
#X obj 194 36 inlet;
#X obj 41 223 == \$1;
#X obj 68 334 s \$0-reset;
#X obj 41 304 t b b;
#X obj 56 94 r \$0-reset;
#X obj 56 116 t b;
#X obj 41 245 sel 1;
#X obj 56 145 f 1;
#X obj 41 185 f 1;
#X obj 194 58 route set reset;
#X obj 194 116 s \$0-set;
#X obj 237 93 s \$0-reset;
#X obj 115 155 r \$0-set;
#X obj 179 184 loadbang;
#X obj 179 206 def-f \$1 1;
#X obj 115 177 t b f;
#X connect 0 0 11 0;
#X connect 2 0 11 1;
#X connect 3 0 12 0;
#X connect 4 0 9 0;
#X connect 6 0 1 0;
#X connect 6 1 5 0;
#X connect 7 0 8 0;
#X connect 8 0 10 0;
#X connect 9 0 6 0;
#X connect 10 0 11 1;
#X connect 11 0 2 0;
#X connect 11 0 4 0;
#X connect 12 0 13 0;
#X connect 12 1 14 0;
#X connect 15 0 18 0;
#X connect 16 0 17 0;
#X connect 17 0 4 1;
#X connect 18 0 8 0;
#X connect 18 1 4 1;
