#N canvas 3264 748 450 525 12;
#X obj 48 21 inlet;
#X obj 49 355 outlet;
#X obj 99 357 outlet;
#X obj 74 113 t l b;
#X obj 46 227 t l b;
#X obj 47 179 for-each;
#X obj 117 287 f 0;
#X obj 99 319 f;
#X obj 138 323 + 1;
#X connect 0 0 3 0;
#X connect 3 0 5 0;
#X connect 3 1 6 0;
#X connect 4 0 1 0;
#X connect 4 1 7 0;
#X connect 5 0 4 0;
#X connect 6 0 7 1;
#X connect 7 0 8 0;
#X connect 7 0 2 0;
#X connect 8 0 7 1;
