#N canvas 277 470 450 300 10;
#X obj 96 100 line~;
#X obj 96 49 t b b;
#X obj 133 49 s \$0-go;
#X obj 119 168 r \$0-go;
#X msg 96 75 0 \, 1 1000;
#X obj 97 19 bng 15 250 50 0 empty empty empty 17 7 0 10 -262144 -1
-1;
#N canvas 0 22 450 300 (subpatch) 0;
#X array \$0-graph 48000 float 2;
#X coords 0 1 47999 0 200 140 1 0 0;
#X restore 216 70 graph;
#X obj 96 190 tabwrite~ \$0-graph;
#X obj 96 131 ecurve~ 0;
#X connect 0 0 8 0;
#X connect 1 0 4 0;
#X connect 1 1 2 0;
#X connect 3 0 7 0;
#X connect 4 0 0 0;
#X connect 5 0 1 0;
#X connect 8 0 7 0;
