#N canvas 800 159 523 461 10;
#X obj 97 49 inlet;
#X obj 129 429 outlet;
#X text 124 179 e;
#X obj 129 230 pow;
#X obj 174 48 inlet;
#X obj 232 46 loadbang;
#X obj 256 262 f 3.14159;
#X obj 144 183 pow;
#X obj 159 149 f;
#X obj 97 132 t b f b;
#X obj 129 254 - 1;
#X obj 256 341 /;
#X obj 256 310 swap 1;
#X obj 256 284 * 0.55;
#X obj 256 228 loadbang;
#X obj 129 358 *;
#X obj 62 179 f 2.71828;
#X text 343 176 0 = 0.66;
#X text 343 190 1 = 10;
#N canvas 978 397 450 300 input-normalize 0;
#X obj 12 20 inlet;
#X obj 12 273 outlet;
#X obj 12 169 pow;
#X obj 12 82 f 2.71828;
#X obj 12 214 * 0.66;
#X obj 12 42 t b f;
#X obj 76 83 * 2.7195;
#X connect 0 0 5 0;
#X connect 2 0 4 0;
#X connect 3 0 2 0;
#X connect 4 0 1 0;
#X connect 5 0 3 0;
#X connect 5 1 6 0;
#X connect 6 0 2 1;
#X restore 174 118 pd input-normalize;
#X obj 197 151 print;
#X text 336 160 -1 = 0.0434;
#X obj 232 68 f \$1;
#X obj 174 94 clip -1 1;
#X connect 0 0 9 0;
#X connect 3 0 10 0;
#X connect 4 0 23 0;
#X connect 5 0 22 0;
#X connect 6 0 13 0;
#X connect 7 0 3 1;
#X connect 8 0 7 1;
#X connect 9 0 16 0;
#X connect 9 1 7 0;
#X connect 9 2 8 0;
#X connect 10 0 15 0;
#X connect 11 0 15 1;
#X connect 12 0 11 0;
#X connect 12 1 11 1;
#X connect 13 0 12 0;
#X connect 14 0 6 0;
#X connect 15 0 1 0;
#X connect 16 0 3 0;
#X connect 19 0 8 1;
#X connect 19 0 20 0;
#X connect 22 0 23 0;
#X connect 23 0 19 0;
