#N canvas 133 199 462 345 10;
#X obj 17 25 inlet~;
#X obj 171 29 inlet;
#X obj 36 153 sig~ 2.71828;
#X obj 36 226 -~ 1;
#X obj 36 188 pow~;
#X obj 150 171 pow~;
#X obj 36 271 *~;
#X obj 36 304 outlet~;
#X obj 287 155 f 3.14159;
#X obj 287 234 /;
#X obj 287 203 swap 1;
#X obj 287 177 * 0.55;
#X obj 287 256 sig~;
#X obj 260 28 loadbang;
#X obj 260 55 t b b;
#X obj 171 146 sig~;
#N canvas 0 22 450 300 input-normalize 0;
#X obj 12 20 inlet;
#X obj 12 273 outlet;
#X obj 12 169 pow;
#X obj 12 82 f 2.71828;
#X obj 12 214 * 0.66;
#X obj 12 42 t b f;
#X obj 77 83 * 2.7195;
#X connect 0 0 5 0;
#X connect 2 0 4 0;
#X connect 3 0 2 0;
#X connect 4 0 1 0;
#X connect 5 0 3 0;
#X connect 5 1 6 0;
#X connect 6 0 2 1;
#X restore 171 120 pd input-normalize;
#X obj 260 78 f \$1;
#X obj 171 95 clip -1 1;
#X connect 0 0 5 0;
#X connect 1 0 18 0;
#X connect 2 0 4 0;
#X connect 3 0 6 0;
#X connect 4 0 3 0;
#X connect 5 0 4 1;
#X connect 6 0 7 0;
#X connect 8 0 11 0;
#X connect 9 0 12 0;
#X connect 10 0 9 0;
#X connect 10 1 9 1;
#X connect 11 0 10 0;
#X connect 12 0 6 1;
#X connect 13 0 14 0;
#X connect 14 0 17 0;
#X connect 14 1 8 0;
#X connect 15 0 5 1;
#X connect 16 0 15 0;
#X connect 17 0 18 0;
#X connect 18 0 16 0;
