#N canvas 0 22 450 300 10;
#X obj 22 26 inlet;
#X obj 22 286 outlet;
#X obj 22 101 t f b;
#X obj 46 201 f;
#X obj 71 201 + 1;
#X obj 22 137 until;
#X obj 60 138 f \$1;
#X obj 85 97 f \$2;
#X obj 22 48 route float;
#X obj 85 72 b;
#X connect 0 0 8 0;
#X connect 2 0 5 0;
#X connect 2 1 6 0;
#X connect 3 0 4 0;
#X connect 3 0 1 0;
#X connect 4 0 3 1;
#X connect 5 0 3 0;
#X connect 6 0 3 1;
#X connect 7 0 2 0;
#X connect 8 0 2 0;
#X connect 8 1 9 0;
#X connect 9 0 7 0;
