#N canvas 1 49 958 1150 10;
#X obj 22 26 inlet;
#X obj 21 458 outlet;
#X obj 25 308 t f b;
#X obj 29 411 f;
#X obj 74 408 + 1;
#X obj 19 342 until;
#X obj 63 345 f \$1;
#X obj 95 212 swap;
#X obj 22 51 route float list;
#X obj 132 82 b;
#X obj 130 242 -;
#X obj 130 268 + 1;
#X obj 76 145 pack \$1 \$2;
#X obj 76 170 unpack f f;
#X connect 0 0 8 0;
#X connect 2 0 5 0;
#X connect 2 1 6 0;
#X connect 3 0 4 0;
#X connect 3 0 1 0;
#X connect 4 0 3 1;
#X connect 5 0 3 0;
#X connect 6 0 3 1;
#X connect 7 0 10 0;
#X connect 7 1 6 1;
#X connect 7 1 10 1;
#X connect 8 0 2 0;
#X connect 8 1 12 0;
#X connect 8 2 9 0;
#X connect 9 0 12 0;
#X connect 10 0 11 0;
#X connect 11 0 2 0;
#X connect 12 0 13 0;
#X connect 13 0 7 0;
#X connect 13 1 7 1;
