#N canvas 961 49 958 362 10;
#X obj 63 85 print;
#X floatatom 61 27 5 0 0 0 - - -;
#X obj 151 82 print;
#X obj 145 19 bng 15 250 50 0 empty empty empty 17 7 0 10 -262144 -1
-1;
#X obj 114 215 print;
#X floatatom 115 149 5 0 0 0 - - -;
#X obj 236 212 print;
#X floatatom 237 146 5 0 0 0 - - -;
#X obj 320 212 print;
#X floatatom 321 146 5 0 0 0 - - -;
#X msg 506 151 4 10;
#X obj 506 195 print;
#X obj 151 60 enumerate 1 4;
#X obj 236 190 enumerate 1;
#X obj 63 63 enumerate;
#X obj 114 193 enumerate 1 4;
#X obj 320 190 enumerate 1;
#X obj 506 173 enumerate;
#X connect 1 0 14 0;
#X connect 3 0 12 0;
#X connect 5 0 15 0;
#X connect 7 0 13 0;
#X connect 9 0 16 0;
#X connect 10 0 17 0;
#X connect 12 0 2 0;
#X connect 13 0 6 0;
#X connect 14 0 0 0;
#X connect 15 0 4 0;
#X connect 16 0 8 0;
#X connect 17 0 11 0;
