#N canvas 722 123 450 300 10;
#N canvas 0 22 450 300 (subpatch) 0;
#X array \$0-ar~ 44800 float 2;
#X coords 0 1 44800 -1 200 140 1 0 0;
#X restore 209 105 graph;
#X obj 42 4 bng 15 250 50 0 empty empty empty 17 7 0 10 -262144 -1
-1;
#X obj 105 151 snapshot~;
#X floatatom 105 173 5 0 0 0 - - -;
#X obj 139 114 metro 10;
#X obj 44 33 t a b;
#X msg 68 6 0.5;
#X msg 97 8 1;
#X msg 132 23 0;
#X obj 42 194 tabwrite~ \$0-ar~;
#X obj 42 83 env-ar~ 100 400;
#X connect 1 0 5 0;
#X connect 2 0 3 0;
#X connect 4 0 2 0;
#X connect 5 0 10 0;
#X connect 5 1 9 0;
#X connect 6 0 5 0;
#X connect 7 0 5 0;
#X connect 8 0 10 0;
#X connect 10 0 2 0;
#X connect 10 0 9 0;
