#N canvas 273 484 374 303 10;
#X obj 24 33 inlet;
#X obj 193 36 inlet;
#X obj 24 279 outlet~;
#X obj 193 57 bind \$0 attack \$1;
#X obj 193 79 bind \$0 release \$2;
#X obj 193 101 bind \$0 attackVelocity 0;
#X obj 193 123 bind \$0 releaseVelocity 0;
#X obj 193 145 bind \$0 velocity 1;
#N canvas 406 22 743 690 envelopes 0;
#X obj 53 67 inlet;
#X obj 61 664 outlet;
#X obj 106 258 r \$0-attack;
#X obj 160 335 r \$0-attackVelocity;
#X obj 53 107 sel 0;
#X obj 80 159 s \$0-doAttack;
#X obj 53 182 s \$0-doRelease;
#X obj 145 361 *;
#X obj 130 384 *;
#X obj 61 285 pack f f;
#X obj 61 307 unpack f f;
#X obj 106 412 +;
#X obj 118 335 t f f;
#X obj 61 334 t f f;
#X obj 61 436 pack f f;
#X obj 61 236 r \$0-doAttack;
#X obj 374 488 *;
#X obj 359 511 *;
#X obj 290 412 pack f f;
#X obj 290 434 unpack f f;
#X obj 335 539 +;
#X obj 347 462 t f f;
#X obj 17 402 *;
#X obj 32 377 r \$0-velocity;
#X obj 290 363 r \$0-doRelease;
#X obj 335 385 r \$0-release;
#X obj 389 462 r \$0-releaseVelocity;
#X obj 290 461 t b f;
#X obj 290 563 pack 0 f;
#X obj 188 486 r \$0-reset;
#X obj 173 537 sel 1;
#X obj 173 512 f;
#X msg 173 597 0 0 0;
#X msg 215 596 stop;
#X obj 58 495 t l b;
#X obj 173 559 b;
#X obj 200 559 b;
#X msg 66 584 \$1 \$2 0;
#X connect 0 0 4 0;
#X connect 2 0 9 1;
#X connect 3 0 7 1;
#X connect 4 0 6 0;
#X connect 4 1 5 0;
#X connect 7 0 8 1;
#X connect 8 0 11 0;
#X connect 9 0 10 0;
#X connect 10 0 13 0;
#X connect 10 1 12 0;
#X connect 11 0 14 1;
#X connect 12 0 11 1;
#X connect 12 1 7 0;
#X connect 13 0 22 0;
#X connect 13 1 8 0;
#X connect 14 0 34 0;
#X connect 15 0 9 0;
#X connect 16 0 17 1;
#X connect 17 0 20 0;
#X connect 18 0 19 0;
#X connect 19 0 27 0;
#X connect 19 1 21 0;
#X connect 20 0 28 1;
#X connect 21 0 20 1;
#X connect 21 1 16 0;
#X connect 22 0 14 0;
#X connect 23 0 22 1;
#X connect 24 0 18 0;
#X connect 25 0 18 1;
#X connect 26 0 16 1;
#X connect 27 0 28 0;
#X connect 27 1 17 0;
#X connect 28 0 37 0;
#X connect 29 0 31 1;
#X connect 30 0 35 0;
#X connect 30 1 36 0;
#X connect 31 0 30 0;
#X connect 32 0 1 0;
#X connect 33 0 1 0;
#X connect 34 0 37 0;
#X connect 34 1 31 0;
#X connect 35 0 32 0;
#X connect 36 0 33 0;
#X connect 37 0 1 0;
#X restore 24 85 pd envelopes;
#X obj 24 127 vline~;
#X obj 193 167 bind \$0 reset 1;
#X connect 0 0 8 0;
#X connect 1 0 3 0;
#X connect 3 0 4 0;
#X connect 4 0 5 0;
#X connect 5 0 6 0;
#X connect 6 0 7 0;
#X connect 7 0 10 0;
#X connect 8 0 9 0;
#X connect 9 0 2 0;
