#N canvas 787 503 412 246 10;
#X obj 23 19 inlet;
#X obj 221 15 inlet;
#X obj 23 209 outlet~;
#X obj 221 59 bind \$0 decay \$2 100;
#X obj 23 96 vline~;
#N canvas 871 22 513 673 envelope 0;
#X obj 23 631 outlet;
#X obj 23 20 inlet;
#X obj 51 130 r \$0-attack;
#X obj 80 155 r \$0-decay;
#X obj 153 475 r \$0-reset;
#X obj 138 526 sel 1;
#X obj 138 501 f;
#X msg 139 586 0 0 0;
#X msg 181 585 stop;
#X obj 23 484 t l b;
#X obj 138 548 b;
#X obj 165 548 b;
#X obj 23 189 pack f f f;
#X obj 23 211 unpack f f f;
#X obj 179 381 *;
#X obj 194 354 r \$0-attackVelocity;
#X obj 275 280 *;
#X obj 23 455 pack f f f;
#X obj 23 41 route float;
#X obj 23 409 *;
#X obj 38 384 r \$0-velocity;
#X obj 83 431 +;
#X obj 138 240 t f f;
#X obj 101 240 t f f;
#X obj 53 430 +;
#X obj 290 253 r \$0-decayVelocity;
#X obj 260 301 *;
#X obj 164 404 *;
#X obj 23 240 t f f f;
#X obj 166 135 outlet;
#X msg 23 551 1 \$2 0 \, 0 \$3 \$2;
#X obj 24 63 t f f;
#X obj 112 106 f;
#X obj 82 61 t b b;
#X connect 1 0 18 0;
#X connect 2 0 12 1;
#X connect 3 0 12 2;
#X connect 4 0 6 1;
#X connect 5 0 10 0;
#X connect 5 1 11 0;
#X connect 6 0 5 0;
#X connect 7 0 0 0;
#X connect 8 0 0 0;
#X connect 9 0 30 0;
#X connect 9 1 6 0;
#X connect 10 0 7 0;
#X connect 11 0 8 0;
#X connect 12 0 13 0;
#X connect 13 0 28 0;
#X connect 13 1 23 0;
#X connect 13 2 22 0;
#X connect 14 0 27 1;
#X connect 15 0 14 1;
#X connect 16 0 26 1;
#X connect 17 0 9 0;
#X connect 18 0 31 0;
#X connect 18 1 33 0;
#X connect 19 0 17 0;
#X connect 20 0 19 1;
#X connect 21 0 17 2;
#X connect 22 0 21 0;
#X connect 22 1 16 0;
#X connect 23 0 24 0;
#X connect 23 1 14 0;
#X connect 24 0 17 1;
#X connect 25 0 16 1;
#X connect 26 0 21 1;
#X connect 27 0 24 1;
#X connect 28 0 19 0;
#X connect 28 1 27 0;
#X connect 28 2 26 0;
#X connect 30 0 0 0;
#X connect 31 0 12 0;
#X connect 31 1 32 0;
#X connect 32 0 29 0;
#X connect 33 0 12 0;
#X connect 33 1 32 0;
#X restore 23 60 pd envelope;
#X obj 221 37 bind \$0 attack \$1;
#X obj 221 81 bind \$0 reset 1;
#X obj 221 146 bind $o attackVelocity 0;
#X obj 221 168 bind \$0 decayVelocity 0;
#X obj 221 190 bind \$0 velocity 1;
#X obj 113 154 sig~;
#X obj 23 171 *~;
#N canvas 749 210 450 300 \$0-curve 0;
#X obj 14 14 inlet~;
#X obj 93 17 inlet;
#X obj 14 204 outlet~;
#X obj 93 118 f;
#X obj 93 38 b;
#X obj 108 68 r \$0-curve;
#X obj 14 161 proxy~;
#X obj 181 69 r \$0-curveType;
#X obj 181 91 route 0;
#X obj 220 122 list prepend set;
#X obj 220 144 list trim;
#X connect 0 0 6 0;
#X connect 1 0 4 0;
#X connect 3 0 6 1;
#X connect 4 0 3 0;
#X connect 5 0 3 1;
#X connect 6 0 2 0;
#X connect 7 0 8 0;
#X connect 8 1 9 0;
#X connect 9 0 10 0;
#X connect 10 0 6 2;
#X restore 23 143 pd \$0-curve;
#X obj 86 96 t b f;
#X obj 221 102 bind \$0 curveType \$4 ecurve~;
#X obj 221 123 bind \$0 curve \$3 0;
#X connect 0 0 5 0;
#X connect 1 0 6 0;
#X connect 3 0 7 0;
#X connect 4 0 13 0;
#X connect 5 0 4 0;
#X connect 5 1 14 0;
#X connect 6 0 3 0;
#X connect 7 0 15 0;
#X connect 8 0 9 0;
#X connect 9 0 10 0;
#X connect 11 0 12 1;
#X connect 12 0 2 0;
#X connect 13 0 12 0;
#X connect 14 0 13 1;
#X connect 14 1 11 0;
#X connect 15 0 16 0;
#X connect 16 0 8 0;
