#N canvas 958 511 395 379 10;
#X obj 87 21 inlet~;
#X obj 20 20 inlet~;
#X obj 21 317 outlet~;
#X obj 21 278 tabread~ \$0-lookup;
#X obj 186 146 loadbang;
#N canvas 254 342 450 300 init 0;
#X obj 16 44 inlet;
#X obj 16 66 t b b;
#X obj 45 116 pack \$0 1;
#X msg 45 138 \; \$1-lookup 0 0 1 0;
#X connect 0 0 1 0;
#X connect 1 0 2 0;
#X connect 2 0 3 0;
#X restore 186 168 pd init;
#X obj 157 233 table \$0-lookup 3;
#X obj 235 20 inlet;
#X obj 132 48 swap 1;
#X obj 132 70 /;
#X obj 132 21 r \$0-tolerance;
#X obj 235 42 bind \$0 tolerance 0.1;
#N canvas 0 22 450 300 quant 0;
#X obj 31 77 *~;
#X obj 49 107 wrap~;
#X obj 31 138 -~;
#X obj 31 179 *~;
#X obj 25 29 inlet~;
#X obj 188 26 inlet~;
#X obj 17 242 outlet~;
#X connect 0 0 1 0;
#X connect 0 0 2 0;
#X connect 1 0 2 1;
#X connect 2 0 3 0;
#X connect 3 0 6 0;
#X connect 4 0 0 0;
#X connect 5 0 0 1;
#X connect 5 0 3 1;
#X restore 21 109 pd quant;
#N canvas 0 22 450 300 quant 0;
#X obj 31 77 *~;
#X obj 49 107 wrap~;
#X obj 31 138 -~;
#X obj 31 179 *~;
#X obj 25 29 inlet~;
#X obj 188 26 inlet~;
#X obj 17 242 outlet~;
#X connect 0 0 1 0;
#X connect 0 0 2 0;
#X connect 1 0 2 1;
#X connect 2 0 3 0;
#X connect 3 0 6 0;
#X connect 4 0 0 0;
#X connect 5 0 0 1;
#X connect 5 0 3 1;
#X restore 87 166 pd quant;
#X obj 132 92 sig~;
#X obj 21 183 /~;
#X connect 0 0 13 0;
#X connect 1 0 12 0;
#X connect 3 0 2 0;
#X connect 4 0 5 0;
#X connect 7 0 11 0;
#X connect 8 0 9 0;
#X connect 8 1 9 1;
#X connect 9 0 14 0;
#X connect 10 0 8 0;
#X connect 12 0 15 0;
#X connect 13 0 15 1;
#X connect 14 0 13 1;
#X connect 14 0 12 1;
#X connect 15 0 3 0;
