#N canvas 1 49 958 1150 10;
#X obj 8 28 inlet;
#X obj 20 464 outlet;
#X obj 42 216 for-each;
#X obj 43 259 t a a;
#X obj 11 64 t b l b;
#X obj 33 427 collect;
#X obj 112 380 any;
#X obj 46 317 when \$1 \$2 bang;
#X connect 0 0 4 0;
#X connect 2 0 3 0;
#X connect 3 0 7 0;
#X connect 3 1 6 1;
#X connect 4 0 5 0;
#X connect 4 1 2 0;
#X connect 4 2 5 1;
#X connect 5 0 1 0;
#X connect 6 0 5 0;
#X connect 7 0 6 0;
