#N canvas 1 49 958 1150 10;
#X msg 172 96 1 2 3 4 5;
#X obj 110 43 bng 15 250 50 0 empty empty empty 17 7 0 10 -262144 -1
-1;
#X msg 133 73 5 6 7 8;
#X obj 113 280 print;
#X obj 315 175 for-each;
#X msg 318 140 1 2 3 4 5;
#X obj 315 197 print;
#X obj 113 129 for-each + 1;
#X connect 0 0 7 1;
#X connect 1 0 7 0;
#X connect 2 0 7 0;
#X connect 4 0 6 0;
#X connect 5 0 4 0;
#X connect 7 0 3 0;
