#N canvas 2582 278 522 434 10;
#X obj 17 7 inlet;
#X obj 322 12 inlet;
#X obj 72 414 outlet;
#X obj 17 82 list;
#X obj 70 249 list split 1;
#X obj 70 215 list;
#X obj 17 128 list length;
#X obj 17 150 until;
#X obj 17 104 t l l;
#X obj 70 275 list trim;
#X obj 17 172 bang;
#X connect 0 0 3 0;
#X connect 1 0 3 1;
#X connect 3 0 8 0;
#X connect 4 0 9 0;
#X connect 4 1 5 1;
#X connect 5 0 4 0;
#X connect 6 0 7 0;
#X connect 7 0 10 0;
#X connect 8 0 6 0;
#X connect 8 1 5 1;
#X connect 9 0 2 0;
#X connect 10 0 5 0;
