#N canvas 790 22 402 459 10;
#X obj 66 43 inlet;
#X obj 102 43 inlet;
#X obj 138 43 inlet;
#X obj 66 218 f;
#X obj 96 218 + 1;
#X obj 103 176 0;
#X obj 66 176 t b f;
#X obj 66 257 pack f f;
#X obj 65 285 unpack f f;
#X obj 65 380 outlet;
#X obj 122 380 outlet;
#X obj 66 132 for \$1 \$2 \$3;
#X obj 66 101 t l b;
#X obj 66 74 route list bang;
#X text 66 13 inlets: same as [for] but output includes index;
#X obj 110 104 t b b;
#X obj 72 340 swap;
#X connect 0 0 13 0;
#X connect 1 0 11 1;
#X connect 2 0 11 2;
#X connect 3 0 4 0;
#X connect 3 0 7 0;
#X connect 4 0 3 1;
#X connect 5 0 3 1;
#X connect 6 0 3 0;
#X connect 6 1 7 1;
#X connect 7 0 8 0;
#X connect 8 0 16 0;
#X connect 8 1 16 1;
#X connect 11 0 6 0;
#X connect 12 0 11 0;
#X connect 12 1 5 0;
#X connect 13 0 12 0;
#X connect 13 1 15 0;
#X connect 15 0 11 0;
#X connect 15 1 5 0;
#X connect 16 0 9 0;
#X connect 16 1 10 0;
