#N canvas 1 49 958 1150 10;
#X obj 17 7 inlet;
#X obj 322 12 inlet;
#X obj 71 414 outlet;
#X obj 17 82 list;
#X obj 70 249 list split 1;
#X obj 70 215 list;
#X obj 17 128 list length;
#X obj 17 150 until;
#X obj 17 104 t l l;
#X obj 70 275 list trim;
#X obj 17 172 bang;
#X obj 224 238 loadbang;
#X obj 70 347 proxy;
#X obj 224 264 def-any \$1 any;
#X obj 224 286 list append \$2;
#X obj 224 308 list prepend set;
#X obj 224 330 list trim;
#X connect 0 0 3 0;
#X connect 1 0 3 1;
#X connect 3 0 8 0;
#X connect 4 0 9 0;
#X connect 4 1 5 1;
#X connect 5 0 4 0;
#X connect 6 0 7 0;
#X connect 7 0 10 0;
#X connect 8 0 6 0;
#X connect 8 1 5 1;
#X connect 9 0 12 0;
#X connect 10 0 5 0;
#X connect 11 0 13 0;
#X connect 12 0 2 0;
#X connect 13 0 14 0;
#X connect 14 0 15 0;
#X connect 15 0 16 0;
#X connect 16 0 12 2;
