#N canvas 816 408 276 226 10;
#X obj 41 25 bng 15 250 50 0 empty empty empty 17 7 0 10 -262144 -1
-1;
#X obj 41 110 pack f f;
#X obj 41 157 print;
#X obj 41 67 for-i 0 1 10;
#X msg 59 25 0 9 10;
#X connect 0 0 3 0;
#X connect 1 0 2 0;
#X connect 3 0 1 0;
#X connect 3 1 1 1;
#X connect 4 0 3 0;
