#N canvas 356 97 349 527 10;
#X obj 40 394 until;
#X obj 40 464 f;
#X obj 40 425 t b;
#X obj 40 353 t f b;
#X obj 98 401 0;
#X obj 40 75 unpack f f f;
#X obj 40 203 /;
#X obj 40 175 -;
#X obj 40 103 swap;
#X obj 40 264 pack f f;
#X obj 109 129 t f f;
#X obj 40 234 swap;
#X obj 40 296 unpack;
#X obj 80 464 +;
#X obj 61 130 t f f;
#X obj 109 186 - 1;
#X obj 40 7 inlet;
#X obj 77 7 inlet;
#X obj 115 7 inlet;
#X obj 40 42 pack \$1 \$2 \$3;
#X obj 40 496 outlet;
#X text 165 7 inlet1: start (inclusive);
#X text 165 19 inlet2: end (inclusive);
#X text 166 36 inlet3: number of steps;
#X connect 0 0 2 0;
#X connect 1 0 13 0;
#X connect 1 0 20 0;
#X connect 2 0 1 0;
#X connect 3 0 0 0;
#X connect 3 1 4 0;
#X connect 4 0 1 1;
#X connect 5 0 8 0;
#X connect 5 1 8 1;
#X connect 5 2 10 0;
#X connect 6 0 11 0;
#X connect 7 0 6 0;
#X connect 8 0 7 0;
#X connect 8 1 14 0;
#X connect 9 0 12 0;
#X connect 10 0 15 0;
#X connect 10 1 11 1;
#X connect 11 0 9 0;
#X connect 11 1 9 1;
#X connect 12 0 3 0;
#X connect 12 1 13 1;
#X connect 13 0 1 1;
#X connect 14 0 7 1;
#X connect 14 1 4 1;
#X connect 15 0 6 1;
#X connect 16 0 19 0;
#X connect 17 0 19 1;
#X connect 18 0 19 2;
#X connect 19 0 5 0;
