#N canvas 303 470 450 300 10;
#X obj 109 107 ftoc~;
#X floatatom 109 38 5 0 0 0 - - -;
#X obj 109 57 mtof;
#X obj 109 80 sig~;
#X text 170 40 frequency to phases for cpole~ and czero~;
#X obj 141 186 snapshot~;
#X floatatom 141 208 5 0 0 0 - - -;
#X obj 65 166 metro 100;
#X obj 67 139 tgl 15 0 empty empty empty 17 7 0 10 -262144 -1 -1 1
1;
#X obj 201 185 snapshot~;
#X floatatom 201 207 5 0 0 0 - - -;
#X connect 0 0 5 0;
#X connect 0 1 9 0;
#X connect 1 0 2 0;
#X connect 2 0 3 0;
#X connect 3 0 0 0;
#X connect 5 0 6 0;
#X connect 7 0 5 0;
#X connect 7 0 9 0;
#X connect 8 0 7 0;
#X connect 9 0 10 0;
