#N canvas 280 113 329 301 10;
#X obj 8 25 inlet~;
#X obj 8 268 outlet~;
#X obj 88 268 outlet~;
#X obj 181 57 samplerate~;
#X obj 208 120 swap 1;
#X obj 208 142 /;
#X obj 181 24 loadbang;
#X obj 8 159 *~;
#X obj 8 122 clip~ 0;
#X obj 181 79 t f f;
#X obj 47 96 * 0.5;
#X obj 8 218 cos~;
#X obj 88 208 +~ 0.25;
#X obj 88 230 cos~;
#X connect 0 0 8 0;
#X connect 3 0 9 0;
#X connect 4 0 5 0;
#X connect 4 1 5 1;
#X connect 5 0 7 1;
#X connect 6 0 3 0;
#X connect 7 0 11 0;
#X connect 7 0 12 0;
#X connect 8 0 7 0;
#X connect 9 0 10 0;
#X connect 9 1 4 0;
#X connect 10 0 8 2;
#X connect 11 0 1 0;
#X connect 12 0 13 0;
#X connect 13 0 2 0;
