#N canvas 234 219 560 633 10;
#X obj 8 14 inlet;
#X obj 294 9 inlet;
#X obj 8 559 outlet;
#X obj 273 433 r \$0-periods;
#X obj 8 36 route float;
#X obj 8 58 == 1;
#X obj 8 150 metro 100;
#X obj 8 172 t b b;
#X obj 294 31 bind \$0 periods \$1 100;
#X obj 68 122 list trim;
#X obj 68 97 r \$0-setTime;
#X obj 283 229 r \$0-repeats;
#X obj 404 507 r \$0-mults;
#X msg 194 301 end \$1;
#X obj 107 513 f;
#X obj 107 350 t b;
#X obj 107 552 s \$0-setTime;
#X obj 181 457 list split 1;
#X obj 194 251 list split 1;
#X obj 194 273 list trim;
#X obj 181 479 list trim;
#X obj 181 381 t b b;
#X obj 181 358 spigot;
#X obj 237 336 r \$0-hold;
#X obj 237 358 == 0;
#X text 269 359 hold the current period time;
#X obj 213 411 s \$0-nextRepeat;
#X obj 194 201 r \$0-nextRepeat;
#X obj 294 75 bind \$0 hold 0;
#X obj 294 97 bind \$0 random 0;
#X obj 294 119 bind \$0 quantize;
#X obj 294 141 bind \$0 divisions;
#X obj 294 53 bind \$0 repeats 1;
#X obj 294 163 bind \$0 mults;
#X obj 273 455 print gmetro-periods;
#X obj 85 169 print setTime;
#X obj 181 435 rotate;
#X obj 341 533 rotate;
#X obj 194 229 rotate;
#X obj 107 328 counter 1 1 1 0;
#X connect 0 0 4 0;
#X connect 1 0 8 0;
#X connect 3 0 34 0;
#X connect 3 0 36 1;
#X connect 4 0 5 0;
#X connect 5 0 6 0;
#X connect 6 0 7 0;
#X connect 7 0 2 0;
#X connect 7 1 39 0;
#X connect 8 0 32 0;
#X connect 9 0 6 1;
#X connect 9 0 35 0;
#X connect 10 0 9 0;
#X connect 11 0 38 1;
#X connect 12 0 37 1;
#X connect 13 0 39 1;
#X connect 14 0 16 0;
#X connect 15 0 14 0;
#X connect 17 0 20 0;
#X connect 18 0 19 0;
#X connect 19 0 13 0;
#X connect 20 0 14 1;
#X connect 21 0 36 0;
#X connect 21 1 26 0;
#X connect 22 0 21 0;
#X connect 23 0 24 0;
#X connect 24 0 22 1;
#X connect 27 0 38 0;
#X connect 28 0 29 0;
#X connect 29 0 30 0;
#X connect 30 0 31 0;
#X connect 31 0 33 0;
#X connect 32 0 28 0;
#X connect 36 0 17 0;
#X connect 38 0 18 0;
#X connect 39 0 15 0;
#X connect 39 1 22 0;
