#N canvas 2674 799 783 363 10;
#X obj 10 -169 inlet;
#X obj 10 148 outlet;
#X obj 147 -162 inlet;
#X obj 296 -163 namecanvas \$0-self;
#N canvas 1520 615 958 1150 init-canvas 0;
#X obj 86 107 s \$0-self;
#X msg 86 76 coords 0 -1 1 1 \$1 \$2 1 100 100 \;;
#X obj 86 -118 loadbang;
#X obj 86 -96 t b b;
#X obj 86 46 pack f f;
#X obj 86 -18 * 20;
#X obj 86 4 + 3;
#X obj 131 3 * 20;
#X obj 131 25 + 20;
#X obj 86 -66 def-f \$1 1;
#X obj 131 -45 def-f \$2 1;
#X connect 1 0 0 0;
#X connect 2 0 3 0;
#X connect 3 0 9 0;
#X connect 3 1 10 0;
#X connect 4 0 1 0;
#X connect 5 0 6 0;
#X connect 6 0 4 0;
#X connect 7 0 8 0;
#X connect 8 0 4 1;
#X connect 9 0 5 0;
#X connect 10 0 7 0;
#X restore 320 -141 pd init-canvas;
#N canvas 2247 722 958 1150 init-toggles 0;
#X obj 32 18 loadbang;
#X obj 59 608 s \$0-self;
#X obj 32 62 sel 0;
#X obj 59 89 b;
#X obj 59 115 t b b b;
#X obj 59 345 t b f f f;
#X obj 144 384 div;
#X obj 108 384 mod;
#X obj 108 428 + 103;
#X obj 144 406 * 20;
#X obj 108 406 * 20;
#X obj 144 428 + 120;
#X obj 76 228 *;
#X obj 59 289 for 1;
#X obj 76 250 t f f;
#X obj 143 180 t f f f;
#X obj 76 182 t f f f;
#X obj 59 311 - 1;
#X obj 105 498 + 1;
#X obj 59 526 pack \$0 f f f f;
#X obj 77 470 t f f;
#X obj 32 40 f \$2;
#X text 413 573 create a toggle whos value is its index;
#X obj 76 158 def-f \$1 1;
#X obj 143 158 def-f \$2 1;
#X msg 58 567 obj \$4 \$5 tgl 15 0 \$1-toggle-clicked \$1-\$2-receive
empty 17 7 0 10 -262144 -1 -1 0 \$2;
#X connect 0 0 21 0;
#X connect 2 1 3 0;
#X connect 3 0 4 0;
#X connect 4 0 13 0;
#X connect 4 1 23 0;
#X connect 4 2 24 0;
#X connect 5 0 19 0;
#X connect 5 1 20 0;
#X connect 5 2 7 0;
#X connect 5 3 6 0;
#X connect 6 0 9 0;
#X connect 7 0 10 0;
#X connect 8 0 19 3;
#X connect 9 0 11 0;
#X connect 10 0 8 0;
#X connect 11 0 19 4;
#X connect 12 0 14 0;
#X connect 13 0 17 0;
#X connect 14 0 13 1;
#X connect 14 1 13 2;
#X connect 15 0 12 1;
#X connect 16 0 12 0;
#X connect 16 1 7 1;
#X connect 16 2 6 1;
#X connect 17 0 5 0;
#X connect 18 0 19 2;
#X connect 19 0 25 0;
#X connect 20 0 19 1;
#X connect 20 1 18 0;
#X connect 21 0 2 0;
#X connect 23 0 16 0;
#X connect 24 0 15 0;
#X connect 25 0 1 0;
#X restore 320 -122 pd init-toggles;
#N canvas 2180 582 1150 1150 read 0;
#X obj 19 19 inlet;
#X obj 19 263 outlet;
#X obj 19 98 f;
#X obj 19 120 t f f;
#X obj 19 181 pack f f;
#X obj 64 147 array get \$0-data 0 1;
#X connect 0 0 2 0;
#X connect 2 0 3 0;
#X connect 3 0 4 0;
#X connect 3 1 5 0;
#X connect 4 0 1 0;
#X connect 5 0 4 1;
#X restore 10 -74 pd read;
#N canvas 2315 1080 776 617 write 0;
#X obj 120 26 r \$0-receive;
#X obj 120 100 unpack f f;
#X obj 120 126 swap;
#X obj 49 28 r \$0-set;
#X obj 49 167 s \$0-send;
#X obj 49 80 unpack f f;
#X obj 49 106 - 1;
#X obj 49 50 t l l;
#X obj 49 134 pack f f;
#X obj 120 66 t l l l;
#X obj 120 157 array set \$0-data;
#X connect 0 0 9 0;
#X connect 1 0 2 0;
#X connect 1 1 2 1;
#X connect 2 0 10 0;
#X connect 2 1 10 1;
#X connect 3 0 7 0;
#X connect 5 0 6 0;
#X connect 5 1 8 1;
#X connect 6 0 8 0;
#X connect 7 0 5 0;
#X connect 7 1 9 0;
#X connect 8 0 4 0;
#X connect 9 0 1 0;
#X restore 66 -74 pd write;
#X obj 147 -140 route set;
#X obj 147 -76 s \$0-set;
#N canvas 1432 74 958 1150 guifeedback 0;
#X obj -45 -27 inlet;
#N canvas 359 456 450 300 mem 0;
#X obj 155 124 f;
#X obj 182 169 f;
#X obj 155 9 inlet;
#X obj 155 250 outlet;
#X obj 182 214 outlet;
#X text 151 263 current;
#X text 180 228 last;
#X obj 197 9 loadbang;
#X obj 155 38 t f b;
#X msg 197 39 1;
#X obj 110 78 select 0;
#X connect 0 0 1 1;
#X connect 0 0 3 0;
#X connect 1 0 4 0;
#X connect 2 0 8 0;
#X connect 7 0 9 0;
#X connect 8 0 10 0;
#X connect 8 0 0 0;
#X connect 8 1 1 0;
#X connect 9 0 0 1;
#X connect 9 0 1 1;
#X restore -45 107 pd mem 64;
#X obj 6 137 pack f \$0 0 -1 -1;
#X obj -45 164 pack f \$0 -65281 -1 -1;
#X msg -45 238 \; \$2-\$1-receive color \$3 \$4 \$5;
#X msg 6 204 \; \$2-\$1-receive color \$3 \$4 \$5;
#X obj -45 -5 unpack f f;
#X connect 0 0 6 0;
#X connect 1 0 3 0;
#X connect 1 1 2 0;
#X connect 2 0 5 0;
#X connect 3 0 4 0;
#X connect 6 0 1 0;
#X restore 29 36 pd guifeedback;
#X obj 10 -103 - 1;
#X obj 10 61 unpack f f;
#X obj 10 105 pack f f;
#X obj 10 83 + 1;
#N canvas 1 49 958 1150 limits 0;
#X obj 100 12 loadbang;
#X obj 100 34 t b b;
#X obj 102 84 *;
#X obj 19 12 inlet;
#X obj 23 250 outlet;
#X obj 58 152 moses;
#X obj 19 104 moses 1;
#X obj 102 106 + 1;
#X obj 100 56 def-f \$2 1;
#X obj 224 44 def-f \$3 1;
#X connect 0 0 1 0;
#X connect 1 0 8 0;
#X connect 1 1 9 0;
#X connect 2 0 7 0;
#X connect 3 0 6 0;
#X connect 5 0 4 0;
#X connect 6 1 5 0;
#X connect 7 0 5 1;
#X connect 8 0 2 0;
#X connect 9 0 2 1;
#X restore 10 -134 pd limits;
#X text 459 -13 init steps;
#X obj 49 7 outlet;
#X obj 10 -52 t l l l;
#N canvas 1 49 958 1150 event-computations 0;
#X obj 14 12 inlet;
#X obj 10 267 outlet;
#X obj 14 34 unpack f f;
#X obj 14 89 t f f f;
#N canvas 1 49 958 1150 next-row 0;
#X obj 13 13 inlet;
#X obj 14 270 outlet;
#X obj 112 14 loadbang;
#X msg 14 245 nextRow;
#X obj 13 74 div;
#X obj 13 96 change;
#X obj 52 145 f;
#X obj 13 118 t f f b;
#X obj 32 172 -;
#X obj 32 194 sel 1 -1;
#X msg 70 224 previousRow;
#X obj 112 57 def-f \$2;
#X connect 0 0 4 0;
#X connect 2 0 11 0;
#X connect 3 0 1 0;
#X connect 4 0 5 0;
#X connect 5 0 7 0;
#X connect 6 0 8 1;
#X connect 7 0 6 1;
#X connect 7 1 8 0;
#X connect 7 2 6 0;
#X connect 8 0 9 0;
#X connect 9 0 3 0;
#X connect 9 1 10 0;
#X connect 10 0 1 0;
#X connect 11 0 4 1;
#X restore 53 118 pd next-row;
#X text 209 14 hop \, skip \, jump;
#N canvas 1 49 958 1150 next-previous 0;
#X obj 4 9 inlet;
#X obj 23 264 outlet;
#X obj 43 56 f;
#X obj 4 31 t f f b;
#X obj 23 78 -;
#X obj 23 126 b;
#X obj 56 128 b;
#X msg 23 160 next;
#X msg 56 160 previous;
#X obj 23 100 sel 1 -1 2;
#X obj 82 128 b;
#X msg 112 160 skip;
#X msg 149 161 jump;
#X obj 109 129 b;
#X connect 0 0 3 0;
#X connect 2 0 4 1;
#X connect 3 0 2 1;
#X connect 3 1 4 0;
#X connect 3 2 2 0;
#X connect 4 0 9 0;
#X connect 5 0 7 0;
#X connect 6 0 8 0;
#X connect 7 0 1 0;
#X connect 8 0 1 0;
#X connect 9 0 5 0;
#X connect 9 1 6 0;
#X connect 9 2 10 0;
#X connect 9 3 13 0;
#X connect 10 0 11 0;
#X connect 11 0 1 0;
#X connect 12 0 1 0;
#X connect 13 0 12 0;
#X restore 14 161 pd next-previous;
#N canvas 1 49 958 1150 begin 0;
#X obj 18 19 inlet;
#X obj 18 63 sel 1;
#X obj 18 85 b;
#X obj 18 129 outlet;
#X msg 18 107 begin;
#X obj 18 41 == 0;
#X connect 0 0 5 0;
#X connect 1 0 2 0;
#X connect 2 0 4 0;
#X connect 4 0 3 0;
#X connect 5 0 1 0;
#X restore 33 139 pd begin;
#X connect 0 0 2 0;
#X connect 2 0 3 0;
#X connect 3 0 6 0;
#X connect 3 1 7 0;
#X connect 3 2 4 0;
#X connect 4 0 1 0;
#X connect 6 0 1 0;
#X connect 7 0 1 0;
#X restore 49 -25 pd event-computations;
#X obj 407 33 savestate;
#X obj 466 66 array get \$0-data 0 -1;
#X obj 434 92 array set \$0-data;
#N canvas 2367 512 450 300 init-table 0;
#X obj 219 135 t b b, f 6;
#X obj 220 111 loadbang;
#X obj 219 180 *;
#X obj 218 222 array size \$0-data;
#X obj 31 48 array define \$0-data;
#X obj 219 160 def-f \$1 1;
#X obj 288 161 def-f \$2 1;
#X connect 0 0 5 0;
#X connect 0 1 6 0;
#X connect 1 0 0 0;
#X connect 2 0 3 0;
#X connect 5 0 2 0;
#X connect 6 0 2 1;
#X restore 321 -103 pd init-table;
#N canvas 2357 471 531 364 click-handler 0;
#X obj 19 21 r \$0-toggle-clicked;
#X obj 19 58 t f f f, f 33;
#X obj 18 219 array set \$0-data, f 66;
#X obj 18 138 pack f f, f 33;
#X obj 68 168 print clicked;
#X obj 28 186 unpack f f;
#X obj 19 41 print incoming;
#X connect 0 0 1 0;
#X connect 0 0 6 0;
#X connect 1 2 3 1;
#X connect 3 0 4 0;
#X connect 3 0 5 0;
#X connect 5 0 2 0;
#X connect 5 1 2 1;
#X restore 321 -83 pd click-handler;
#N canvas 2681 1534 450 300 table-to-toggles 0;
#X obj 22 14 inlet;
#X obj 22 34 t b;
#X obj 22 54 array get \$0-data 0 -1;
#X obj 22 191 s;
#X obj 110 129 pack \$0 f;
#X obj 22 84 each-index;
#X obj 110 99 t b f;
#X msg 110 154 symbol \$1-\$2-receive;
#X obj 165 33 print read;
#X connect 0 0 1 0;
#X connect 1 0 2 0;
#X connect 2 0 5 0;
#X connect 2 0 8 0;
#X connect 4 0 7 0;
#X connect 5 0 3 0;
#X connect 5 1 6 0;
#X connect 6 0 4 0;
#X connect 6 1 4 1;
#X connect 7 0 3 1;
#X restore 407 112 pd table-to-toggles;
#X obj 407 64 t b l;
#X obj 618 69 print grid-state-save;
#X connect 0 0 15 0;
#X connect 2 0 8 0;
#X connect 6 0 18 0;
#X connect 8 0 9 0;
#X connect 11 0 6 0;
#X connect 12 0 14 0;
#X connect 12 1 13 1;
#X connect 13 0 1 0;
#X connect 14 0 13 0;
#X connect 15 0 11 0;
#X connect 18 0 12 0;
#X connect 18 1 10 0;
#X connect 18 2 19 0;
#X connect 19 0 17 0;
#X connect 20 0 26 0;
#X connect 20 1 21 0;
#X connect 21 0 20 0;
#X connect 21 0 27 0;
#X connect 26 0 25 0;
#X connect 26 1 22 0;
#X coords 0 -1 1 1 23 40 1 100 100;
