#N canvas 63 514 563 363 10;
#X obj 10 -169 inlet;
#X obj 10 148 outlet;
#X obj 147 -162 inlet;
#X obj 296 -163 namecanvas \$0-self;
#N canvas 1 49 958 1150 init-canvas 0;
#X obj 86 107 s \$0-self;
#X msg 86 76 coords 0 -1 1 1 \$1 \$2 1 100 100 \;;
#X obj 86 -118 loadbang;
#X obj 86 -96 t b b;
#X obj 86 46 pack f f;
#X obj 86 -18 * 20;
#X obj 86 4 + 3;
#X obj 131 3 * 20;
#X obj 131 25 + 20;
#X obj 86 -66 def-f \$2 1;
#X obj 131 -45 def-f \$3 1;
#X connect 1 0 0 0;
#X connect 2 0 3 0;
#X connect 3 0 9 0;
#X connect 3 1 10 0;
#X connect 4 0 1 0;
#X connect 5 0 6 0;
#X connect 6 0 4 0;
#X connect 7 0 8 0;
#X connect 8 0 4 1;
#X connect 9 0 5 0;
#X connect 10 0 7 0;
#X restore 320 -141 pd init-canvas;
#N canvas 1 49 958 1150 init-toggles 0;
#X obj 32 18 loadbang;
#X obj 59 608 s \$0-self;
#X obj 32 62 sel 0;
#X obj 59 89 b;
#X obj 59 115 t b b b;
#X obj 59 345 t b f f f;
#X obj 144 384 div;
#X obj 108 384 mod;
#X obj 108 428 + 103;
#X obj 144 406 * 20;
#X obj 108 406 * 20;
#X obj 144 428 + 120;
#X obj 76 228 *;
#X obj 59 289 for 1;
#X obj 76 250 t f f;
#X obj 143 180 t f f f;
#X obj 76 182 t f f f;
#X obj 59 311 - 1;
#X obj 105 498 + 1;
#X obj 59 526 pack \$0 f f f f;
#X obj 77 470 t f f;
#X msg 59 567 obj \$4 \$5 tgl 15 0 \$1-\$2-send \$1-\$2-receive empty
17 7 0 10 -262144 -1 -1 0 1;
#X obj 76 158 def-f \$2 1;
#X obj 143 158 def-f \$3 1;
#X obj 32 40 f \$2;
#X connect 0 0 24 0;
#X connect 2 1 3 0;
#X connect 3 0 4 0;
#X connect 4 0 13 0;
#X connect 4 1 22 0;
#X connect 4 2 23 0;
#X connect 5 0 19 0;
#X connect 5 1 20 0;
#X connect 5 2 7 0;
#X connect 5 3 6 0;
#X connect 6 0 9 0;
#X connect 7 0 10 0;
#X connect 8 0 19 3;
#X connect 9 0 11 0;
#X connect 10 0 8 0;
#X connect 11 0 19 4;
#X connect 12 0 14 0;
#X connect 13 0 17 0;
#X connect 14 0 13 1;
#X connect 14 1 13 2;
#X connect 15 0 12 1;
#X connect 16 0 12 0;
#X connect 16 1 7 1;
#X connect 16 2 6 1;
#X connect 17 0 5 0;
#X connect 18 0 19 2;
#X connect 19 0 21 0;
#X connect 20 0 19 1;
#X connect 20 1 18 0;
#X connect 21 0 1 0;
#X connect 22 0 16 0;
#X connect 23 0 15 0;
#X connect 24 0 2 0;
#X restore 320 -122 pd init-toggles;
#N canvas 1 49 958 1150 init-table 0;
#X obj 32 23 loadbang;
#X obj 32 45 t b b;
#X obj 32 126 *;
#X obj 85 24 bng 15 250 50 0 empty empty empty 17 7 0 10 -262144 -1
-1;
#X obj 32 148 pack f \$0;
#X msg 98 209 obj 100 50 table \$2-data \$1;
#X obj 31 240 s pd-\$0-table;
#X obj 32 170 t b l b;
#X msg 90 185 clear;
#X msg 25 208 loadbang;
#X obj 31 87 def-f \$2 1;
#X obj 126 87 def-f \$3 1;
#X connect 0 0 1 0;
#X connect 1 0 10 0;
#X connect 1 1 11 0;
#X connect 2 0 4 0;
#X connect 3 0 1 0;
#X connect 4 0 7 0;
#X connect 5 0 6 0;
#X connect 7 0 9 0;
#X connect 7 1 5 0;
#X connect 7 2 8 0;
#X connect 8 0 6 0;
#X connect 9 0 6 0;
#X connect 10 0 2 0;
#X connect 11 0 2 1;
#X restore 320 -103 pd init-table;
#N canvas 1 49 958 1150 \$0-table 0;
#X obj 100 50 table 1173-data 1;
#X restore 442 -103 pd \$0-table;
#N canvas 1 49 1150 1150 init-handlers 0;
#X obj 34 131 *;
#X obj 12 7 loadbang;
#X obj 12 51 sel 0;
#X obj 11 181 for 1;
#X obj 36 155 t f f;
#X obj 11 203 - 1;
#X obj 11 74 t b b b b;
#X obj 26 426 s pd-\$0-handlers;
#X obj 29 327 pack \$0 0 f f;
#X obj 11 225 t b b f f;
#X obj 43 276 * 20;
#X msg 29 349 obj \$2 \$3 msg-map \$4 \$1-\$4-send \$1-\$4-receive
\$1-send \$1-receive;
#X obj 34 102 def-f \$2 1;
#X obj 113 102 def-f \$3 1;
#X obj 12 29 f \$2;
#X connect 0 0 4 0;
#X connect 1 0 14 0;
#X connect 2 1 6 0;
#X connect 3 0 5 0;
#X connect 4 0 3 1;
#X connect 4 1 3 2;
#X connect 5 0 9 0;
#X connect 6 0 3 0;
#X connect 6 1 12 0;
#X connect 6 2 13 0;
#X connect 8 0 11 0;
#X connect 9 0 8 0;
#X connect 9 2 10 0;
#X connect 9 3 8 3;
#X connect 10 0 8 2;
#X connect 11 0 7 0;
#X connect 12 0 0 0;
#X connect 13 0 0 1;
#X connect 14 0 2 0;
#X restore 320 -84 pd init-handlers;
#N canvas 1 49 958 1150 \$0-handlers 0;
#X restore 442 -84 pd \$0-handlers;
#N canvas 1 49 1150 1150 read 0;
#X obj 19 19 inlet;
#X obj 19 263 outlet;
#X obj 19 98 f;
#X obj 64 137 tabread \$0-data;
#X obj 19 120 t f f;
#X obj 19 181 pack f f;
#X connect 0 0 2 0;
#X connect 2 0 4 0;
#X connect 3 0 5 1;
#X connect 4 0 5 0;
#X connect 4 1 3 0;
#X connect 5 0 1 0;
#X restore 10 -74 pd read;
#N canvas 1 22 1150 804 write 0;
#X obj 50 -40 r \$0-receive;
#X obj 50 34 unpack f f;
#X obj 50 60 swap;
#X obj 50 91 tabwrite \$0-data;
#X obj 390 -40 r \$0-set;
#X obj 390 99 s \$0-send;
#X obj 390 12 unpack f f;
#X obj 390 34 - 1;
#X obj 177 47 list prepend set;
#X obj 177 69 list trim;
#X obj 177 91 s \$1;
#X obj 539 -1 unpack f f;
#X obj 539 25 swap;
#X obj 539 56 tabwrite \$0-data;
#X obj 390 -18 t l l;
#X obj 390 66 pack f f;
#X obj 50 -18 t l l l;
#X obj 220 -20 print grid-received;
#X connect 0 0 16 0;
#X connect 1 0 2 0;
#X connect 1 1 2 1;
#X connect 2 0 3 0;
#X connect 2 1 3 1;
#X connect 4 0 14 0;
#X connect 6 0 7 0;
#X connect 6 1 15 1;
#X connect 7 0 15 0;
#X connect 8 0 9 0;
#X connect 9 0 10 0;
#X connect 11 0 12 0;
#X connect 11 1 12 1;
#X connect 12 0 13 0;
#X connect 12 1 13 1;
#X connect 14 0 6 0;
#X connect 14 1 11 0;
#X connect 15 0 5 0;
#X connect 16 0 1 0;
#X restore 66 -74 pd write;
#X obj 147 -140 route set;
#X obj 147 -76 s \$0-set;
#N canvas 1 49 958 1150 guifeedback 0;
#X obj -45 -27 inlet;
#N canvas 359 456 450 300 mem 0;
#X obj 155 124 f;
#X obj 182 169 f;
#X obj 155 9 inlet;
#X obj 155 250 outlet;
#X obj 182 214 outlet;
#X text 151 263 current;
#X text 180 228 last;
#X obj 197 9 loadbang;
#X obj 155 38 t f b;
#X msg 197 39 1;
#X obj 110 78 select 0;
#X connect 0 0 1 1;
#X connect 0 0 3 0;
#X connect 1 0 4 0;
#X connect 2 0 8 0;
#X connect 7 0 9 0;
#X connect 8 0 10 0;
#X connect 8 0 0 0;
#X connect 8 1 1 0;
#X connect 9 0 0 1;
#X connect 9 0 1 1;
#X restore -45 107 pd mem 64;
#X obj 6 137 pack f \$0 0 -1 -1;
#X obj -45 164 pack f \$0 -65281 -1 -1;
#X msg -45 238 \; \$2-\$1-receive color \$3 \$4 \$5;
#X msg 6 204 \; \$2-\$1-receive color \$3 \$4 \$5;
#X obj -45 -5 unpack f f;
#X connect 0 0 6 0;
#X connect 1 0 3 0;
#X connect 1 1 2 0;
#X connect 2 0 5 0;
#X connect 3 0 4 0;
#X connect 6 0 1 0;
#X restore 29 36 pd guifeedback;
#X obj 10 -103 - 1;
#X obj 10 61 unpack f f;
#X obj 10 105 pack f f;
#X obj 10 83 + 1;
#N canvas 1 49 958 1150 limits 0;
#X obj 100 12 loadbang;
#X obj 100 34 t b b;
#X obj 102 84 *;
#X obj 19 12 inlet;
#X obj 23 250 outlet;
#X obj 58 152 moses;
#X obj 19 104 moses 1;
#X obj 102 106 + 1;
#X obj 100 56 def-f \$2 1;
#X obj 224 44 def-f \$3 1;
#X connect 0 0 1 0;
#X connect 1 0 8 0;
#X connect 1 1 9 0;
#X connect 2 0 7 0;
#X connect 3 0 6 0;
#X connect 5 0 4 0;
#X connect 6 1 5 0;
#X connect 7 0 5 1;
#X connect 8 0 2 0;
#X connect 9 0 2 1;
#X restore 10 -134 pd limits;
#X text 317 -66 init steps;
#X text 441 -66 dynamic patching;
#X obj 49 7 outlet;
#X obj 10 -52 t l l l;
#N canvas 1 49 958 1150 event-computations 0;
#X obj 14 12 inlet;
#X obj 10 267 outlet;
#X obj 14 34 unpack f f;
#X obj 14 89 t f f f;
#N canvas 1 49 958 1150 next-row 0;
#X obj 13 13 inlet;
#X obj 14 270 outlet;
#X obj 112 14 loadbang;
#X msg 14 245 nextRow;
#X obj 13 74 div;
#X obj 13 96 change;
#X obj 52 145 f;
#X obj 13 118 t f f b;
#X obj 32 172 -;
#X obj 32 194 sel 1 -1;
#X msg 70 224 previousRow;
#X obj 112 57 def-f \$2;
#X connect 0 0 4 0;
#X connect 2 0 11 0;
#X connect 3 0 1 0;
#X connect 4 0 5 0;
#X connect 5 0 7 0;
#X connect 6 0 8 1;
#X connect 7 0 6 1;
#X connect 7 1 8 0;
#X connect 7 2 6 0;
#X connect 8 0 9 0;
#X connect 9 0 3 0;
#X connect 9 1 10 0;
#X connect 10 0 1 0;
#X connect 11 0 4 1;
#X restore 53 118 pd next-row;
#X text 209 14 hop \, skip \, jump;
#N canvas 1 49 958 1150 next-previous 0;
#X obj 4 9 inlet;
#X obj 23 264 outlet;
#X obj 43 56 f;
#X obj 4 31 t f f b;
#X obj 23 78 -;
#X obj 23 126 b;
#X obj 56 128 b;
#X msg 23 160 next;
#X msg 56 160 previous;
#X obj 23 100 sel 1 -1 2;
#X obj 82 128 b;
#X msg 112 160 skip;
#X msg 149 161 jump;
#X obj 109 129 b;
#X connect 0 0 3 0;
#X connect 2 0 4 1;
#X connect 3 0 2 1;
#X connect 3 1 4 0;
#X connect 3 2 2 0;
#X connect 4 0 9 0;
#X connect 5 0 7 0;
#X connect 6 0 8 0;
#X connect 7 0 1 0;
#X connect 8 0 1 0;
#X connect 9 0 5 0;
#X connect 9 1 6 0;
#X connect 9 2 10 0;
#X connect 9 3 13 0;
#X connect 10 0 11 0;
#X connect 11 0 1 0;
#X connect 12 0 1 0;
#X connect 13 0 12 0;
#X restore 14 161 pd next-previous;
#N canvas 1 49 958 1150 begin 0;
#X obj 18 19 inlet;
#X obj 18 63 sel 1;
#X obj 18 85 b;
#X obj 18 129 outlet;
#X msg 18 107 begin;
#X obj 18 41 == 0;
#X connect 0 0 5 0;
#X connect 1 0 2 0;
#X connect 2 0 4 0;
#X connect 4 0 3 0;
#X connect 5 0 1 0;
#X restore 33 139 pd begin;
#X connect 0 0 2 0;
#X connect 2 0 3 0;
#X connect 3 0 6 0;
#X connect 3 1 7 0;
#X connect 3 2 4 0;
#X connect 4 0 1 0;
#X connect 6 0 1 0;
#X connect 7 0 1 0;
#X restore 49 -25 pd event-computations;
#N canvas 115 412 538 380 preset-messages 0;
#X obj 202 173 r \$1;
#N canvas 1 22 1150 804 set-all 0;
#X obj 72 75 inlet;
#X obj 85 158 for-each;
#X obj 73 113 t b l b;
#X obj 218 234 f 0;
#X obj 246 234 + 1;
#X msg 234 187 0;
#X obj 109 376 pack f f;
#X obj 109 398 s \$0-set;
#X obj 85 180 t b f;
#X obj 209 323 + 1;
#X connect 0 0 2 0;
#X connect 1 0 8 0;
#X connect 2 1 1 0;
#X connect 2 2 5 0;
#X connect 3 0 4 0;
#X connect 3 0 9 0;
#X connect 4 0 3 1;
#X connect 5 0 3 1;
#X connect 6 0 7 0;
#X connect 8 0 3 0;
#X connect 8 1 6 1;
#X connect 9 0 6 0;
#X restore 202 248 pd set-all;
#N canvas 1 49 1150 1150 send-size 0;
#X obj 127 154 inlet;
#X obj 122 311 *;
#X obj 122 333 s;
#X obj 124 219 t b s;
#X obj 127 176 symbol;
#X obj 123 250 pack \$2 \$3;
#X connect 0 0 4 0;
#X connect 1 0 2 0;
#X connect 3 0 5 0;
#X connect 3 1 2 1;
#X connect 4 0 3 0;
#X connect 5 0 1 0;
#X restore 270 249 pd send-size;
#N canvas 0 22 450 300 get-all 0;
#X obj 48 22 inlet;
#X restore 355 248 pd get-all;
#X obj 202 206 route set-all size save;
#X connect 0 0 4 0;
#X connect 4 0 1 0;
#X connect 4 1 2 0;
#X connect 4 2 3 0;
#X restore 320 -34 pd preset-messages;
#X connect 0 0 19 0;
#X connect 2 0 12 0;
#X connect 10 0 23 0;
#X connect 12 0 13 0;
#X connect 15 0 10 0;
#X connect 16 0 18 0;
#X connect 16 1 17 1;
#X connect 17 0 1 0;
#X connect 18 0 17 0;
#X connect 19 0 15 0;
#X connect 23 0 16 0;
#X connect 23 1 14 0;
#X connect 23 2 24 0;
#X connect 24 0 22 0;
#X coords 0 -1 1 1 23 40 1 100 100;
