#N canvas 161 22 516 541 10;
#X obj 10 -169 inlet;
#X obj 7 65 outlet;
#X obj 141 -169 inlet;
#X obj 216 -175 namecanvas \$0-self;
#N canvas 829 127 362 303 init-canvas 0;
#X obj 86 107 s \$0-self;
#X msg 86 76 coords 0 -1 1 1 \$1 \$2 1 100 100 \;;
#X obj 86 -118 loadbang;
#X obj 86 -96 t b b;
#X obj 86 46 pack f f;
#X obj 86 -66 def-f \$1 1;
#X obj 131 -45 def-f \$2 1;
#X obj 86 -18 * 20;
#X obj 86 4 + 3;
#X obj 131 3 * 20;
#X obj 131 25 + 20;
#X connect 1 0 0 0;
#X connect 2 0 3 0;
#X connect 3 0 5 0;
#X connect 3 1 6 0;
#X connect 4 0 1 0;
#X connect 5 0 7 0;
#X connect 6 0 9 0;
#X connect 7 0 8 0;
#X connect 8 0 4 0;
#X connect 9 0 10 0;
#X connect 10 0 4 1;
#X restore 240 -153 pd init-canvas;
#N canvas 200 60 522 710 init-toggles 0;
#X obj 32 18 loadbang;
#X obj 59 608 s \$0-self;
#X obj 32 40 f \$1;
#X obj 32 62 sel 0;
#X obj 59 89 b;
#X obj 59 115 t b b b;
#X obj 59 345 t b f f f;
#X obj 144 384 div;
#X obj 108 384 mod;
#X obj 108 428 + 103;
#X obj 144 406 * 20;
#X obj 108 406 * 20;
#X obj 144 428 + 120;
#X obj 143 158 def-f \$2 1;
#X obj 76 158 def-f \$1 1;
#X obj 76 228 *;
#X obj 59 289 for 1;
#X obj 76 250 t f f;
#X obj 143 180 t f f f;
#X obj 76 182 t f f f;
#X obj 59 311 - 1;
#X obj 105 498 + 1;
#X obj 59 526 pack \$0 f f f f;
#X obj 77 470 t f f;
#X msg 59 567 obj \$4 \$5 tgl 15 0 \$1-send \$1-\$2-receive empty 17
7 0 10 -262144 -1 -1 0 \$3;
#X connect 0 0 2 0;
#X connect 2 0 3 0;
#X connect 3 1 4 0;
#X connect 4 0 5 0;
#X connect 5 0 16 0;
#X connect 5 1 14 0;
#X connect 5 2 13 0;
#X connect 6 0 22 0;
#X connect 6 1 23 0;
#X connect 6 2 8 0;
#X connect 6 3 7 0;
#X connect 7 0 10 0;
#X connect 8 0 11 0;
#X connect 9 0 22 3;
#X connect 10 0 12 0;
#X connect 11 0 9 0;
#X connect 12 0 22 4;
#X connect 13 0 18 0;
#X connect 14 0 19 0;
#X connect 15 0 17 0;
#X connect 16 0 20 0;
#X connect 17 0 16 1;
#X connect 17 1 16 2;
#X connect 18 0 15 1;
#X connect 19 0 15 0;
#X connect 19 1 8 1;
#X connect 19 2 7 1;
#X connect 20 0 6 0;
#X connect 21 0 22 2;
#X connect 22 0 24 0;
#X connect 23 0 22 1;
#X connect 23 1 21 0;
#X connect 24 0 1 0;
#X restore 240 -134 pd init-toggles;
#N canvas 839 372 450 300 init-table 0;
#X obj 97 88 def-f \$2 1;
#X obj 32 88 def-f \$1 1;
#X obj 32 23 loadbang;
#X obj 32 45 t b b;
#X obj 32 126 *;
#X obj 85 24 bng 15 250 50 0 empty empty empty 17 7 0 10 -262144 -1
-1;
#X obj 32 148 pack f \$0;
#X msg 98 209 obj 100 50 table \$2-data \$1;
#X obj 31 240 s pd-\$0-table;
#X obj 32 170 t b l b;
#X msg 90 185 clear;
#X msg 25 208 loadbang;
#X connect 0 0 4 1;
#X connect 1 0 4 0;
#X connect 2 0 3 0;
#X connect 3 0 1 0;
#X connect 3 1 0 0;
#X connect 4 0 6 0;
#X connect 5 0 3 0;
#X connect 6 0 9 0;
#X connect 7 0 8 0;
#X connect 9 0 11 0;
#X connect 9 1 7 0;
#X connect 9 2 10 0;
#X connect 10 0 8 0;
#X connect 11 0 8 0;
#X restore 240 -115 pd init-table;
#N canvas 0 22 450 300 \$0-table 0;
#X obj 100 50 table 1079-data 1;
#X restore 324 -115 pd \$0-table;
#X obj 282 10 r \$0-send;
#X obj 282 32 print;
#X obj 248 189 tgl 15 0 empty empty empty 17 7 0 10 -262144 -1 -1 0
1;
#X connect 8 0 9 0;
#X coords 0 -1 1 1 23 40 1 100 100;
