#N canvas 287 104 431 367 10;
#X obj 10 -169 inlet;
#X obj 10 65 outlet;
#X obj 52 -169 inlet;
#X obj 129 -171 namecanvas \$0-self;
#N canvas 829 127 362 303 init-canvas 0;
#X obj 86 107 s \$0-self;
#X msg 86 76 coords 0 -1 1 1 \$1 \$2 1 100 100 \;;
#X obj 86 -118 loadbang;
#X obj 86 -96 t b b;
#X obj 86 46 pack f f;
#X obj 86 -66 def-f \$1 1;
#X obj 131 -45 def-f \$2 1;
#X obj 86 -18 * 20;
#X obj 86 4 + 3;
#X obj 131 3 * 20;
#X obj 131 25 + 20;
#X connect 1 0 0 0;
#X connect 2 0 3 0;
#X connect 3 0 5 0;
#X connect 3 1 6 0;
#X connect 4 0 1 0;
#X connect 5 0 7 0;
#X connect 6 0 9 0;
#X connect 7 0 8 0;
#X connect 8 0 4 0;
#X connect 9 0 10 0;
#X connect 10 0 4 1;
#X restore 153 -149 pd init-canvas;
#N canvas 713 36 522 710 init-toggles 0;
#X obj 32 18 loadbang;
#X obj 59 608 s \$0-self;
#X obj 32 40 f \$1;
#X obj 32 62 sel 0;
#X obj 59 89 b;
#X obj 59 115 t b b b;
#X obj 59 345 t b f f f;
#X obj 144 384 div;
#X obj 108 384 mod;
#X obj 108 428 + 103;
#X obj 144 406 * 20;
#X obj 108 406 * 20;
#X obj 144 428 + 120;
#X obj 143 158 def-f \$2 1;
#X obj 76 158 def-f \$1 1;
#X obj 76 228 *;
#X obj 59 289 for 1;
#X obj 76 250 t f f;
#X obj 143 180 t f f f;
#X obj 76 182 t f f f;
#X obj 59 311 - 1;
#X obj 105 498 + 1;
#X obj 59 526 pack \$0 f f f f;
#X obj 77 470 t f f;
#X msg 59 567 obj \$4 \$5 tgl 15 0 \$1-\$2-send \$1-\$2-receive empty
17 7 0 10 -262144 -1 -1 0 1;
#X connect 0 0 2 0;
#X connect 2 0 3 0;
#X connect 3 1 4 0;
#X connect 4 0 5 0;
#X connect 5 0 16 0;
#X connect 5 1 14 0;
#X connect 5 2 13 0;
#X connect 6 0 22 0;
#X connect 6 1 23 0;
#X connect 6 2 8 0;
#X connect 6 3 7 0;
#X connect 7 0 10 0;
#X connect 8 0 11 0;
#X connect 9 0 22 3;
#X connect 10 0 12 0;
#X connect 11 0 9 0;
#X connect 12 0 22 4;
#X connect 13 0 18 0;
#X connect 14 0 19 0;
#X connect 15 0 17 0;
#X connect 16 0 20 0;
#X connect 17 0 16 1;
#X connect 17 1 16 2;
#X connect 18 0 15 1;
#X connect 19 0 15 0;
#X connect 19 1 8 1;
#X connect 19 2 7 1;
#X connect 20 0 6 0;
#X connect 21 0 22 2;
#X connect 22 0 24 0;
#X connect 23 0 22 1;
#X connect 23 1 21 0;
#X connect 24 0 1 0;
#X restore 153 -130 pd init-toggles;
#N canvas 839 372 450 300 init-table 0;
#X obj 97 88 def-f \$2 1;
#X obj 32 88 def-f \$1 1;
#X obj 32 23 loadbang;
#X obj 32 45 t b b;
#X obj 32 126 *;
#X obj 85 24 bng 15 250 50 0 empty empty empty 17 7 0 10 -262144 -1
-1;
#X obj 32 148 pack f \$0;
#X msg 98 209 obj 100 50 table \$2-data \$1;
#X obj 31 240 s pd-\$0-table;
#X obj 32 170 t b l b;
#X msg 90 185 clear;
#X msg 25 208 loadbang;
#X connect 0 0 4 1;
#X connect 1 0 4 0;
#X connect 2 0 3 0;
#X connect 3 0 1 0;
#X connect 3 1 0 0;
#X connect 4 0 6 0;
#X connect 5 0 3 0;
#X connect 6 0 9 0;
#X connect 7 0 8 0;
#X connect 9 0 11 0;
#X connect 9 1 7 0;
#X connect 9 2 10 0;
#X connect 10 0 8 0;
#X connect 11 0 8 0;
#X restore 153 -111 pd init-table;
#N canvas 0 22 450 300 \$0-table 0;
#X obj 100 50 table 1142-data 1;
#X restore 260 -111 pd \$0-table;
#X obj 260 55 r \$0-send;
#X obj 260 77 print;
#N canvas 184 22 479 716 init-handlers 0;
#X obj 99 102 def-f \$2 1;
#X obj 34 102 def-f \$1 1;
#X obj 34 131 *;
#X obj 12 7 loadbang;
#X obj 12 29 f \$1;
#X obj 12 51 sel 0;
#X obj 11 181 for 1;
#X obj 36 155 t f f;
#X obj 11 203 - 1;
#X obj 11 74 t b b b b;
#X obj 26 426 s pd-\$0-handlers;
#X obj 29 327 pack \$0 0 f f;
#X obj 11 225 t b b f f;
#X obj 43 276 * 20;
#X msg 29 349 obj \$2 \$3 msg-map \$4 \$1-\$4-send \$1-\$4-receive
\$1-send \$1-receive;
#X connect 0 0 2 1;
#X connect 1 0 2 0;
#X connect 2 0 7 0;
#X connect 3 0 4 0;
#X connect 4 0 5 0;
#X connect 5 1 9 0;
#X connect 6 0 8 0;
#X connect 7 0 6 1;
#X connect 7 1 6 2;
#X connect 8 0 12 0;
#X connect 9 0 6 0;
#X connect 9 1 1 0;
#X connect 9 2 0 0;
#X connect 11 0 14 0;
#X connect 12 0 11 0;
#X connect 12 2 13 0;
#X connect 12 3 11 3;
#X connect 13 0 11 2;
#X connect 14 0 10 0;
#X restore 153 -92 pd init-handlers;
#N canvas 737 114 450 300 \$0-handlers 0;
#X restore 260 -92 pd \$0-handlers;
#N canvas 465 517 244 293 read 0;
#X obj 19 19 inlet;
#X obj 19 263 outlet;
#X obj 19 98 f;
#X obj 64 137 tabread \$0-data;
#X obj 19 120 t f f;
#X obj 19 181 pack f f;
#X connect 0 0 2 0;
#X connect 2 0 4 0;
#X connect 3 0 5 1;
#X connect 4 0 5 0;
#X connect 4 1 3 0;
#X connect 5 0 1 0;
#X restore 10 -74 pd read;
#N canvas 828 458 450 300 write 0;
#X obj 50 -40 r \$0-receive;
#X obj 50 1 unpack f f;
#X obj 50 27 swap;
#X obj 50 58 tabwrite \$0-data;
#X obj 192 -42 r \$0-set;
#X obj 192 75 s \$0-send;
#X obj 192 -20 unpack f f;
#X obj 192 2 - 1;
#X obj 192 24 pack f f;
#X connect 0 0 1 0;
#X connect 1 0 2 0;
#X connect 1 1 2 1;
#X connect 2 0 3 0;
#X connect 2 1 3 1;
#X connect 4 0 6 0;
#X connect 6 0 7 0;
#X connect 6 1 8 1;
#X connect 7 0 8 0;
#X connect 8 0 5 0;
#X restore 59 -74 pd write;
#X obj 52 -147 route set;
#X obj 52 -125 s \$0-set;
#N canvas 899 373 508 501 guifeedback 0;
#X obj -45 -27 inlet;
#N canvas 359 456 450 300 mem 0;
#X obj 155 124 f;
#X obj 182 169 f;
#X obj 155 9 inlet;
#X obj 155 250 outlet;
#X obj 182 214 outlet;
#X text 151 263 current;
#X text 180 228 last;
#X obj 197 9 loadbang;
#X obj 155 38 t f b;
#X msg 197 39 1;
#X obj 110 78 select 0;
#X connect 0 0 1 1;
#X connect 0 0 3 0;
#X connect 1 0 4 0;
#X connect 2 0 8 0;
#X connect 7 0 9 0;
#X connect 8 0 10 0;
#X connect 8 0 0 0;
#X connect 8 1 1 0;
#X connect 9 0 0 1;
#X connect 9 0 1 1;
#X restore -45 107 pd mem 64;
#X obj 6 137 pack f \$0 0 -1 -1;
#X obj -45 164 pack f \$0 -65281 -1 -1;
#X msg -45 238 \; \$2-\$1-receive color \$3 \$4 \$5;
#X msg 6 204 \; \$2-\$1-receive color \$3 \$4 \$5;
#X obj -45 -5 unpack f f;
#X connect 0 0 6 0;
#X connect 1 0 3 0;
#X connect 1 1 2 0;
#X connect 2 0 5 0;
#X connect 3 0 4 0;
#X connect 6 0 1 0;
#X restore 96 -35 pd guifeedback;
#X obj 10 -52 t l l;
#X obj 10 -147 - 1;
#X obj 10 -30 unpack f f;
#X obj 10 14 pack f f;
#X obj 10 -8 + 1;
#X connect 0 0 18 0;
#X connect 2 0 14 0;
#X connect 8 0 9 0;
#X connect 12 0 17 0;
#X connect 14 0 15 0;
#X connect 17 0 19 0;
#X connect 17 1 16 0;
#X connect 18 0 12 0;
#X connect 19 0 21 0;
#X connect 19 1 20 1;
#X connect 20 0 1 0;
#X connect 21 0 20 0;
#X coords 0 -1 1 1 23 40 1 100 100;
