#N canvas 288 274 516 541 10;
#X obj 10 -169 inlet;
#X obj 9 -33 outlet;
#X obj 112 -173 inlet;
#X obj 216 -175 namecanvas \$0-self;
#N canvas 296 372 510 481 init-canvas 0;
#X obj 86 107 s \$0-self;
#X msg 86 76 coords 0 -1 1 1 \$1 \$2 1 100 100 \;;
#X obj 86 -118 loadbang;
#X obj 86 -96 t b b;
#X obj 86 46 pack f f;
#X obj 86 -66 def-f \$1 1;
#X obj 131 -45 def-f \$2 1;
#X obj 86 -18 * 20;
#X obj 86 4 + 3;
#X obj 131 3 * 20;
#X obj 131 25 + 20;
#X connect 1 0 0 0;
#X connect 2 0 3 0;
#X connect 3 0 5 0;
#X connect 3 1 6 0;
#X connect 4 0 1 0;
#X connect 5 0 7 0;
#X connect 6 0 9 0;
#X connect 7 0 8 0;
#X connect 8 0 4 0;
#X connect 9 0 10 0;
#X connect 10 0 4 1;
#X restore 240 -153 pd init-canvas;
#N canvas 200 60 744 645 init-toggles 0;
#X obj 223 1 loadbang;
#X obj 250 512 s \$0-self;
#X obj 223 23 f \$1;
#X obj 223 45 sel 0;
#X obj 250 72 b;
#X obj 250 98 t b b b;
#X msg 250 471 obj \$3 \$4 tgl 15 0 \$1-send \$1-\$2-receive empty
17 7 0 10 -262144 -1 -1 0 11;
#X obj 250 448 pack \$0 f f f;
#X obj 250 328 t b f f f;
#X obj 335 367 div;
#X obj 299 367 mod;
#X obj 299 411 + 103;
#X obj 335 389 * 20;
#X obj 299 389 * 20;
#X obj 335 411 + 120;
#X obj 334 141 def-f \$2 1;
#X obj 267 141 def-f \$1 1;
#X obj 267 211 *;
#X obj 250 272 for 1;
#X obj 267 233 t f f;
#X obj 334 163 t f f f;
#X obj 267 165 t f f f;
#X obj 250 294 - 1;
#X connect 0 0 2 0;
#X connect 2 0 3 0;
#X connect 3 1 4 0;
#X connect 4 0 5 0;
#X connect 5 0 18 0;
#X connect 5 1 16 0;
#X connect 5 2 15 0;
#X connect 6 0 1 0;
#X connect 7 0 6 0;
#X connect 8 0 7 0;
#X connect 8 1 7 1;
#X connect 8 2 10 0;
#X connect 8 3 9 0;
#X connect 9 0 12 0;
#X connect 10 0 13 0;
#X connect 11 0 7 2;
#X connect 12 0 14 0;
#X connect 13 0 11 0;
#X connect 14 0 7 3;
#X connect 15 0 20 0;
#X connect 16 0 21 0;
#X connect 17 0 19 0;
#X connect 18 0 22 0;
#X connect 19 0 18 1;
#X connect 19 1 18 2;
#X connect 20 0 17 1;
#X connect 21 0 17 0;
#X connect 21 1 10 1;
#X connect 21 2 9 1;
#X connect 22 0 8 0;
#X restore 234 -133 pd init-toggles;
#X coords 0 -1 1 1 23 23 1 100 100;
