#N canvas 421 466 450 300 10;
#X obj 25 15 inlet;
#X obj 25 277 any;
#X obj 25 129 route \$2;
#X obj 25 370 s \$1-\$2;
#X obj 258 17 inlet;
#X obj 138 300 outlet;
#X connect 0 0 2 0;
#X connect 1 0 3 0;
#X connect 2 0 1 0;
#X connect 2 1 5 0;
#X connect 4 0 1 1;
