#N canvas 184 436 450 300 10;
#X obj 9 23 inlet;
#X obj 8 248 outlet~;
#X obj 136 56 samplerate~;
#X obj 136 29 loadbang;
#X obj 136 77 swap 1;
#X obj 136 100 /;
#X obj 9 194 vline~;
#X obj 9 139 f;
#X obj 9 96 b;
#X obj 136 122 * 1000;
#X msg 9 167 1 0 0 \, 0 0 \$1;
#X connect 0 0 8 0;
#X connect 2 0 4 0;
#X connect 3 0 2 0;
#X connect 4 0 5 0;
#X connect 4 1 5 1;
#X connect 5 0 9 0;
#X connect 6 0 1 0;
#X connect 7 0 10 0;
#X connect 8 0 7 0;
#X connect 9 0 7 1;
#X connect 10 0 6 0;
