#N canvas 1 49 638 363 10;
#X obj 9 23 inlet;
#X obj 8 248 outlet~;
#X obj 136 56 samplerate~;
#X obj 226 26 loadbang;
#X obj 136 77 swap 1;
#X obj 136 100 /;
#X obj 9 194 vline~;
#X obj 9 139 f;
#X obj 9 96 b;
#X obj 136 122 * 1000;
#X msg 9 167 1 0 0 \, 0 0 \$1;
#X obj 257 80 bind \$0 samples \$1 1;
#X obj 212 186 r \$0-samples;
#X obj 194 216 *;
#X obj 226 48 t b b;
#X connect 0 0 8 0;
#X connect 2 0 4 0;
#X connect 3 0 14 0;
#X connect 4 0 5 0;
#X connect 4 1 5 1;
#X connect 5 0 9 0;
#X connect 6 0 1 0;
#X connect 7 0 10 0;
#X connect 8 0 7 0;
#X connect 9 0 13 0;
#X connect 10 0 6 0;
#X connect 12 0 13 1;
#X connect 13 0 7 1;
#X connect 14 0 2 0;
#X connect 14 1 11 0;
