#N canvas 768 49 1150 1150 10;
#X obj 31 49 inlet;
#X obj 360 8 inlet;
#X obj 24 396 outlet;
#X obj 160 146 route;
#X obj 158 336 count 0;
#X obj 189 84 list split 1;
#X obj 195 37 list;
#X obj 233 222 t b b;
#X obj 36 364 f 0;
#X obj 94 260 t b b;
#X obj 24 231 spigot;
#X msg 21 168 -1;
#X obj 30 69 t b l b b;
#X obj 58 293 t b b;
#X msg 79 197 0;
#X obj 102 101 f 1;
#X connect 0 0 12 0;
#X connect 1 0 3 1;
#X connect 3 0 9 0;
#X connect 3 1 7 0;
#X connect 4 0 8 1;
#X connect 5 0 3 0;
#X connect 5 1 6 1;
#X connect 6 0 5 0;
#X connect 7 0 6 0;
#X connect 7 1 4 0;
#X connect 8 0 2 0;
#X connect 9 0 13 0;
#X connect 9 1 4 0;
#X connect 10 0 2 0;
#X connect 11 0 10 0;
#X connect 12 0 11 0;
#X connect 12 1 6 0;
#X connect 12 2 4 1;
#X connect 12 3 15 0;
#X connect 13 0 8 0;
#X connect 13 1 14 0;
#X connect 14 0 10 1;
#X connect 15 0 10 1;
