#N canvas 1 49 765 165 10;
#X msg 49 11 1 2 3 4 5 6 7 8 9;
#X floatatom 69 104 5 0 0 0 - - -;
#X obj 69 81 index-of;
#X msg 135 43 7;
#X msg 176 44 11;
#X connect 0 0 2 0;
#X connect 2 0 1 0;
#X connect 3 0 2 1;
#X connect 4 0 2 1;
