#N canvas 1720 228 450 300 10;
#X obj 22 16 inlet;
#X obj 317 19 inlet;
#X obj 31 265 outlet;
#X obj 22 38 t b l b;
#X obj 41 99 for-each;
#X obj 31 232 collect;
#X obj 102 141 list;
#X obj 41 121 t b a;
#X obj 102 163 for-each;
#X connect 0 0 3 0;
#X connect 1 0 6 1;
#X connect 3 0 5 0;
#X connect 3 1 4 0;
#X connect 3 2 5 1;
#X connect 4 0 7 0;
#X connect 5 0 2 0;
#X connect 6 0 8 0;
#X connect 7 0 6 0;
#X connect 7 1 5 0;
#X connect 8 0 5 0;
