#N canvas 655 103 446 406 10;
#X obj 34 45 inlet;
#X obj 85 45 inlet;
#X obj 34 254 outlet;
#N canvas 0 22 450 300 \$0-dyn 0;
#X obj 18 27 inlet;
#X obj 158 33 inlet;
#X obj 31 251 outlet;
#X restore 34 106 pd \$0-dyn;
#X obj 166 28 loadbang;
#N canvas 633 348 450 300 build-it 0;
#X obj 31 34 inlet;
#X obj 30 236 outlet;
#X obj 31 56 unpack s f;
#X obj 31 78 t b b b b b s;
#X msg 106 105 obj 27 84 \$1;
#X msg 106 128 connect 0 0 3 0;
#X msg 118 148 connect 1 0 3 1;
#X msg 119 175 connect 3 0 2 0;
#X connect 0 0 2 0;
#X connect 2 0 3 0;
#X connect 3 2 7 0;
#X connect 3 3 6 0;
#X connect 3 4 5 0;
#X connect 3 5 4 0;
#X connect 4 0 1 0;
#X connect 5 0 1 0;
#X connect 6 0 1 0;
#X connect 7 0 1 0;
#X restore 209 283 pd build-it;
#X obj 209 335 s pd-\$0-dyn;
#X obj 209 215 symbol \$1;
#X obj 272 214 f \$2;
#X obj 209 243 pack s f;
#X obj 209 185 t b b;
#X obj 236 84 defined \$2;
#X obj 209 104 defined \$1;
#X obj 209 135 &&;
#X obj 209 157 sel 1;
#X obj 166 57 t b b b;
#X obj 166 89 any \$2;
#X connect 0 0 3 0;
#X connect 1 0 3 1;
#X connect 3 0 2 0;
#X connect 4 0 15 0;
#X connect 5 0 6 0;
#X connect 7 0 9 0;
#X connect 8 0 9 1;
#X connect 9 0 5 0;
#X connect 10 0 7 0;
#X connect 10 1 8 0;
#X connect 11 0 13 1;
#X connect 12 0 13 0;
#X connect 13 0 14 0;
#X connect 14 0 10 0;
#X connect 15 0 16 0;
#X connect 15 1 12 0;
#X connect 15 2 11 0;
#X connect 16 0 3 1;
