#N canvas 350 22 450 300 10;
#X obj 18 19 inlet;
#X obj 31 269 outlet;
#X obj 263 24 inlet;
#X obj 291 123 loadbang;
#X obj 291 145 def-f \$1 1;
#X obj 31 237 any;
#X obj 18 41 t b a;
#X obj 114 118 f 0;
#X obj 140 117 + 1;
#X obj 114 185 sel 1;
#X obj 31 202 bang;
#X obj 263 46 route reset float;
#X obj 129 63 bang;
#X obj 129 85 f 0;
#X obj 114 163 <;
#X connect 0 0 6 0;
#X connect 2 0 11 0;
#X connect 3 0 4 0;
#X connect 4 0 14 1;
#X connect 5 0 1 0;
#X connect 6 0 7 0;
#X connect 6 1 5 1;
#X connect 7 0 8 0;
#X connect 7 0 14 0;
#X connect 8 0 7 1;
#X connect 9 0 10 0;
#X connect 10 0 5 0;
#X connect 11 0 12 0;
#X connect 11 1 14 1;
#X connect 12 0 13 0;
#X connect 13 0 7 1;
#X connect 14 0 9 0;
