#N canvas 434 408 499 367 10;
#X obj 170 92 inlet;
#X obj 219 96 inlet;
#X obj 197 308 outlet;
#X obj 197 168 list;
#X obj 255 207 list split 1;
#X obj 246 259 list prepend;
#X obj 170 134 b;
#X obj 218 133 route list;
#X obj 197 190 t l l;
#X connect 0 0 6 0;
#X connect 1 0 7 0;
#X connect 3 0 8 0;
#X connect 4 0 5 0;
#X connect 4 1 5 1;
#X connect 5 0 3 1;
#X connect 6 0 3 0;
#X connect 7 0 3 1;
#X connect 8 0 2 0;
#X connect 8 1 4 0;
