#N canvas 36 402 450 300 10;
#X obj 113 129 list-each;
#X msg 172 96 1 2 3 4 5;
#X obj 110 43 bng 15 250 50 0 empty empty empty 17 7 0 10 -262144 -1
-1;
#X msg 133 73 5 6 7 8;
#X obj 113 151 print;
#X connect 0 0 4 0;
#X connect 1 0 0 1;
#X connect 2 0 0 0;
#X connect 3 0 0 0;
