#N canvas 29 493 278 301 10;
#X obj 17 17 inlet;
#X obj 182 43 inlet;
#X obj 17 250 outlet;
#X obj 74 104 list prepend;
#X obj 182 65 route bang;
#X obj 17 39 route bang;
#X obj 17 198 list;
#X obj 74 131 t l l;
#X obj 182 87 t b b;
#X obj 17 61 t b;
#X connect 0 0 5 0;
#X connect 1 0 4 0;
#X connect 3 0 7 0;
#X connect 4 0 8 0;
#X connect 5 0 9 0;
#X connect 5 1 3 0;
#X connect 6 0 2 0;
#X connect 7 0 6 1;
#X connect 7 1 3 1;
#X connect 8 0 3 1;
#X connect 8 1 6 1;
#X connect 9 0 6 0;
