#N canvas 1441 639 478 559 10;
#X text 31 55 load table;
#X obj 13 7 loadbang;
#X obj 13 31 t b b;
#N canvas 1 49 958 1150 load-sample 1;
#X obj 16 17 inlet;
#X obj 16 238 outlet;
#X obj 16 160 list trim;
#X obj 16 199 soundfiler;
#X obj 16 63 list append \$2 \$3;
#X obj 16 39 t b b;
#X obj 16 134 list prepend read -resize \$1;
#X obj 16 89 filter defined 1;
#X connect 0 0 5 0;
#X connect 2 0 3 0;
#X connect 3 0 1 0;
#X connect 4 0 7 0;
#X connect 5 0 4 0;
#X connect 6 0 2 0;
#X connect 7 0 6 0;
#X restore 13 82 pd load-sample;
#X connect 1 0 2 0;
#X connect 2 0 3 0;
