#N canvas 921 361 450 300 12;
#X obj 21 24 inlet;
#X obj 21 235 outlet;
#X obj 97 174 rotate 1, f 9;
#X obj 21 133 t l b l, f 16;
#X obj 21 60 list append, f 16;
#X obj 21 94 list split \$1, f 16;
#X connect 0 0 4 0;
#X connect 2 0 4 1;
#X connect 3 0 1 0;
#X connect 3 1 2 0;
#X connect 3 2 2 1;
#X connect 4 0 5 0;
#X connect 5 0 3 0;
#X connect 5 2 3 0;
