#N canvas 514 40 411 377 10;
#N canvas 0 22 450 278 (subpatch) 0;
#X array \$0-inlet1 100 float 2;
#X coords 0 1 99 -1 100 70 1 0 0;
#X restore 277 21 graph;
#N canvas 0 22 450 278 (subpatch) 0;
#X array \$0-inlet2 100 float 2;
#X coords 0 1 99 -1 100 70 1 0 0;
#X restore 279 117 graph;
#N canvas 0 22 450 278 (subpatch) 0;
#X array \$0-comparator 100 float 2;
#X coords 0 1 99 -1 100 70 1 0 0;
#X restore 280 216 graph;
#X obj 11 221 tabwrite~ \$0-comparator;
#X obj 83 136 tabwrite~ \$0-inlet2;
#X obj 18 46 tabwrite~ \$0-inlet1;
#X obj 170 54 tgl 15 0 empty empty empty 17 7 0 10 -262144 -1 -1 0
1;
#X obj 54 79 metro 10;
#X obj 11 21 phasor~ 1;
#X obj 74 110 phasor~ 2.1;
#X obj 184 185 sig~ 1;
#X obj 209 210 sig~ 0.5;
#X obj 184 232 snapshot~;
#X floatatom 184 254 5 0 0 0 - - -;
#X obj 244 232 bng 15 250 50 0 empty empty empty 17 7 0 10 -262144
-1 -1;
#X obj 11 166 lt~;
#X obj 184 210 lt~;
#X connect 6 0 7 0;
#X connect 7 0 5 0;
#X connect 7 0 4 0;
#X connect 7 0 3 0;
#X connect 8 0 5 0;
#X connect 8 0 15 0;
#X connect 9 0 4 0;
#X connect 9 0 15 1;
#X connect 10 0 16 0;
#X connect 11 0 16 1;
#X connect 12 0 13 0;
#X connect 14 0 12 0;
#X connect 15 0 3 0;
#X connect 16 0 12 0;
