#N canvas 143 133 359 507 10;
#X obj 17 98 list prepend \$1;
#X obj 17 43 r \$2;
#X text 16 23 map widget output to a sender with a prefix value;
#X obj 47 410 s \$3;
#X obj 47 316 route \$1;
#X msg 47 371 set \$1;
#X obj 113 378 list prepend \$1;
#X obj 47 338 t a a;
#X obj 47 258 r \$4;
#X obj 115 413 s \$5;
#X obj 17 161 s \$5;
#X connect 0 0 10 0;
#X connect 1 0 0 0;
#X connect 4 0 7 0;
#X connect 5 0 3 0;
#X connect 6 0 9 0;
#X connect 7 0 5 0;
#X connect 7 1 6 0;
#X connect 8 0 4 0;
