#N canvas 447 426 624 360 10;
#X obj 319 37 tgl 15 0 \$0-tgl-1-s \$0-tgl-1-r 1 17 7 0 10 -262144
-1 -1 0 1;
#X obj 319 56 tgl 15 0 \$0-tgl-2-s \$0-tgl-2-r 2 17 7 0 10 -262144
-1 -1 0 1;
#X obj 319 76 tgl 15 0 \$0-tgl-3-s \$0-tgl-3-r 3 17 7 0 10 -262144
-1 -1 0 3;
#X obj 319 95 tgl 15 0 \$0-tgl-4-s \$0-tgl-4-r 4 17 7 0 10 -262144
-1 -1 0 4;
#X obj 76 143 r \$0-RECEIVE;
#X obj 76 165 unpack f f;
#X obj 76 236 tabwrite \$0-table;
#X obj 76 191 swap;
#X obj 175 208 - 1;
#N canvas 0 22 450 300 (subpatch) 0;
#X array \$0-table 4 float 2;
#X coords 0 1 3 -1 200 140 1;
#X restore 226 139 graph;
#X obj 372 112 s \$0-SEND;
#X floatatom 374 29 5 0 0 0 - - -;
#X floatatom 409 29 5 0 0 0 - - -;
#X obj 386 58 pack f f;
#X obj 3 39 msg-map 1 \$0-tgl-1-s \$0-tgl-1-r \$0-SEND \$0-RECEIVE
;
#X obj 3 60 msg-map 2 \$0-tgl-2-s \$0-tgl-2-r \$0-SEND \$0-RECEIVE
;
#X obj 3 80 msg-map 3 \$0-tgl-3-s \$0-tgl-3-r \$0-SEND \$0-RECEIVE
;
#X obj 3 101 msg-map 4 \$0-tgl-4-s \$0-tgl-4-r \$0-SEND \$0-RECEIVE
;
#X connect 4 0 5 0;
#X connect 5 0 7 0;
#X connect 5 1 7 1;
#X connect 7 0 6 0;
#X connect 7 1 8 0;
#X connect 8 0 6 1;
#X connect 11 0 13 0;
#X connect 12 0 13 1;
#X connect 13 0 10 0;
