#N canvas 1 344 765 264 10;
#X obj 174 186 inlet;
#X obj 566 181 inlet;
#X obj 182 563 outlet;
#X obj 205 232 r \$0-root;
#X obj 174 347 clip;
#X obj 186 293 r \$0-vmin;
#X obj 199 313 r \$0-vmax;
#X obj 566 203 bind \$0 vmin \$1 -1;
#X obj 566 225 bind \$0 vmax \$2 1;
#X obj 174 369 t f f;
#X obj 174 419 pack f f;
#X obj 174 393 > 0;
#X obj 174 441 route -1 1 0;
#X obj 196 520 /;
#X obj 257 477 r \$0-vmin;
#X obj 270 497 r \$0-vmax;
#X obj 227 520 /;
#X obj 174 232 -;
#X obj 389 247 reciprocal 12;
#X obj 389 216 loadbang;
#X obj 174 264 *;
#X obj 566 247 bind \$0 root \$3 60;
#X connect 0 0 17 0;
#X connect 1 0 7 0;
#X connect 3 0 17 1;
#X connect 4 0 9 0;
#X connect 5 0 4 1;
#X connect 6 0 4 2;
#X connect 7 0 8 0;
#X connect 8 0 21 0;
#X connect 9 0 11 0;
#X connect 9 1 10 1;
#X connect 10 0 12 0;
#X connect 11 0 10 0;
#X connect 12 0 13 0;
#X connect 12 1 16 0;
#X connect 12 2 2 0;
#X connect 13 0 2 0;
#X connect 14 0 13 1;
#X connect 15 0 16 1;
#X connect 16 0 2 0;
#X connect 17 0 20 0;
#X connect 18 0 20 1;
#X connect 19 0 18 0;
#X connect 20 0 4 0;
