#N canvas 1104 262 450 300 10;
#X obj 219 59 tgl 15 0 empty empty empty 17 7 0 10 -262144 -1 -1 0
1;
#X floatatom 178 21 5 0 0 0 - - -;
#X obj 178 40 mtof;
#X obj 133 22 noise~;
#X obj 133 117 *~ 0.5;
#X obj 133 139 dac~;
#X obj 133 95 mute~ lop~ 300;
#X text 25 191 about: switch~ a given abstraction on or off;
#X text 18 220 inlet 1: the audio signal input;
#X text 19 239 inlet 2: the cold message inlet for the abstraction
;
#X text 18 255 inlet 3: the power button (1 or 0);
#X connect 0 0 6 2;
#X connect 1 0 2 0;
#X connect 2 0 6 1;
#X connect 3 0 6 0;
#X connect 4 0 5 0;
#X connect 4 0 5 1;
#X connect 6 0 4 0;
