#N canvas 448 259 635 327 10;
#X obj 32 28 inlet~;
#X obj 75 28 inlet;
#X obj 32 218 outlet~;
#X obj 113 28 inlet;
#X obj 151 28 loadbang;
#X obj 205 165 s pd-\$0-wet;
#N canvas 370 104 450 300 build-it 0;
#X obj 13 19 inlet;
#X obj 11 212 outlet;
#X obj 13 41 t b b b b b b;
#X msg 117 127 connect 0 0 5 1;
#X msg 117 149 connect 1 0 3 0 \;;
#X msg 120 175 connect 2 0 5 0;
#X msg 118 199 connect 5 0 4 0;
#X msg 117 104 obj 27 84 \$1 \$2 \$3 \$4 \$5 \$6 \$7 \$8 \$9 \$10;
#X obj 117 82 list append \$1 \$2 \$3 \$4 \$5 \$6 \$7 \$8 \$9 \$10
;
#X connect 0 0 2 0;
#X connect 2 1 6 0;
#X connect 2 2 5 0;
#X connect 2 3 4 0;
#X connect 2 4 3 0;
#X connect 2 5 8 0;
#X connect 3 0 1 0;
#X connect 4 0 1 0;
#X connect 5 0 1 0;
#X connect 6 0 1 0;
#X connect 7 0 1 0;
#X connect 8 0 7 0;
#X restore 205 132 pd build-it;
#N canvas 0 22 450 300 \$0-wet 0;
#X obj 69 29 inlet;
#X obj 106 29 inlet;
#X obj 27 29 inlet~;
#X obj 106 51 switch~;
#X obj 27 128 outlet~;
#X connect 1 0 3 0;
#X connect 1 0 3 0;
#X restore 32 141 pd \$0-wet;
#X obj 113 50 == 1;
#X obj 178 102 sel 0;
#X obj 109 124 f 0;
#X obj 151 50 t f b;
#X text 237 73 protection against construction when opening mute~.pd
directly;
#X text 179 216 about: switch~ a given abstraction on or off;
#X text 172 245 inlet 1: the audio signal input;
#X text 173 264 inlet 2: the cold message inlet for the abstraction
;
#X text 172 280 inlet 3: the power button (1 or 0);
#X obj 178 79 defined \$1;
#X connect 0 0 7 0;
#X connect 1 0 7 1;
#X connect 3 0 8 0;
#X connect 4 0 11 0;
#X connect 6 0 5 0;
#X connect 7 0 2 0;
#X connect 8 0 7 2;
#X connect 9 1 6 0;
#X connect 10 0 7 2;
#X connect 11 0 10 0;
#X connect 11 1 17 0;
#X connect 17 0 9 0;
