#N canvas 961 196 958 116 10;
#X obj 28 29 inlet~;
#X obj 71 29 inlet;
#N canvas 961 49 958 116 proxy~ 1;
#X obj 207 33 inlet;
#X obj 340 139 f \$1;
#X obj 283 139 * 64;
#X obj 283 169 pack f 1 f;
#X obj 283 105 t f f;
#X obj 283 75 f \$1;
#X obj 283 19 inlet;
#X obj 283 45 b;
#N canvas 1 49 958 1150 filter~ 1;
#X obj 53 69 inlet~;
#X obj 52 383 rzero~ -1;
#X obj 52 406 rzero~ -1;
#X obj 52 429 rzero~ -1;
#X obj 52 494 outlet~;
#X obj 233 -21 loadbang;
#X obj 53 139 *~;
#X obj 109 122 sig~;
#X obj 257 144 sig~;
#X obj 53 161 rpole~;
#X obj 53 185 *~;
#X obj 244 168 sig~;
#X obj 185 201 sig~;
#X obj 106 242 cpole~;
#X obj 283 198 sig~;
#X obj 106 308 cpole~;
#X obj 329 209 sig~;
#X obj 52 360 *~;
#X obj 233 44 / 22050;
#X obj 233 69 / \$1;
#X msg 233 19 15000;
#N canvas 1 49 958 1150 buttercoef3 0;
#X obj 63 51 inlet;
#X floatatom 522 134 5 0 0 0 - - -;
#X obj 101 153 t f f;
#X msg 101 108 0.667;
#X msg 82 283 0;
#X obj 517 270 loadbang;
#X obj 528 298 inlet;
#X obj 517 322 f;
#X obj 517 346 expr 1 - 2*$f1;
#X obj 63 79 t b b b f;
#X obj 205 228 * -1;
#X obj 163 228 t f f;
#X obj 63 391 f;
#X obj 30 463 outlet;
#X text 515 237 1 to normalize at Nyquist;
#X text 59 30 characteristic frequency \, 0(DC) to 1(Nyquist);
#X obj 283 470 outlet;
#X obj 439 472 outlet;
#X text 439 494 imag2a;
#X text 283 492 real1;
#X text 374 494 real2;
#X obj 500 473 outlet;
#X text 500 495 imag2b;
#X obj 373 470 outlet;
#X text 27 485 normalizer1;
#X obj 173 470 outlet;
#X text 170 492 normalizer2;
#X obj 156 436 expr (($f2-$f1)*($f2-$f1)+$f3*$f3);
#X obj 63 412 t f f;
#X obj 101 176 expr (1 - $f2*$f2) / (1 + $f2*$f2 + 2*$f2*cos($f1))
;
#X obj 163 205 expr 2*$f2*sin($f1) / (1 + $f2*$f2 + 2*$f2*cos($f1))
;
#X obj 82 307 expr (1 - $f2*$f2) / (1 + $f2*$f2 + 2*$f2*cos($f1));
#X obj 522 89 clip 0 1;
#X obj 522 111 expr tan($f1*1.57);
#X obj 101 131 expr $f1*1.5708;
#X text 515 251 0 to normalize at DC;
#X text 119 4 3-pole (or zero) Butterworth filter coefficient calculator
;
#X text 145 109 "theta" in units of pi/2;
#X text 211 138 conjugate pair of pole/zero locations:;
#X text 197 155 real part: (1-r*r)/(1+r*r-2rcos(th));
#X text 245 226 imaginary part: 2rsin(th)/(...);
#X text 270 282 real-valued one \, theta=0;
#X obj 30 439 expr abs($f1-$f2);
#X connect 0 0 9 0;
#X connect 1 0 29 1;
#X connect 1 0 30 1;
#X connect 1 0 31 1;
#X connect 2 0 29 0;
#X connect 2 1 30 0;
#X connect 3 0 34 0;
#X connect 4 0 31 0;
#X connect 5 0 7 0;
#X connect 6 0 7 0;
#X connect 7 0 8 0;
#X connect 8 0 12 1;
#X connect 9 0 12 0;
#X connect 9 1 4 0;
#X connect 9 2 3 0;
#X connect 9 3 32 0;
#X connect 10 0 21 0;
#X connect 11 0 17 0;
#X connect 11 0 27 2;
#X connect 11 1 10 0;
#X connect 12 0 28 0;
#X connect 27 0 25 0;
#X connect 28 0 42 0;
#X connect 28 1 27 0;
#X connect 29 0 23 0;
#X connect 29 0 27 1;
#X connect 30 0 11 0;
#X connect 31 0 16 0;
#X connect 31 0 42 1;
#X connect 32 0 33 0;
#X connect 33 0 1 0;
#X connect 34 0 2 0;
#X connect 42 0 13 0;
#X restore 224 97 pd buttercoef3;
#X connect 0 0 6 0;
#X connect 1 0 2 0;
#X connect 2 0 3 0;
#X connect 3 0 4 0;
#X connect 5 0 20 0;
#X connect 6 0 9 0;
#X connect 7 0 6 1;
#X connect 7 0 17 1;
#X connect 8 0 9 1;
#X connect 9 0 10 0;
#X connect 10 0 13 0;
#X connect 11 0 10 1;
#X connect 12 0 13 2;
#X connect 12 0 15 2;
#X connect 13 0 15 0;
#X connect 13 1 15 1;
#X connect 14 0 13 3;
#X connect 15 0 17 0;
#X connect 16 0 15 3;
#X connect 17 0 1 0;
#X connect 18 0 19 0;
#X connect 19 0 21 0;
#X connect 20 0 18 0;
#X connect 21 0 7 0;
#X connect 21 1 11 0;
#X connect 21 2 8 0;
#X connect 21 3 12 0;
#X connect 21 4 14 0;
#X connect 21 5 16 0;
#X restore 30 195 pd filter~;
#X obj 283 191 list prepend set;
#X obj 283 213 list trim;
#X obj 283 245 block~;
#X obj 30 107 proxy~ \$2 \$3 \$4 \$5 \$6 \$7 \$8 \$9;
#X obj 30 32 inlet~ hold;
#X obj 29 270 outlet~ lin;
#X connect 0 0 12 1;
#X connect 1 0 3 2;
#X connect 2 0 3 0;
#X connect 3 0 9 0;
#X connect 4 0 2 0;
#X connect 4 1 1 0;
#X connect 5 0 4 0;
#X connect 6 0 7 0;
#X connect 7 0 5 0;
#X connect 8 0 14 0;
#X connect 9 0 10 0;
#X connect 10 0 11 0;
#X connect 12 0 8 0;
#X connect 13 0 12 0;
#X restore 28 149 pd proxy~;
#X obj 28 237 outlet~;
#X obj 83 52 loadbang;
#X obj 83 74 defined \$1;
#X obj 83 96 sel 1;
#X obj 83 118 b;
#X connect 0 0 2 0;
#X connect 1 0 2 1;
#X connect 2 0 3 0;
#X connect 4 0 5 0;
#X connect 5 0 6 0;
#X connect 6 0 7 0;
#X connect 7 0 2 2;
