#N canvas 47 301 646 483 10;
#X obj 47 449 dac~;
#X floatatom 48 279 5 0 0 0 - - -;
#X obj 48 299 mtof;
#X obj 43 10 loadbang;
#X obj 43 32 t b b;
#X obj 48 253 line;
#X floatatom 96 319 7 0 0 0 - - -;
#X msg 73 205 0;
#X obj 52 99 metro 5000;
#X obj 52 121 t b b;
#X msg 47 188 150 5000;
#X obj 45 64 tgl 15 0 empty empty empty 17 7 0 10 -262144 -1 -1 0 1
;
#X obj 55 331 sig~;
#X obj 269 391 phasor~ 440;
#X obj 269 413 -~ 0.5;
#X obj 48 385 -~ 0.5;
#X obj 269 435 *~ 0.25;
#X msg 105 209 55;
#N canvas 0 22 450 300 (subpatch) 0;
#X array \$0-b 4410 float 2;
#X coords 0 1 4410 -1 200 140 1 0 0;
#X restore 393 193 graph;
#X obj 142 413 metro 100;
#X obj 136 454 tabwrite~ \$0-b;
#X obj 142 387 tgl 15 0 empty empty empty 17 7 0 10 -262144 -1 -1 0
1;
#X obj 48 415 *~ 1;
#X obj 48 363 oversample~ 64 phasor~ 440;
#X connect 1 0 2 0;
#X connect 2 0 6 0;
#X connect 2 0 12 0;
#X connect 3 0 4 0;
#X connect 5 0 1 0;
#X connect 7 0 5 0;
#X connect 8 0 9 0;
#X connect 9 0 10 0;
#X connect 9 1 7 0;
#X connect 10 0 5 0;
#X connect 11 0 8 0;
#X connect 12 0 23 0;
#X connect 13 0 14 0;
#X connect 14 0 16 0;
#X connect 15 0 22 0;
#X connect 17 0 5 0;
#X connect 19 0 20 0;
#X connect 21 0 19 0;
#X connect 22 0 0 0;
#X connect 22 0 0 1;
#X connect 22 0 20 0;
#X connect 23 0 15 0;
