#N canvas 669 394 450 300 10;
#X obj 28 29 inlet~;
#X obj 71 29 inlet;
#N canvas 743 119 450 300 proxy~ 0;
#X obj 207 33 inlet;
#X obj 340 139 f \$1;
#X obj 283 139 * 64;
#X obj 283 169 pack f 1 f;
#X obj 283 105 t f f;
#X obj 283 75 f \$1;
#X obj 283 19 inlet;
#X obj 283 45 b;
#N canvas 467 81 503 616 filter~ 0;
#X obj 53 69 inlet~;
#X obj 52 383 rzero~ -1;
#X obj 52 406 rzero~ -1;
#X obj 52 429 rzero~ -1;
#X obj 52 494 outlet~;
#X obj 232 105 buttercoef3;
#X obj 233 -21 loadbang;
#X obj 53 139 *~;
#X obj 109 122 sig~;
#X obj 257 144 sig~;
#X obj 53 161 rpole~;
#X obj 53 185 *~;
#X obj 244 168 sig~;
#X obj 185 201 sig~;
#X obj 106 242 cpole~;
#X obj 283 198 sig~;
#X obj 106 308 cpole~;
#X obj 329 209 sig~;
#X obj 52 360 *~;
#X obj 233 44 / 22050;
#X obj 233 69 / \$1;
#X msg 233 19 15000;
#X connect 0 0 7 0;
#X connect 1 0 2 0;
#X connect 2 0 3 0;
#X connect 3 0 4 0;
#X connect 5 0 8 0;
#X connect 5 1 12 0;
#X connect 5 2 9 0;
#X connect 5 3 13 0;
#X connect 5 4 15 0;
#X connect 5 5 17 0;
#X connect 6 0 21 0;
#X connect 7 0 10 0;
#X connect 8 0 7 1;
#X connect 8 0 18 1;
#X connect 9 0 10 1;
#X connect 10 0 11 0;
#X connect 11 0 14 0;
#X connect 12 0 11 1;
#X connect 13 0 14 2;
#X connect 13 0 16 2;
#X connect 14 0 16 0;
#X connect 14 1 16 1;
#X connect 15 0 14 3;
#X connect 16 0 18 0;
#X connect 17 0 16 3;
#X connect 18 0 1 0;
#X connect 19 0 20 0;
#X connect 20 0 5 0;
#X connect 21 0 19 0;
#X restore 30 195 pd filter~;
#X obj 283 191 list prepend set;
#X obj 283 213 list trim;
#X obj 283 245 block~;
#X obj 30 107 proxy~ \$2 \$3 \$4 \$5 \$6 \$7 \$8 \$9;
#X obj 30 32 inlet~ hold;
#X obj 29 270 outlet~ lin;
#X connect 0 0 12 1;
#X connect 1 0 3 2;
#X connect 2 0 3 0;
#X connect 3 0 9 0;
#X connect 4 0 2 0;
#X connect 4 1 1 0;
#X connect 5 0 4 0;
#X connect 6 0 7 0;
#X connect 7 0 5 0;
#X connect 8 0 14 0;
#X connect 9 0 10 0;
#X connect 10 0 11 0;
#X connect 12 0 8 0;
#X connect 13 0 12 0;
#X restore 28 149 pd proxy~;
#X obj 28 237 outlet~;
#X obj 83 52 loadbang;
#X obj 83 74 defined \$1;
#X obj 83 96 sel 1;
#X obj 83 118 b;
#X connect 0 0 2 0;
#X connect 1 0 2 1;
#X connect 2 0 3 0;
#X connect 4 0 5 0;
#X connect 5 0 6 0;
#X connect 6 0 7 0;
#X connect 7 0 2 2;
