#N canvas 559 543 272 239 10;
#X obj 21 125 pattern-8 1 1 2 2 1 3 1 5;
#X floatatom 21 49 5 0 0 0 - - -, f 5;
#X obj 21 181 print item;
#X obj 51 84 bng 15 50 10 0 empty empty empty 17 7 0 10 -262144 -1
-1;
#X floatatom 131 85 5 0 0 0 - - -, f 5;
#X obj 64 49 metro 250;
#X obj 64 19 tgl 15 0 empty empty empty 17 7 0 10 -262144 -1 -1 1 1
;
#X connect 0 0 2 0;
#X connect 1 0 0 0;
#X connect 3 0 0 0;
#X connect 4 0 0 6;
#X connect 5 0 3 0;
#X connect 6 0 5 0;
