#N canvas 614 22 626 418 10;
#X obj 64 26 inlet;
#X obj 184 26 inlet;
#X obj 64 326 outlet;
#X obj 221 26 inlet;
#X obj 258 26 inlet;
#X obj 295 26 inlet;
#X obj 332 26 inlet;
#X obj 369 26 inlet;
#X obj 406 26 inlet;
#X obj 443 26 inlet;
#X obj 184 345 tabwrite-at \$0-table 0 \$1;
#X obj 343 345 table \$0-table 8;
#X obj 221 322 tabwrite-at \$0-table 1 \$2;
#X obj 258 300 tabwrite-at \$0-table 2 \$3;
#X obj 295 277 tabwrite-at \$0-table 3 \$4;
#X obj 443 186 tabwrite-at \$0-table 7 \$8;
#X obj 406 209 tabwrite-at \$0-table 6 \$7;
#X obj 369 231 tabwrite-at \$0-table 5 \$6;
#X obj 332 254 tabwrite-at \$0-table 4 \$5;
#N canvas 193 154 450 300 \$0-read 1;
#X obj 46 46 inlet;
#X obj 46 256 outlet;
#X obj 46 159 tabread \$0-table;
#X obj 80 127 cycle 8;
#X obj 46 68 route float bang reset;
#X obj 120 98 b;
#X connect 0 0 4 0;
#X connect 2 0 1 0;
#X connect 3 0 2 0;
#X connect 4 0 3 0;
#X connect 4 1 3 0;
#X connect 4 2 5 0;
#X connect 5 0 3 1;
#X restore 84 228 pd \$0-read;
#X connect 0 0 19 0;
#X connect 1 0 10 0;
#X connect 3 0 12 0;
#X connect 4 0 13 0;
#X connect 5 0 14 0;
#X connect 6 0 18 0;
#X connect 7 0 17 0;
#X connect 8 0 16 0;
#X connect 9 0 15 0;
#X connect 19 0 2 0;
