#N canvas 865 486 450 300 10;
#X obj 34 179 outlet;
#N canvas 677 211 703 574 init-it 1;
#X obj 39 11 loadbang;
#X obj 39 41 defined \$1;
#X obj 39 63 sel 1;
#X obj 39 85 bang;
#X obj 39 107 any \$1;
#X obj 39 139 limit 1;
#X obj 484 394 s \$0-root;
#X obj 480 195 pack f \$0;
#X msg 483 268 obj 10 280 table \$2-table \$1;
#X obj 269 195 enumerate;
#X obj 323 263 *+ 45 100;
#X obj 555 188 enumerate;
#X msg 555 241 obj \$1 20 inlet;
#X obj 555 216 *+ 45 100;
#X obj 269 217 t f f f;
#X obj 225 296 pack f f;
#X obj 225 268 + 4;
#X msg 226 329 connect \$1 0 \$2 0;
#X obj 264 245 + \$1;
#X obj 257 267 + 5;
#X obj 325 291 pack f \$0;
#X obj 139 322 pack \$0;
#X msg 135 359 obj 10 100 tabread \$1-table;
#X obj 108 280 t f f b;
#X obj 103 419 pack f f;
#X obj 103 396 +* 5 2;
#X msg 334 451 connect 2 0 0 0;
#X msg 131 464 connect 2 0 \$2 0;
#X obj 39 166 t f f f f;
#X obj 173 391 *+ 2 5;
#X obj 103 441 t l l;
#X msg 101 495 connect \$2 0 0 0;
#X msg 339 318 obj \$1 \$1 tabwrite-at \$2-table \$1 0;
#X connect 0 0 1 0;
#X connect 1 0 2 0;
#X connect 2 0 3 0;
#X connect 3 0 4 0;
#X connect 4 0 5 0;
#X connect 5 0 28 0;
#X connect 7 0 8 0;
#X connect 8 0 6 0;
#X connect 9 0 14 0;
#X connect 10 0 20 0;
#X connect 11 0 13 0;
#X connect 12 0 6 0;
#X connect 13 0 12 0;
#X connect 14 0 16 0;
#X connect 14 1 18 0;
#X connect 14 2 10 0;
#X connect 15 0 17 0;
#X connect 16 0 15 0;
#X connect 17 0 6 0;
#X connect 18 0 19 0;
#X connect 19 0 15 1;
#X connect 20 0 32 0;
#X connect 21 0 22 0;
#X connect 22 0 6 0;
#X connect 23 0 25 0;
#X connect 23 1 29 0;
#X connect 23 2 21 0;
#X connect 24 0 30 0;
#X connect 25 0 24 0;
#X connect 27 0 6 0;
#X connect 28 0 23 0;
#X connect 28 1 9 0;
#X connect 28 2 7 0;
#X connect 28 3 11 0;
#X connect 29 0 24 1;
#X connect 30 0 31 0;
#X connect 30 1 27 0;
#X connect 31 0 6 0;
#X connect 32 0 6 0;
#X restore 34 204 pd init-it;
#X obj 20 20 inlet;
#X obj 35 252 namecanvas \$0-root;
