#N canvas 225 22 862 848 10;
#X obj 64 26 inlet;
#X obj 184 26 inlet;
#X obj 64 326 outlet;
#N canvas 0 22 862 848 get-argument-list 0;
#X obj 42 111 pack \$1 \$2 \$3 \$4 \$5 \$6 \$7 \$8 \$9 \$10 \$11 \$12
\$13 \$14 \$15 \$16;
#X obj 67 69 loadbang;
#X obj 39 36 inlet;
#X obj 48 384 list;
#X obj 125 298 + 1;
#X obj 111 491 == 0;
#X obj 111 513 sel 1;
#X obj 138 541 t b;
#X obj 98 298 f 1;
#X obj 179 594 f;
#X obj 111 540 t b;
#X obj 98 320 t b f f;
#X obj 49 433 list split 1;
#X obj 297 626 list;
#X obj 43 183 t b l l;
#X obj 212 683 list split;
#X obj 214 627 t b f;
#X obj 221 710 outlet;
#X obj 179 616 - 1;
#X connect 0 0 14 0;
#X connect 1 0 0 0;
#X connect 2 0 0 0;
#X connect 3 0 12 0;
#X connect 4 0 8 1;
#X connect 5 0 6 0;
#X connect 6 0 10 0;
#X connect 6 1 7 0;
#X connect 7 0 8 0;
#X connect 8 0 4 0;
#X connect 8 0 11 0;
#X connect 9 0 18 0;
#X connect 10 0 9 0;
#X connect 11 0 3 0;
#X connect 11 2 9 1;
#X connect 12 0 5 0;
#X connect 12 1 3 1;
#X connect 13 0 15 0;
#X connect 14 0 8 0;
#X connect 14 1 3 1;
#X connect 14 2 13 1;
#X connect 15 0 17 0;
#X connect 16 0 13 0;
#X connect 16 1 15 1;
#X connect 18 0 16 0;
#X restore 227 101 pd get-argument-list;
#X obj 184 70 route list bang;
#X obj 121 196 list split 1;
#X obj 64 48 route bang;
#X obj 121 163 rotate;
#X connect 0 0 6 0;
#X connect 1 0 4 0;
#X connect 3 0 7 1;
#X connect 4 0 7 1;
#X connect 4 1 3 0;
#X connect 5 0 2 0;
#X connect 6 0 7 0;
#X connect 7 0 5 0;
