#N canvas 90 531 450 300 10;
#X obj 32 34 inlet;
#X obj 275 44 inlet;
#X obj 42 262 outlet;
#X obj 141 174 t f f;
#X obj 275 66 bind \$0 end \$3 1;
#X obj 235 158 r \$0-end;
#X obj 183 212 sel;
#X obj 141 152 count \$1;
#X connect 0 0 7 0;
#X connect 1 0 4 0;
#X connect 3 0 2 0;
#X connect 3 1 6 0;
#X connect 4 0 7 1;
#X connect 5 0 6 1;
#X connect 6 0 7 1;
#X connect 7 0 3 0;
