#N canvas 642 481 413 301 10;
#X obj 10 36 inlet;
#X obj 10 274 outlet~;
#X obj 289 36 inlet;
#X obj 289 80 bind \$0 decay 50;
#X obj 289 58 bind \$0 f 440;
#X obj 10 134 impulse~;
#X obj 10 58 route bang;
#X obj 10 208 cpole~;
#X obj 164 174 ftoc~;
#X obj 289 102 bind \$0 slew 10;
#X obj 209 37 r \$0-slew;
#X obj 164 37 r \$0-f;
#X obj 164 133 line~;
#X obj 75 134 r \$0-decay;
#N canvas 708 80 441 474 decay 0;
#X obj 16 30 inlet;
#X obj 155 31 inlet~;
#X obj 278 32 inlet~;
#X obj 13 337 outlet~;
#X obj 95 340 outlet~;
#X obj 16 238 pack f f;
#X obj 72 237 r \$0-slew;
#X obj 16 260 line~;
#X obj 132 288 *~;
#X obj 255 284 *~;
#X obj 17 196 clip -1 1;
#X obj 16 81 swap 1;
#X obj 16 103 /;
#X obj 17 164 -;
#X obj 16 131 swap 1;
#X obj 16 52 * 10;
#X connect 0 0 15 0;
#X connect 1 0 8 1;
#X connect 2 0 9 1;
#X connect 5 0 7 0;
#X connect 6 0 5 1;
#X connect 7 0 8 0;
#X connect 7 0 9 0;
#X connect 8 0 3 0;
#X connect 9 0 4 0;
#X connect 10 0 5 0;
#X connect 11 0 12 0;
#X connect 11 1 12 1;
#X connect 12 0 14 0;
#X connect 13 0 10 0;
#X connect 14 0 13 0;
#X connect 14 1 13 1;
#X connect 15 0 11 0;
#X restore 75 191 pd decay;
#X obj 10 79 t b b;
#X obj 164 96 pack f f;
#X connect 0 0 6 0;
#X connect 2 0 4 0;
#X connect 3 0 9 0;
#X connect 4 0 3 0;
#X connect 5 0 7 0;
#X connect 6 0 15 0;
#X connect 7 0 1 0;
#X connect 8 0 14 1;
#X connect 8 1 14 2;
#X connect 10 0 16 1;
#X connect 11 0 16 0;
#X connect 12 0 8 0;
#X connect 13 0 14 0;
#X connect 14 0 7 2;
#X connect 14 1 7 3;
#X connect 15 0 5 0;
#X connect 15 1 16 0;
#X connect 16 0 12 0;
