#N canvas 790 274 451 356 10;
#X obj 14 34 inlet~;
#X obj 152 37 inlet;
#X obj 14 304 outlet~;
#X obj 152 71 bind \$0 slew \$2 0;
#N canvas 468 22 794 390 \$0-line~ 0;
#X obj 23 21 inlet~;
#X obj 24 309 outlet~;
#X obj 24 271 +~;
#X obj 24 244 *~;
#X obj 279 23 inlet;
#X obj 279 183 pack f f;
#X obj 529 166 r \$0-slew;
#X obj 355 183 pack f f;
#X obj 279 210 line~;
#X obj 355 210 line~;
#X text 412 9 start=5 \, end=15. +=5 \, *=10;
#X obj 355 131 -;
#X text 365 231 end or *;
#X text 282 231 start or +;
#X obj 291 254 samphold~;
#N canvas 0 22 450 300 new-cycle 0;
#X obj 47 125 <;
#X obj 47 102 t f f b;
#X obj 83 129 f 100;
#X obj 47 147 == 1;
#X obj 47 169 sel 1;
#X obj 47 80 env~ 2 1;
#X obj 29 28 inlet~;
#X obj 47 191 bang;
#X obj 47 213 outlet;
#X connect 0 0 3 0;
#X connect 1 0 0 0;
#X connect 1 1 2 1;
#X connect 1 2 2 0;
#X connect 2 0 0 1;
#X connect 3 0 4 0;
#X connect 4 0 7 0;
#X connect 5 0 1 0;
#X connect 6 0 5 0;
#X connect 7 0 8 0;
#X restore 143 272 pd new-cycle;
#X obj 23 159 s~ \$0-phase;
#X obj 367 254 samphold~;
#X obj 279 276 s~ \$0-start;
#X obj 355 276 s~ \$0-end;
#X obj 24 185 r~ \$0-phase;
#X obj 54 218 r~ \$0-end;
#X obj 59 243 r~ \$0-start;
#X obj 143 318 s \$0-next;
#X obj 23 84 *~;
#X obj 61 67 r~ \$0-freq;
#X obj 426 183 pack f f;
#X obj 426 210 line~;
#X obj 438 254 samphold~;
#X obj 426 276 s~ \$0-freq;
#X obj 355 153 t f f;
#X obj 426 113 swap 1;
#X obj 426 135 /;
#X obj 426 157 * 1000;
#X text 433 232 frequency;
#X obj 113 171 s~ \$0-latch;
#X obj 163 42 loadbang;
#X obj 163 64 samplerate~;
#X obj 163 86 swap 1;
#X obj 163 108 /;
#X obj 113 146 -~;
#X obj 143 243 r~ \$0-latch;
#X obj 23 129 phasor~ 1;
#X obj 525 237 r~ \$0-latch;
#X obj 354 103 f;
#X obj 279 75 t f b f;
#X obj 279 55 unpack f f f f;
#X msg 143 294 next;
#X obj 422 51 r \$0-end;
#X msg 422 73 0 0 0 0;
#X connect 0 0 24 0;
#X connect 2 0 1 0;
#X connect 3 0 2 0;
#X connect 4 0 46 0;
#X connect 5 0 8 0;
#X connect 6 0 5 1;
#X connect 6 0 7 1;
#X connect 7 0 9 0;
#X connect 8 0 14 0;
#X connect 8 0 18 0;
#X connect 9 0 17 0;
#X connect 9 0 19 0;
#X connect 11 0 30 0;
#X connect 15 0 47 0;
#X connect 20 0 3 0;
#X connect 21 0 3 1;
#X connect 22 0 2 1;
#X connect 24 0 42 0;
#X connect 25 0 24 1;
#X connect 26 0 27 0;
#X connect 27 0 28 0;
#X connect 27 0 29 0;
#X connect 30 1 7 0;
#X connect 31 0 32 0;
#X connect 31 1 32 1;
#X connect 32 0 33 0;
#X connect 33 0 26 0;
#X connect 36 0 37 0;
#X connect 37 0 38 0;
#X connect 38 0 39 0;
#X connect 38 1 39 1;
#X connect 39 0 40 1;
#X connect 40 0 35 0;
#X connect 41 0 15 0;
#X connect 42 0 16 0;
#X connect 42 0 40 0;
#X connect 43 0 17 1;
#X connect 43 0 14 1;
#X connect 44 0 11 0;
#X connect 45 0 5 0;
#X connect 45 1 44 0;
#X connect 45 2 11 1;
#X connect 46 0 45 0;
#X connect 46 1 44 1;
#X connect 46 2 31 0;
#X connect 47 0 23 0;
#X connect 48 0 49 0;
#X connect 49 0 46 0;
#X restore 14 218 pd \$0-line~;
#X obj 270 89 r \$0-next;
#X obj 77 161 raw-line-ctrl;
#X obj 152 213 handle \$0 end;
#X connect 0 0 4 0;
#X connect 1 0 3 0;
#X connect 3 0 6 1;
#X connect 4 0 2 0;
#X connect 5 0 6 1;
#X connect 6 0 4 1;
#X connect 6 1 7 0;
