#N canvas 768 49 1150 1150 10;
#X obj 111 81 inlet;
#X obj 199 81 inlet;
#N canvas 768 49 1150 1150 \$0-objects 0;
#X obj 25 40 inlet;
#X obj 300 40 inlet;
#X obj 25 300 outlet~;
#X restore 111 274 pd \$0-objects;
#N canvas 768 49 1150 1150 normalize~ 0;
#X obj 37 45 inlet~;
#X obj 160 62 loadbang;
#X obj 160 84 f \$1;
#X obj 160 106 reciprocal;
#X obj 107 144 *~;
#X obj 107 166 outlet~;
#X connect 0 0 4 0;
#X connect 1 0 2 0;
#X connect 2 0 3 0;
#X connect 3 0 4 1;
#X connect 4 0 5 0;
#X restore 112 317 pd normalize~;
#X obj 113 360 outlet~;
#X obj 312 74 loadbang;
#X obj 312 96 when defined \$1 bang;
#X obj 312 118 f \$1;
#N canvas 768 49 1150 1150 wire-objects 0;
#X obj 38 45 inlet;
#X obj 38 126 f;
#X obj 57 464 outlet;
#X msg 522 425 obj 27 84 \$1 \$2 \$3 \$4 \$5 \$6 \$7 \$8 \$9 \$10;
#X msg 513 452 connect 0 0 3 0;
#X msg 510 473 connect 1 0 3 1;
#X msg 513 499 connect 3 0 2 0;
#X obj 523 398 list append;
#X obj 586 362 list append \$2 \$3 \$4 \$5 \$6 \$7 \$8 \$9 \$10;
#X msg 422 444 loadbang;
#X obj 68 174 enumerate;
#N canvas 768 49 1150 1150 build-router-obj 0;
#X obj 79 33 inlet;
#X obj 79 265 outlet;
#X obj 79 125 collect;
#X obj 102 97 enumerate;
#X obj 79 67 t b f b;
#X obj 79 217 list trim;
#X obj 79 195 list prepend obj 27 80 route;
#X connect 0 0 4 0;
#X connect 2 0 6 0;
#X connect 3 0 2 0;
#X connect 4 0 2 0;
#X connect 4 1 3 0;
#X connect 4 2 2 1;
#X connect 5 0 1 0;
#X connect 6 0 5 0;
#X restore 188 84 pd build-router-obj;
#N canvas 768 49 1150 1150 build-inner-obj 0;
#X obj 55 82 inlet;
#X obj 33 595 outlet;
#X obj 200 99 list append \$2 \$3 \$4 \$5 \$6 \$7 \$8 \$9 \$10 \$11
\$12 \$13 \$14 \$15 \$16 \$17;
#X obj 200 155 t l l;
#X obj 232 188 index-of 0;
#X obj 200 248 list split;
#X text 277 250 arguments;
#X obj 33 561 list trim;
#X obj 102 429 list prepend obj;
#X obj 76 497 list prepend;
#X obj 267 220 + 0;
#X obj 88 351 + 27;
#X obj 54 104 t b f f;
#X obj 144 350 + 150;
#X obj 101 377 pack f f;
#X obj 144 324 * 25;
#X obj 89 326 * 40;
#X connect 0 0 12 0;
#X connect 2 0 3 0;
#X connect 3 0 5 0;
#X connect 3 1 4 0;
#X connect 4 0 10 0;
#X connect 5 0 9 0;
#X connect 7 0 1 0;
#X connect 8 0 9 1;
#X connect 9 0 7 0;
#X connect 10 0 5 1;
#X connect 11 0 14 0;
#X connect 12 0 2 0;
#X connect 12 1 16 0;
#X connect 12 2 15 0;
#X connect 13 0 14 1;
#X connect 14 0 8 0;
#X connect 15 0 13 0;
#X connect 16 0 11 0;
#X restore 186 267 pd build-inner-obj;
#X obj 38 67 t b f b f;
#X obj 71 205 t f f f f f;
#N canvas 768 49 1150 1150 wire-cold-inlets 0;
#X obj 92 105 inlet;
#X obj 100 289 outlet;
#X msg 174 207 connect 1 0 \$1 1;
#X obj 180 158 + 4;
#X connect 0 0 3 0;
#X connect 2 0 1 0;
#X connect 3 0 2 0;
#X restore 181 337 pd wire-cold-inlets;
#N canvas 768 49 1150 1150 wire-hot-inlets 0;
#X obj 92 105 inlet;
#X obj 92 251 outlet;
#X obj 145 144 + 4;
#X obj 92 127 t f f;
#X obj 92 177 pack f f;
#X msg 92 207 connect 3 \$1 \$2 0;
#X connect 0 0 3 0;
#X connect 2 0 4 1;
#X connect 3 0 4 0;
#X connect 3 1 2 0;
#X connect 4 0 5 0;
#X connect 5 0 1 0;
#X restore 186 297 pd wire-hot-inlets;
#N canvas 768 49 1150 1150 wire-router 0;
#X obj 92 105 inlet;
#X obj 100 289 outlet;
#X obj 92 127 b;
#X msg 91 155 connect 0 0 3 0;
#X connect 0 0 2 0;
#X connect 2 0 3 0;
#X connect 3 0 1 0;
#X restore 196 113 pd wire-router;
#N canvas 768 49 1150 1150 wire-outlets~ 0;
#X obj 92 105 inlet;
#X obj 100 289 outlet;
#X obj 180 158 + 4;
#X msg 174 207 connect \$1 0 2 0;
#X connect 0 0 2 0;
#X connect 2 0 3 0;
#X connect 3 0 1 0;
#X restore 174 367 pd wire-outlets~;
#X connect 0 0 13 0;
#X connect 1 0 10 0;
#X connect 7 0 3 0;
#X connect 8 0 7 1;
#X connect 10 0 14 0;
#X connect 11 0 2 0;
#X connect 12 0 2 0;
#X connect 13 0 1 0;
#X connect 13 1 1 1;
#X connect 13 2 17 0;
#X connect 13 3 11 0;
#X connect 14 0 18 0;
#X connect 14 1 15 0;
#X connect 14 2 16 0;
#X connect 14 4 12 0;
#X connect 15 0 2 0;
#X connect 16 0 2 0;
#X connect 17 0 2 0;
#X connect 18 0 2 0;
#X restore 312 140 pd wire-objects;
#X obj 312 215 s pd-\$0-objects;
#X connect 0 0 2 0;
#X connect 1 0 2 1;
#X connect 2 0 3 0;
#X connect 3 0 4 0;
#X connect 5 0 6 0;
#X connect 6 0 7 0;
#X connect 7 0 8 0;
#X connect 8 0 9 0;
