#N canvas 542 38 775 455 10;
#X obj 103 119 hradio 15 1 0 8 \$0-radio-out \$0-radio-in empty 0 -8
0 10 -262144 -1 -1 0;
#X obj 305 27 inlet;
#X obj 555 28 inlet;
#X obj 303 261 outlet;
#N canvas 1 49 958 1150 in-range 0;
#X obj 27 54 inlet;
#X obj 13 352 outlet;
#X obj 55 138 route float;
#X obj 55 160 moses -1;
#X obj 108 185 moses 10;
#X connect 0 0 2 0;
#X connect 2 0 3 0;
#X connect 3 1 4 0;
#X connect 4 0 1 0;
#X restore 305 62 pd in-range;
#X obj 305 87 s \$0-radio-in;
#X obj 305 120 r \$0-radio-out;
#N canvas 165 22 1150 804 send-next 0;
#X obj 28 7 inlet;
#X obj 27 432 outlet;
#X obj 50 192 *;
#X obj 50 388 s \$1;
#X obj 50 273 pack f f;
#X msg 50 295 \$1 \$2;
#X obj 50 98 unpack f f;
#X obj 129 181 + 1;
#X obj 50 146 t f f;
#X obj 117 147 t f f;
#X obj 130 224 - 1;
#X obj 50 361 list trim;
#X obj 50 317 tabslice \$0-preset-buffer;
#X text 102 26 [offset size];
#X obj 27 29 t f f b;
#X obj 50 76 pack f 8;
#X obj 130 202 *;
#X obj 50 339 list prepend set-all;
#X connect 0 0 14 0;
#X connect 2 0 4 0;
#X connect 4 0 5 0;
#X connect 5 0 12 0;
#X connect 6 0 8 0;
#X connect 6 1 9 0;
#X connect 7 0 16 0;
#X connect 8 0 2 0;
#X connect 8 1 7 0;
#X connect 9 0 2 1;
#X connect 9 1 16 1;
#X connect 10 0 4 1;
#X connect 11 0 3 0;
#X connect 12 0 17 0;
#X connect 14 0 1 0;
#X connect 14 1 15 0;
#X connect 15 0 6 0;
#X connect 16 0 10 0;
#X connect 17 0 11 0;
#X restore 305 142 pd send-next;
#N canvas 520 152 514 502 persist 0;
#X obj 100 112 inlet;
#X obj 100 151 unpack f f;
#X obj 165 225 textfile;
#X obj 278 301 *;
#X obj 324 395 tabslice \$0-preset-buffer;
#X obj 319 360 pack 0 f;
#X connect 0 0 1 0;
#X restore 305 164 pd persist;
#N canvas 211 46 1150 804 listen-for-change 0;
#X obj 246 133 r \$1;
#X obj 246 155 route set;
#X obj 246 191 t l l;
#X obj 269 592 tabwrite \$0-preset-buffer;
#X obj 445 301 r \$0-radio-out;
#X obj 427 336 f;
#X obj 179 285 unpack f f;
#X obj 395 278 t f b;
#X obj 216 315 swap;
#X obj 395 390 +;
#X obj 427 358 * 8;
#X obj 281 226 print setting;
#X connect 0 0 1 0;
#X connect 1 0 2 0;
#X connect 2 0 6 0;
#X connect 2 0 11 0;
#X connect 4 0 5 1;
#X connect 5 0 10 0;
#X connect 6 0 8 0;
#X connect 6 1 8 1;
#X connect 7 0 9 0;
#X connect 7 1 5 0;
#X connect 8 0 3 0;
#X connect 8 1 7 0;
#X connect 9 0 3 1;
#X connect 10 0 9 1;
#X restore 412 141 pd listen-for-change;
#X obj 527 370 table \$0-preset-buffer;
#X obj 527 350 v \$0-preset-buffer-size;
#N canvas 120 22 1150 804 pairing-with-slave 0;
#X obj 54 133 loadbang;
#X obj 54 155 t b b b b;
#X obj 114 252 s \$1;
#X msg 114 222 size \$1-size-callback;
#X obj 278 150 r \$0-size-callback;
#X obj 279 224 * 8;
#X obj 279 307 pack f \$0;
#X msg 279 329 \; \$2-preset-buffer resize \$1;
#X obj 279 246 t f f;
#X obj 311 279 v \$0-preset-buffer-size;
#X obj 114 188 f \$0;
#X obj 65 328 s \$0-radio-in;
#X obj 65 299 f 0;
#X connect 0 0 1 0;
#X connect 1 2 12 0;
#X connect 1 3 10 0;
#X connect 3 0 2 0;
#X connect 4 0 5 0;
#X connect 5 0 8 0;
#X connect 6 0 7 0;
#X connect 8 0 6 0;
#X connect 8 1 9 0;
#X connect 10 0 3 0;
#X connect 12 0 11 0;
#X restore 415 119 pd pairing-with-slave;
#X obj 229 119 bng 15 250 50 0 \$0-save-out empty empty 17 7 0 10 -262144
-258113 -1;
#X obj 594 125 r \$0-save-out;
#N canvas 943 537 450 300 save-buffer-range 0;
#X obj 38 32 inlet;
#X obj 92 58 r \$0-radio-out;
#X obj 77 88 f;
#X obj 55 195 s \$1;
#X msg 56 141 save;
#X connect 0 0 4 0;
#X connect 1 0 2 1;
#X connect 4 0 3 0;
#X restore 594 147 pd save-buffer-range;
#X connect 1 0 4 0;
#X connect 4 0 5 0;
#X connect 6 0 7 0;
#X connect 7 0 8 0;
#X connect 14 0 15 0;
#X coords 0 -1 1 1 146 37 1 100 100;
