#N canvas 961 831 958 368 10;
#X obj 103 119 hradio 15 1 0 8 \$0-radio-out \$0-radio-in empty 0 -8
0 10 -262144 -1 -1 0;
#X obj 305 27 inlet;
#X obj 555 28 inlet;
#X obj 275 309 outlet;
#X obj 693 186 table \$0-preset-buffer;
#N canvas 1 49 958 1150 in-range 0;
#X obj 27 54 inlet;
#X obj 13 352 outlet;
#X obj 55 138 route float;
#X obj 55 160 moses -1;
#X obj 108 185 moses 10;
#X connect 0 0 2 0;
#X connect 2 0 3 0;
#X connect 3 1 4 0;
#X connect 4 0 1 0;
#X restore 305 62 pd in-range;
#X obj 522 129 s \$1;
#X obj 305 87 s \$0-radio-in;
#X obj 305 120 r \$0-radio-out;
#N canvas 1 49 958 1150 read-current 0;
#X obj 83 84 inlet;
#X obj 61 624 outlet;
#X obj 106 184 f;
#X obj 179 210 s \$1;
#X msg 179 175 read-memory \$1-preset-callback;
#X obj 179 149 f \$0;
#X obj 218 274 r \$0-preset-callback;
#X obj 250 319 list length;
#X obj 295 370 f 0;
#X obj 295 392 == 0;
#X obj 295 414 select 1;
#X obj 250 341 t f b f;
#X obj 379 453 f;
#X obj 379 484 * 8;
#X obj 379 506 pack f \$0;
#X msg 379 528 \; \$2-preset-buffer resize \$1;
#X obj 295 436 b;
#X obj 218 296 t l l;
#X obj 144 373 list append;
#X obj 106 259 *;
#X obj 166 458 list trim;
#X obj 144 501 s \$0-preset-buffer;
#X obj 83 106 t f f b b;
#X connect 0 0 22 0;
#X connect 2 0 19 0;
#X connect 4 0 3 0;
#X connect 5 0 4 0;
#X connect 6 0 17 0;
#X connect 7 0 11 0;
#X connect 8 0 9 0;
#X connect 9 0 10 0;
#X connect 10 0 16 0;
#X connect 11 0 19 1;
#X connect 11 1 8 0;
#X connect 11 2 12 1;
#X connect 12 0 13 0;
#X connect 13 0 14 0;
#X connect 14 0 15 0;
#X connect 16 0 12 0;
#X connect 17 0 18 1;
#X connect 17 1 7 0;
#X connect 18 0 20 0;
#X connect 19 0 18 0;
#X connect 20 0 21 0;
#X connect 22 0 1 0;
#X connect 22 1 2 1;
#X connect 22 2 2 0;
#X connect 22 3 5 0;
#X restore 305 144 pd read-current;
#N canvas 961 344 958 264 send-next 0;
#X obj 46 54 inlet;
#X obj 76 500 outlet;
#X obj 46 76 pack f 8;
#X connect 0 0 2 0;
#X restore 305 167 pd send-next;
#X connect 1 0 5 0;
#X connect 5 0 7 0;
#X connect 8 0 9 0;
#X connect 9 0 10 0;
#X coords 0 -1 1 1 126 37 1 100 100;
