#N canvas 1 49 958 1150 10;
#X obj 145 33 inlet;
#X obj 220 28 loadbang;
#N canvas 1 49 958 1150 connect_proxy 0;
#X obj 13 13 inlet;
#X obj 24 245 outlet;
#X msg 124 121 obj 27 84 \$1 \$2 \$3 \$4 \$5 \$6 \$7 \$8 \$9 \$10;
#X msg 115 195 connect 3 0 2 0;
#X obj 125 94 list append;
#X obj 13 41 t b b b b b a b;
#X obj 188 58 list append \$2 \$3 \$4 \$5 \$6 \$7 \$8 \$9 \$10;
#X msg 24 140 loadbang;
#X msg 113 145 connect 0 0 3 0;
#X msg 112 169 connect 1 0 3 1;
#X connect 0 0 5 0;
#X connect 2 0 1 0;
#X connect 3 0 1 0;
#X connect 4 0 2 0;
#X connect 5 1 7 0;
#X connect 5 2 3 0;
#X connect 5 3 9 0;
#X connect 5 4 8 0;
#X connect 5 5 4 0;
#X connect 5 6 6 0;
#X connect 6 0 4 1;
#X connect 7 0 1 0;
#X connect 8 0 1 0;
#X connect 9 0 1 0;
#X restore 220 198 pd connect_proxy;
#X obj 220 66 defined \$1;
#X obj 220 88 sel 1;
#X obj 220 110 bang;
#X obj 364 21 inlet;
#X obj 364 43 bind \$0 set;
#X obj 365 128 r \$0-set;
#X obj 220 132 any \$1;
#X obj 220 167 limit 1;
#X obj 365 150 route 0;
#N canvas 1 49 958 1150 \$0-magic_proxy 0;
#X obj 22 24 inlet;
#X obj 229 27 inlet;
#X obj 48 235 outlet;
#X restore 29 139 pd \$0-magic_proxy;
#X obj 220 225 s pd-\$0-magic_proxy;
#X obj 29 30 inlet;
#X obj 29 267 outlet;
#X connect 0 0 12 1;
#X connect 1 0 3 0;
#X connect 2 0 13 0;
#X connect 3 0 4 0;
#X connect 4 0 5 0;
#X connect 5 0 9 0;
#X connect 6 0 7 0;
#X connect 8 0 11 0;
#X connect 9 0 10 0;
#X connect 10 0 2 0;
#X connect 11 1 10 0;
#X connect 12 0 15 0;
#X connect 14 0 12 0;
