#N canvas 471 201 450 300 10;
#X obj 29 30 inlet~;
#X obj 134 29 inlet;
#X obj 29 268 outlet~;
#X obj 220 28 loadbang;
#N canvas 406 314 450 300 \$0-magic_proxy~ 0;
#X obj 21 24 inlet~;
#X obj 230 26 inlet;
#X obj 48 235 outlet~;
#X restore 29 139 pd \$0-magic_proxy~;
#X obj 220 165 s pd-\$0-magic_proxy~;
#N canvas 985 269 409 304 connect_proxy 0;
#X obj 16 13 inlet;
#X obj 24 245 outlet;
#X msg 112 124 obj 27 84 \$1 \$2 \$3 \$4 \$5 \$6 \$7 \$8 \$9 \$10;
#X obj 112 102 list append \$1 \$2 \$3 \$4 \$5 \$6 \$7 \$8 \$9 \$10
;
#X obj 13 41 t b b b b b b b;
#X msg 115 148 connect 0 0 3 0;
#X msg 112 169 connect 1 0 3 1;
#X msg 115 195 connect 3 0 2 0;
#X connect 0 0 4 0;
#X connect 2 0 1 0;
#X connect 3 0 2 0;
#X connect 4 2 7 0;
#X connect 4 3 6 0;
#X connect 4 4 5 0;
#X connect 4 5 3 0;
#X connect 5 0 1 0;
#X connect 6 0 1 0;
#X connect 7 0 1 0;
#X restore 220 138 pd connect_proxy;
#X obj 220 66 defined \$1;
#X obj 220 88 sel 1;
#X obj 220 110 bang;
#X connect 0 0 4 0;
#X connect 1 0 4 1;
#X connect 3 0 7 0;
#X connect 4 0 2 0;
#X connect 6 0 5 0;
#X connect 7 0 8 0;
#X connect 8 0 9 0;
#X connect 9 0 6 0;
