#N canvas 180 507 520 300 10;
#X obj 82 171 dac~;
#X obj 76 131 *~ 0.25;
#X floatatom 64 40 5 0 0 0 - - -;
#X text 135 115 create a basic tilde object programmatically;
#X obj 69 82 proxy~ phasor~ 400;
#X msg 213 152 set phasor~ 400;
#X obj 172 181 proxy~;
#X text 170 199 you can also set it externally ONLY ONCE;
#X connect 1 0 0 0;
#X connect 1 0 0 1;
#X connect 2 0 4 0;
#X connect 4 0 1 0;
#X connect 5 0 6 2;
