#N canvas 838 386 450 300 10;
#X obj 17 25 inlet~;
#X obj 116 25 inlet;
#N canvas 0 22 450 300 \$0-magic-proxy 0;
#X obj 15 31 inlet~;
#X obj 190 33 inlet;
#X obj 21 235 outlet~;
#X restore 17 180 pd \$0-magic-proxy;
#X obj 17 254 outlet~;
#X obj 154 25 loadbang;
#N canvas 869 190 460 544 create-it 0;
#X obj 16 13 inlet;
#X obj 26 510 outlet;
#X obj 13 41 t b b b b b b b;
#X msg 106 218 obj 27 84 \$1 \$2;
#X obj 253 47 defined \$2;
#X obj 253 69 sel 1;
#X obj 252 98 bang;
#X obj 162 258 list append \$1;
#X msg 162 281 obj 27 84 \$1;
#X obj 106 192 list append \$1 \$2;
#X obj 282 98 bang;
#X msg 55 466 connect 3 0 2 0;
#X msg 55 419 connect 1 0 3 0;
#X msg 52 440 connect 0 0 3 0;
#X connect 0 0 2 0;
#X connect 2 2 11 0;
#X connect 2 3 13 0;
#X connect 2 4 12 0;
#X connect 2 6 4 0;
#X connect 3 0 1 0;
#X connect 4 0 5 0;
#X connect 5 0 6 0;
#X connect 5 1 10 0;
#X connect 6 0 9 0;
#X connect 7 0 8 0;
#X connect 8 0 1 0;
#X connect 9 0 3 0;
#X connect 10 0 7 0;
#X connect 11 0 1 0;
#X connect 12 0 1 0;
#X connect 13 0 1 0;
#X restore 260 188 pd create-it;
#X obj 260 212 s pd-\$0-magic-proxy;
#X obj 154 95 def-any \$2;
#X obj 154 117 route 0;
#X obj 154 47 t b b;
#X obj 260 93 defined \$1;
#X obj 260 116 sel 1;
#X obj 260 138 bang;
#X obj 154 141 list prepend set;
#X obj 154 163 list trim;
#X connect 0 0 2 0;
#X connect 1 0 2 1;
#X connect 2 0 3 0;
#X connect 4 0 9 0;
#X connect 5 0 6 0;
#X connect 7 0 8 0;
#X connect 8 1 13 0;
#X connect 9 0 7 0;
#X connect 9 1 10 0;
#X connect 10 0 11 0;
#X connect 11 0 12 0;
#X connect 12 0 5 0;
#X connect 13 0 14 0;
#X connect 14 0 2 1;
