#N canvas 663 304 376 369 10;
#X obj 25 22 inlet;
#X obj 169 25 inlet;
#X obj 25 268 outlet~;
#N canvas 0 22 450 300 \$0-vline~ 0;
#X obj 40 40 inlet;
#X obj 29 245 outlet~;
#X obj 29 216 vline~;
#X obj 225 52 inlet;
#X obj 225 96 unpack f f f;
#X obj 40 65 route float bang;
#X obj 86 115 s \$0-next;
#X obj 86 89 b;
#X obj 221 168 pack f f f;
#X obj 40 87 s \$0-f;
#X obj 315 131 r \$0-f;
#X obj 265 138 * 1;
#X msg 221 190 \$1 0 0 \, \$2 \$3 0;
#X connect 0 0 5 0;
#X connect 2 0 1 0;
#X connect 3 0 4 0;
#X connect 4 0 8 0;
#X connect 4 1 8 1;
#X connect 4 2 11 0;
#X connect 5 0 9 0;
#X connect 5 1 7 0;
#X connect 7 0 6 0;
#X connect 8 0 12 0;
#X connect 10 0 11 1;
#X connect 11 0 8 2;
#X connect 12 0 2 0;
#X restore 25 181 pd \$0-vline~;
#N canvas 487 22 450 300 \$0-iterator 0;
#X obj 10 21 inlet;
#X obj 10 258 outlet;
#X obj 10 43 b;
#X obj 10 65 v \$0-i;
#X obj 103 24 + 1;
#X obj 103 48 mod;
#X obj 130 24 v \$0-size;
#X obj 10 88 t f f f f;
#X obj 103 1 t f b;
#X obj 10 133 tabread \$0-starts;
#X obj 38 153 tabread \$0-ends;
#X obj 10 201 pack f f f;
#X obj 68 175 tabread \$0-times;
#X connect 0 0 2 0;
#X connect 2 0 3 0;
#X connect 3 0 7 0;
#X connect 4 0 5 0;
#X connect 5 0 3 0;
#X connect 6 0 5 1;
#X connect 7 0 9 0;
#X connect 7 1 10 0;
#X connect 7 2 12 0;
#X connect 7 3 8 0;
#X connect 8 0 4 0;
#X connect 8 1 6 0;
#X connect 9 0 11 0;
#X connect 10 0 11 1;
#X connect 11 0 1 0;
#X connect 12 0 11 2;
#X restore 141 243 pd \$0-iterator;
#X obj 216 132 r \$0-next;
#X obj 94 149 raw-line-ctrl;
#X obj 169 181 handle \$0 end;
#X connect 0 0 3 0;
#X connect 1 0 6 1;
#X connect 3 0 2 0;
#X connect 5 0 6 1;
#X connect 6 0 3 1;
#X connect 6 1 7 0;
