#N canvas 160 467 450 300 10;
#X text 68 234 a queued vline~ generator sequentially surfing through
line segments;
#X msg 193 58 append 0 2 1000 \, append -1 0 5000;
#X obj 131 28 bng 15 250 50 0 empty empty empty 17 7 0 10 -262144 -1
-1;
#X obj 149 146 snapshot~;
#X floatatom 149 168 5 0 0 0 - - -;
#X obj 209 146 metro 10;
#X obj 209 123 tgl 15 0 empty empty empty 17 7 0 10 -262144 -1 -1 1
1;
#X obj 149 124 qline~;
#X connect 1 0 7 1;
#X connect 2 0 7 0;
#X connect 3 0 4 0;
#X connect 5 0 3 0;
#X connect 6 0 5 0;
#X connect 7 0 3 0;
