#N canvas 800 409 450 300 10;
#X text 72 20 lossless message throttling system \, will not drop messaages
to stay within bandwidth requirements;
#X msg 110 128 1 2 3 4 5;
#X msg 125 151 6 7 8 9 10;
#X floatatom 236 160 5 0 0 0 - - -;
#X msg 140 176 a b c d;
#X obj 107 228 print;
#X obj 107 206 qthrottle 1000;
#X connect 1 0 6 0;
#X connect 2 0 6 0;
#X connect 4 0 6 0;
#X connect 6 0 5 0;
