#N canvas 342 408 450 300 10;
#X obj 40 40 inlet;
#X obj 323 36 inlet;
#X obj 29 263 outlet;
#X obj 40 62 t b a;
#X obj 117 123 textfile;
#X msg 162 149 clear;
#X obj 117 78 list prepend add;
#X obj 117 100 list trim;
#X obj 198 201 del 0;
#X obj 323 58 bind \$0 set \$1;
#X obj 225 176 f;
#X obj 239 146 r \$0-set;
#X obj 40 113 t b b b;
#X connect 0 0 3 0;
#X connect 1 0 9 0;
#X connect 3 0 12 0;
#X connect 3 1 6 0;
#X connect 4 0 2 0;
#X connect 4 1 5 0;
#X connect 5 0 4 0;
#X connect 6 0 7 0;
#X connect 7 0 4 0;
#X connect 10 0 8 1;
#X connect 11 0 10 1;
#X connect 12 1 8 0;
#X connect 12 2 10 0;
