#N canvas 711 233 529 539 10;
#X obj -8 13 inlet;
#X obj 220 13 inlet;
#X obj -16 271 outlet;
#N canvas 931 459 450 300 \$0-tables 0;
#X obj 9 20 table \$0-starts 0;
#X obj 9 40 table \$0-ends 0;
#X obj 9 60 table \$0-times 0;
#X obj 9 80 table \$0-loops 0;
#X restore 217 286 pd \$0-tables;
#N canvas 355 213 450 300 \$0-vars 0;
#X obj 65 119 v \$0-i;
#X obj 65 42 loadbang;
#X obj 107 119 v \$0-size;
#X obj 65 64 unpack 0 0 0;
#X connect 1 0 3 0;
#X connect 3 0 0 0;
#X connect 3 1 2 0;
#X restore 217 306 pd \$0-vars;
#N canvas 484 348 352 411 \$0-appender 0;
#X obj 7 15 r \$0-append;
#X obj 7 73 t l b;
#X obj 7 230 tabwrite \$0-starts;
#X obj 7 253 tabwrite \$0-ends;
#X obj 112 90 v \$0-size;
#X obj 180 180 s \$0-resize;
#X obj 7 275 tabwrite \$0-times;
#X obj 112 133 t f f;
#X obj 180 150 + 1;
#X obj 7 37 route list;
#X obj 7 297 tabwrite \$0-loops;
#X obj 112 182 t f f f f;
#X obj 7 117 unpack f f f f;
#X connect 0 0 9 0;
#X connect 1 0 12 0;
#X connect 1 1 4 0;
#X connect 4 0 7 0;
#X connect 7 0 11 0;
#X connect 7 1 8 0;
#X connect 8 0 5 0;
#X connect 9 0 1 0;
#X connect 11 0 2 1;
#X connect 11 1 3 1;
#X connect 11 2 6 1;
#X connect 11 3 10 1;
#X connect 12 0 2 0;
#X connect 12 1 3 0;
#X connect 12 2 6 0;
#X connect 12 3 10 0;
#X restore 307 286 pd \$0-appender;
#N canvas 574 466 450 300 \$0-prepender 0;
#X restore 307 305 pd \$0-prepender;
#N canvas 0 22 450 300 \$0-sorter 0;
#X restore 307 325 pd \$0-sorter;
#N canvas 0 22 450 300 \$0-randomizer 0;
#X restore 307 345 pd \$0-randomizer;
#X text 215 269 static setup;
#X text 306 269 event handlers;
#N canvas 0 22 450 300 \$0-deleter 0;
#X restore 307 364 pd \$0-deleter;
#N canvas 174 254 450 300 \$0-resizer 0;
#X obj 17 9 r \$0-resize;
#X obj 28 131 s \$0-starts;
#X obj 22 153 s \$0-ends;
#X msg 17 58 resize \$1;
#X obj 17 175 s \$0-times;
#X obj 37 109 s \$0-loops;
#X obj 183 73 s \$0-outlet2;
#X msg 183 48 resize \$1;
#X obj 94 48 s \$0-newSize;
#X obj 284 48 v \$0-size;
#X obj 16 31 t f f f f;
#X connect 0 0 10 0;
#X connect 3 0 2 0;
#X connect 3 0 1 0;
#X connect 3 0 4 0;
#X connect 3 0 5 0;
#X connect 7 0 6 0;
#X connect 10 0 3 0;
#X connect 10 1 8 0;
#X connect 10 2 7 0;
#X connect 10 3 9 0;
#X restore 307 383 pd \$0-resizer;
#N canvas 791 147 450 300 \$0-stopper 0;
#X obj 6 8 r \$0-stop;
#X obj 6 30 t b;
#X obj 6 52 v \$0-started;
#X obj 6 74 == 1;
#X obj 6 96 sel 1;
#X obj 6 118 t b b;
#X obj 33 143 f 0;
#X connect 0 0 1 0;
#X connect 1 0 2 0;
#X connect 2 0 3 0;
#X connect 3 0 4 0;
#X connect 4 0 5 0;
#X connect 5 1 6 0;
#X connect 6 0 2 0;
#X restore 309 483 pd \$0-stopper;
#N canvas 258 503 450 300 \$0-next 0;
#X obj 52 119 f 1;
#X obj 25 36 r \$0-next;
#X obj 25 58 t b;
#X msg 52 157 i \$1;
#X obj 52 203 s \$0-iterator;
#X connect 0 0 3 0;
#X connect 1 0 2 0;
#X connect 2 0 0 0;
#X connect 3 0 4 0;
#X restore 309 422 pd \$0-next;
#N canvas 715 308 450 300 \$0-previous 0;
#X obj 25 58 t b;
#X obj 52 119 f -1;
#X msg 52 157 i \$1;
#X obj 52 203 s \$0-iterator;
#X obj 25 36 r \$0-previous;
#X connect 0 0 1 0;
#X connect 1 0 2 0;
#X connect 2 0 3 0;
#X connect 4 0 0 0;
#X restore 309 444 pd \$0-previous;
#N canvas 296 490 450 300 \$0-jump 0;
#X obj 43 13 r \$0-jump;
#X obj 43 45 route float;
#X obj 43 119 mod;
#X obj 70 92 v \$0-size;
#X obj 43 67 t f b;
#X obj 43 154 s \$0-iterator;
#X connect 0 0 1 0;
#X connect 1 0 4 0;
#X connect 2 0 5 0;
#X connect 3 0 2 1;
#X connect 4 0 2 0;
#X connect 4 1 3 0;
#X restore 309 464 pd \$0-jump;
#X obj 220 36 handle \$0 append;
#X obj 220 58 handle \$0 clear;
#X obj 220 80 handle \$0 next;
#X obj 220 102 handle \$0 previous;
#X obj 220 124 handle \$0 jump;
#X obj 220 146 handle \$0 stop;
#N canvas 627 22 472 695 \$0-iterator 0;
#X obj 10 6 inlet;
#X obj 10 576 outlet;
#X obj 10 403 tabread \$0-starts;
#X obj 38 423 tabread \$0-ends;
#X obj 68 445 tabread \$0-times;
#X obj 10 496 pack f f f f;
#X obj 96 466 tabread \$0-loops;
#X obj 10 367 t f f f f f;
#X obj 342 261 r \$0-newSize;
#X msg 342 310 end \$1;
#X obj 10 31 route i j;
#X obj 10 60 b;
#X text 34 64 TODO support back/forward/jumps;
#X obj 284 466 s \$0-outlet2;
#X obj 10 264 spigot 1;
#X obj 174 136 r \$0-rewind;
#X obj 174 184 f 1;
#X obj 174 247 t f b;
#X msg 201 310 rewind;
#X obj 342 283 - 1;
#X obj 174 158 b;
#X msg 284 444 end;
#X obj 120 343 t b b b;
#X obj 97 376 print i;
#X obj 10 327 counter 0 0 1;
#X obj 55 215 r \$0-closeSpigot;
#X obj 209 168 print rewinding;
#X obj 10 518 t b l;
#X obj 85 282 r \$0-loopAll;
#X msg 85 304 loop \$1;
#X obj 284 423 spigot;
#X obj 254 349 r \$0-loopAll;
#X obj 317 399 == 0;
#X obj 254 371 t f f;
#X obj 213 428 spigot;
#X obj 246 404 == 1;
#X obj 213 450 s \$0-next;
#X connect 0 0 10 0;
#X connect 2 0 5 0;
#X connect 3 0 5 1;
#X connect 4 0 5 2;
#X connect 5 0 27 0;
#X connect 6 0 5 3;
#X connect 7 0 2 0;
#X connect 7 1 3 0;
#X connect 7 2 4 0;
#X connect 7 3 6 0;
#X connect 7 4 23 0;
#X connect 8 0 19 0;
#X connect 9 0 24 1;
#X connect 10 0 11 0;
#X connect 10 1 11 0;
#X connect 11 0 14 0;
#X connect 14 0 24 0;
#X connect 15 0 20 0;
#X connect 15 0 26 0;
#X connect 16 0 17 0;
#X connect 17 0 14 1;
#X connect 17 1 18 0;
#X connect 18 0 24 1;
#X connect 19 0 9 0;
#X connect 20 0 16 0;
#X connect 21 0 13 0;
#X connect 22 1 34 0;
#X connect 22 2 30 0;
#X connect 24 0 7 0;
#X connect 24 1 22 0;
#X connect 25 0 14 1;
#X connect 27 1 1 0;
#X connect 28 0 29 0;
#X connect 29 0 24 1;
#X connect 30 0 21 0;
#X connect 31 0 33 0;
#X connect 32 0 30 1;
#X connect 33 0 35 0;
#X connect 33 1 32 0;
#X connect 34 0 36 0;
#X connect 35 0 34 1;
#X restore -16 203 pd \$0-iterator;
#X obj -16 130 r \$0-iterator;
#X obj 220 168 handle \$0 tables;
#N canvas 211 405 450 300 \$0-tables 0;
#X obj 14 18 r \$0-tables;
#X obj 14 40 b;
#X obj 14 62 f \$0;
#X obj 14 84 t f f f f;
#X msg 78 229 loopsTable \$1-loops;
#X msg 55 205 timesTable \$1-times;
#X msg 34 182 endsTable \$1-ends;
#X msg 14 156 startsTable \$1-starts;
#X obj 14 265 s \$0-outlet2;
#X connect 0 0 1 0;
#X connect 1 0 2 0;
#X connect 2 0 3 0;
#X connect 3 0 7 0;
#X connect 3 1 6 0;
#X connect 3 2 5 0;
#X connect 3 3 4 0;
#X connect 4 0 8 0;
#X connect 5 0 8 0;
#X connect 6 0 8 0;
#X connect 7 0 8 0;
#X restore 308 518 pd \$0-tables;
#X obj 87 304 outlet;
#X obj 87 269 r \$0-outlet2;
#X obj 220 190 handle \$0 rewind;
#X obj 220 212 bind \$0 loopAll 0;
#X connect 1 0 17 0;
#X connect 17 0 18 0;
#X connect 18 0 19 0;
#X connect 19 0 20 0;
#X connect 20 0 21 0;
#X connect 21 0 22 0;
#X connect 22 0 25 0;
#X connect 23 0 2 0;
#X connect 24 0 23 0;
#X connect 25 0 29 0;
#X connect 28 0 27 0;
#X connect 29 0 30 0;
