#N canvas 216 492 450 300 10;
#X obj 187 124 print dump;
#X msg 185 31 append 0 1 1000 1 \, append 1 5 5000 2;
#X msg 206 63 next;
#X obj 115 119 print line;
#X msg 244 70 rewind;
#X msg 291 73 loopAll 1;
#X obj 116 97 raw-line-ctrl;
#X msg 359 74 loopAll 0;
#X connect 1 0 6 1;
#X connect 2 0 6 1;
#X connect 4 0 6 1;
#X connect 5 0 6 1;
#X connect 6 0 3 0;
#X connect 6 1 0 0;
#X connect 7 0 6 1;
