#N canvas 768 49 1150 1150 10;
#X obj 179 370 inlet;
#X obj 230 592 outlet;
#X obj 237 546 /;
#X obj 235 505 f 1;
#X obj 264 505 f \$1;
#X obj 231 467 t b f;
#X obj 179 392 route bang float;
#X obj 172 435 t b b;
#X connect 0 0 6 0;
#X connect 2 0 1 0;
#X connect 3 0 2 0;
#X connect 4 0 2 1;
#X connect 5 0 3 0;
#X connect 5 1 4 0;
#X connect 6 0 7 0;
#X connect 6 1 5 0;
#X connect 7 0 3 0;
#X connect 7 1 4 0;
