#N canvas 1743 694 387 435 10;
#X obj 18 6 inlet;
#X obj 19 339 outlet;
#X obj 37 220 proxy \$1;
#X obj 37 59 for-each;
#X obj 37 157 list prepend;
#X obj 37 179 list trim;
#X obj 193 117 any 0;
#X obj 19 312 any;
#X obj 18 28 t b l b;
#X obj 37 100 t a b;
#X msg 193 45 0;
#X obj 37 242 t a a;
#X connect 0 0 8 0;
#X connect 2 0 11 0;
#X connect 3 0 9 0;
#X connect 4 0 5 0;
#X connect 5 0 2 0;
#X connect 6 0 4 1;
#X connect 7 0 1 0;
#X connect 8 0 7 0;
#X connect 8 1 3 0;
#X connect 8 2 10 0;
#X connect 9 0 4 0;
#X connect 9 1 6 0;
#X connect 10 0 6 0;
#X connect 11 0 7 1;
#X connect 11 1 6 1;
