#N canvas 1 49 958 560 10;
#X obj 22 35 inlet~;
#X obj 100 32 inlet~;
#X obj 182 28 inlet~;
#X obj 45 456 outlet~;
#X obj 164 454 outlet~;
#X obj 63 262 rotate~;
#X obj 117 363 *~ -1;
#X connect 0 0 5 0;
#X connect 1 0 5 1;
#X connect 2 0 5 2;
#X connect 5 0 3 0;
#X connect 5 1 6 0;
#X connect 6 0 4 0;
