#N canvas 961 49 958 560 10;
#N canvas 0 0 450 300 (subpatch) 0;
#X array \$0-in-1 441 float 2;
#X coords 0 1 440 -1 200 140 1 0 0;
#X restore 522 40 graph;
#N canvas 1 49 958 363 (subpatch) 0;
#X array \$0-in-2 441 float 2;
#X coords 0 1 440 -1 200 140 1 0 0;
#X restore 729 40 graph;
#N canvas 0 0 450 300 (subpatch) 0;
#X array \$0-out-1 441 float 2;
#X coords 0 1 440 -1 200 140 1 0 0;
#X restore 524 204 graph;
#N canvas 0 0 450 300 (subpatch) 0;
#X array \$0-out-2 441 float 2;
#X coords 0 1 440 -1 200 140 1 0 0;
#X restore 731 204 graph;
#X obj 193 147 phasor~ 0.1;
#X obj 240 308 tabwrite~ \$0-in-1;
#X obj 366 308 tabwrite~ \$0-in-2;
#X obj 241 335 tabwrite~ \$0-out-1;
#X obj 374 335 tabwrite~ \$0-out-2;
#X obj 332 208 metro 100;
#X obj 332 182 tgl 15 0 empty empty empty 17 7 0 10 -262144 -1 -1 1
1;
#X obj 84 103 phasor~ 800;
#X obj 86 156 -~ 0.5;
#X obj 86 178 *~ 2;
#X obj 195 201 -~ 0.5;
#X obj 195 223 *~ 2;
#X obj 179 108 phasor~ 400.1;
#X obj 98 299 reflect~;
#X connect 4 0 17 2;
#X connect 9 0 5 0;
#X connect 9 0 6 0;
#X connect 9 0 7 0;
#X connect 9 0 8 0;
#X connect 10 0 9 0;
#X connect 11 0 12 0;
#X connect 12 0 13 0;
#X connect 13 0 5 0;
#X connect 13 0 17 0;
#X connect 14 0 15 0;
#X connect 15 0 6 0;
#X connect 15 0 17 1;
#X connect 16 0 14 0;
#X connect 17 0 7 0;
#X connect 17 1 8 0;
