#N canvas 688 185 450 300 10;
#X obj 28 29 inlet~;
#X obj 71 29 inlet;
#N canvas 215 133 450 300 proxy~ 0;
#X obj 30 32 inlet~;
#X obj 207 33 inlet;
#X obj 30 107 proxy~ \$2 \$3 \$4 \$5 \$6 \$7 \$8 \$9;
#X obj 30 270 outlet~;
#X obj 340 139 f \$1;
#X obj 283 139 * 64;
#X obj 283 169 pack f 1 f;
#X obj 283 105 t f f;
#X obj 283 75 f \$1;
#X obj 283 19 inlet;
#X obj 283 45 b;
#X obj 283 191 list prepend set;
#X obj 283 213 list trim;
#X obj 283 235 block~;
#X connect 0 0 2 0;
#X connect 1 0 2 1;
#X connect 2 0 3 0;
#X connect 4 0 6 2;
#X connect 5 0 6 0;
#X connect 6 0 11 0;
#X connect 7 0 5 0;
#X connect 7 1 4 0;
#X connect 8 0 7 0;
#X connect 9 0 10 0;
#X connect 10 0 8 0;
#X connect 11 0 12 0;
#X connect 12 0 13 0;
#X restore 28 149 pd proxy~;
#X obj 28 237 outlet~;
#X obj 83 52 loadbang;
#X obj 83 74 defined \$1;
#X obj 83 96 sel 1;
#X obj 83 118 b;
#X connect 0 0 2 0;
#X connect 1 0 2 1;
#X connect 2 0 3 0;
#X connect 4 0 5 0;
#X connect 5 0 6 0;
#X connect 6 0 7 0;
#X connect 7 0 2 2;
