#N canvas 652 32 537 437 10;
#X obj 28 28 inlet;
#X obj 54 49 inlet;
#X obj 91 49 inlet;
#X obj 128 49 inlet;
#X obj 165 49 inlet;
#X obj 28 289 outlet;
#X obj 28 161 unpack f f f f f;
#N canvas 271 228 305 267 to-0-to-1 1;
#X obj 25 103 clip;
#X obj 145 153 -;
#X obj 145 127 swap;
#X obj 118 56 t f f;
#X obj 25 137 -;
#X obj 94 86 t f f f;
#X obj 25 170 /;
#X obj 25 23 inlet;
#X obj 62 23 inlet;
#X obj 98 23 inlet;
#X obj 25 220 outlet;
#X connect 0 0 4 0;
#X connect 1 0 6 1;
#X connect 2 0 1 0;
#X connect 2 1 1 1;
#X connect 3 0 0 2;
#X connect 3 1 2 1;
#X connect 4 0 6 0;
#X connect 5 0 0 1;
#X connect 5 1 4 1;
#X connect 5 2 2 0;
#X connect 6 0 10 0;
#X connect 7 0 0 0;
#X connect 8 0 5 0;
#X connect 9 0 3 0;
#X restore 28 208 pd to-0-to-1;
#N canvas 767 414 450 300 to-output-scale 0;
#X obj 25 23 inlet;
#X obj 62 23 inlet;
#X obj 98 23 inlet;
#X obj 25 220 outlet;
#X obj 98 45 t f f;
#X obj 62 45 t f f;
#X obj 114 112 -;
#X obj 108 85 swap;
#X obj 25 149 *;
#X obj 25 190 +;
#X obj 114 134 t f f;
#X connect 0 0 8 0;
#X connect 1 0 5 0;
#X connect 2 0 4 0;
#X connect 4 1 7 1;
#X connect 5 0 9 1;
#X connect 5 1 7 0;
#X connect 6 0 10 0;
#X connect 7 0 6 0;
#X connect 7 1 6 1;
#X connect 8 0 9 0;
#X connect 9 0 3 0;
#X connect 10 0 8 1;
#X restore 28 241 pd to-output-scale;
#X obj 28 126 pack f \$1 \$2 \$3 \$4;
#X text 245 43 map one numerical range onto another;
#X text 130 286 inlet 1: event to map;
#X text 130 308 inlet / argument 2: lower range of incomming event
;
#X text 130 317 inlet / argument 3: upper range of incomming event
;
#X text 130 326 inlet / argument 4: lower range of outgoing event;
#X text 130 335 inlet / argument 5: upper range of outgoing event;
#X text 12 414 zeeb.brandon@gmail.com;
#X connect 0 0 9 0;
#X connect 1 0 9 1;
#X connect 2 0 9 2;
#X connect 3 0 9 3;
#X connect 4 0 9 4;
#X connect 6 0 7 0;
#X connect 6 1 7 1;
#X connect 6 2 7 2;
#X connect 6 3 8 1;
#X connect 6 4 8 2;
#X connect 7 0 8 0;
#X connect 8 0 5 0;
#X connect 9 0 6 0;
