#N canvas 1 49 958 560 10;
#X obj 22 35 inlet~;
#X obj 100 32 inlet~;
#X obj 182 28 inlet~;
#X obj 45 456 outlet~;
#X obj 164 454 outlet~;
#X obj 45 357 +~;
#X obj 163 347 +~;
#X obj 45 268 *~;
#X obj 73 268 *~;
#X obj 163 268 *~;
#X obj 191 268 *~;
#X obj 90 243 *~ -1;
#X obj 302 198 r~ \$0-c;
#X obj 182 133 s~ \$0-s;
#X obj 240 133 s~ \$0-c;
#X obj 246 198 r~ \$0-s;
#X obj 241 71 cos~;
#X obj 181 53 wrap~;
#X connect 0 0 7 0;
#X connect 0 0 9 0;
#X connect 1 0 8 0;
#X connect 1 0 10 0;
#X connect 2 0 17 0;
#X connect 5 0 3 0;
#X connect 6 0 4 0;
#X connect 7 0 5 0;
#X connect 8 0 5 1;
#X connect 9 0 6 0;
#X connect 10 0 6 1;
#X connect 11 0 8 1;
#X connect 12 0 7 1;
#X connect 12 0 10 1;
#X connect 15 0 11 0;
#X connect 15 0 9 1;
#X connect 16 0 14 0;
#X connect 17 0 16 0;
#X connect 17 0 13 0;
