#N canvas 0 48 862 1150 10;
#X obj 12 19 inlet;
#X obj 14 240 outlet;
#X obj 308 40 loadbang;
#X obj 335 88 bind \$0 alias \$1 \$0-SAMPLE;
#X obj 335 109 bind \$0 fileName \$2;
#X obj 335 131 bind \$0 channels \$3 0;
#X obj 335 153 bind \$0 samplerate \$4 0;
#X obj 308 64 t b b;
#N canvas 0 48 862 1150 \$0-tables 0;
#X obj 0 0 table 1031-table-1 0;
#X restore 399 231 pd \$0-tables;
#N canvas 628 415 571 347 load-sample 0;
#X obj 16 17 inlet;
#X obj 16 267 outlet;
#X obj 16 92 list;
#X obj 91 75 r \$0-fileName;
#X obj 16 134 list append;
#X obj 16 189 list trim;
#X obj 16 163 list prepend read -resize;
#X obj 16 39 t b l;
#X obj 16 211 soundfiler;
#X connect 0 0 7 0;
#X connect 2 0 4 0;
#X connect 3 0 2 1;
#X connect 4 0 6 0;
#X connect 5 0 8 0;
#X connect 6 0 5 0;
#X connect 7 0 2 0;
#X connect 7 1 4 1;
#X connect 8 0 1 0;
#X restore 308 252 pd load-sample;
#N canvas 0 48 862 1150 init-requirements 0;
#X obj 9 14 inlet;
#X obj 16 375 outlet;
#X obj 88 322 r \$0-alias;
#X obj 121 64 r \$0-channels;
#X obj 206 64 r \$0-samplerate;
#X obj 206 97 > 0;
#X obj 121 96 > 0;
#X obj 70 222 &&;
#X obj 47 90 b;
#X obj 85 93 b;
#X obj 16 165 pack 1 f f f;
#X obj 9 36 b;
#X obj 16 192 unpack f f f f;
#X obj 43 248 &&;
#X obj 16 270 &&;
#X obj 16 297 == 1;
#X obj 16 319 sel 1;
#X obj 16 341 bang;
#X obj 45 15 r \$0-fileName;
#X obj 45 64 route float;
#X obj 47 112 f 0;
#X obj 85 115 f 1;
#X obj 73 303 bang;
#X obj 73 349 any;
#X obj 73 376 print unable to load sample. requirements not met;
#X connect 0 0 11 0;
#X connect 2 0 23 1;
#X connect 3 0 6 0;
#X connect 4 0 5 0;
#X connect 5 0 10 3;
#X connect 6 0 10 2;
#X connect 7 0 13 1;
#X connect 8 0 20 0;
#X connect 9 0 21 0;
#X connect 10 0 12 0;
#X connect 11 0 10 0;
#X connect 12 0 14 0;
#X connect 12 1 13 0;
#X connect 12 2 7 0;
#X connect 12 3 7 1;
#X connect 13 0 14 1;
#X connect 14 0 15 0;
#X connect 15 0 16 0;
#X connect 16 0 17 0;
#X connect 16 1 22 0;
#X connect 17 0 1 0;
#X connect 18 0 19 0;
#X connect 19 0 8 0;
#X connect 19 1 9 0;
#X connect 20 0 10 1;
#X connect 21 0 10 1;
#X connect 22 0 23 0;
#X connect 23 0 24 0;
#X restore 308 210 pd init-requirements;
#N canvas 78 95 544 680 init-tables 0;
#X obj 24 15 inlet;
#X obj 24 62 f;
#X obj 61 15 r \$0-channels;
#X msg 74 212 \$2-table-\$1;
#X obj 128 329 list prepend;
#X obj 128 355 list;
#X obj 107 383 list;
#X msg 197 127 bang;
#X obj 74 166 enumerate 1;
#X obj 226 438 list-each;
#X obj 74 188 pack f \$0;
#X obj 24 110 t b f b;
#X obj 16 433 t l l;
#X obj 29 602 outlet;
#X obj 279 624 s pd-\$0-tables;
#X msg 319 405 clear;
#X obj 177 391 t b l b b;
#X obj 286 438 f 0;
#X obj 244 528 pack s f;
#X obj 289 483 f;
#X obj 316 483 + 1;
#X obj 228 465 t a b;
#X obj 240 497 symbol;
#X msg 154 472 loadbang;
#X obj 289 506 * 20;
#X msg 244 550 obj 0 \$2 table \$1 0;
#X connect 0 0 1 0;
#X connect 1 0 11 0;
#X connect 2 0 1 1;
#X connect 3 0 4 0;
#X connect 4 0 5 0;
#X connect 5 0 4 1;
#X connect 5 0 6 1;
#X connect 6 0 12 0;
#X connect 7 0 4 1;
#X connect 8 0 10 0;
#X connect 9 0 21 0;
#X connect 10 0 3 0;
#X connect 11 0 6 0;
#X connect 11 1 8 0;
#X connect 11 2 7 0;
#X connect 12 0 13 0;
#X connect 12 1 16 0;
#X connect 15 0 14 0;
#X connect 16 0 23 0;
#X connect 16 1 9 0;
#X connect 16 2 17 0;
#X connect 16 3 15 0;
#X connect 17 0 19 1;
#X connect 18 0 25 0;
#X connect 19 0 20 0;
#X connect 19 0 24 0;
#X connect 20 0 19 1;
#X connect 21 0 22 0;
#X connect 21 1 19 0;
#X connect 22 0 18 0;
#X connect 23 0 14 0;
#X connect 24 0 18 1;
#X connect 25 0 14 0;
#X restore 308 231 pd init-tables;
#X connect 2 0 7 0;
#X connect 3 0 4 0;
#X connect 4 0 5 0;
#X connect 5 0 6 0;
#X connect 7 0 10 0;
#X connect 7 1 3 0;
#X connect 10 0 11 0;
#X connect 11 0 9 0;
