#N canvas 460 276 668 438 12;
#X obj 10 -169 inlet;
#X obj 10 148 outlet;
#X obj 147 -162 inlet;
#X obj 296 -163 namecanvas \$0-self;
#N canvas 482 23 958 781 init-canvas 1;
#X obj 86 107 s \$0-self;
#X msg 86 76 coords 0 -1 1 1 \$1 \$2 1 100 100 \;;
#X obj 86 -118 loadbang;
#X obj 86 -96 t b b;
#X obj 86 46 pack f f;
#X obj 86 -18 * 20;
#X obj 86 4 + 3;
#X obj 86 -66 def-f \$1 1;
#X obj 139 11 f 95;
#X connect 1 0 0 0;
#X connect 2 0 3 0;
#X connect 3 0 7 0;
#X connect 3 1 8 0;
#X connect 4 0 1 0;
#X connect 5 0 6 0;
#X connect 6 0 4 0;
#X connect 7 0 5 0;
#X connect 8 0 4 1;
#X restore 320 -141 pd init-canvas;
#N canvas 1 23 958 781 init-table 0;
#X obj 219 135 t b b, f 6;
#X obj 220 111 loadbang;
#X obj 218 222 array size \$0-data;
#X obj 31 48 array define \$0-data;
#X obj 219 161 def-f \$1 1;
#X connect 0 0 4 0;
#X connect 1 0 0 0;
#X connect 4 0 2 0;
#X restore 320 -103 pd init-table;
#N canvas 290 23 1150 781 init-handlers 0;
#X obj 12 7 loadbang;
#X obj 12 51 sel 0;
#X obj 11 181 for 1;
#X obj 36 155 t f f;
#X obj 11 203 - 1;
#X obj 11 74 t b b b b;
#X obj 26 426 s pd-\$0-handlers;
#X obj 29 327 pack \$0 0 f f;
#X obj 11 225 t b b f f;
#X obj 43 276 * 20;
#X msg 29 349 obj \$2 \$3 msg-map \$4 \$1-\$4-send \$1-\$4-receive
\$1-send \$1-receive;
#X obj 34 102 def-f \$1 1;
#X obj 12 29 f \$1;
#X connect 0 0 12 0;
#X connect 1 1 5 0;
#X connect 2 0 4 0;
#X connect 3 0 2 1;
#X connect 3 1 2 2;
#X connect 4 0 8 0;
#X connect 5 0 2 0;
#X connect 5 1 11 0;
#X connect 7 0 10 0;
#X connect 8 0 7 0;
#X connect 8 2 9 0;
#X connect 8 3 7 3;
#X connect 9 0 7 2;
#X connect 10 0 6 0;
#X connect 11 0 3 0;
#X connect 12 0 1 0;
#X restore 320 -84 pd init-handlers;
#N canvas 1 23 958 781 \$0-handlers 0;
#X obj 0 0 msg-map 0 1004-0-send 1004-0-receive 1004-send 1004-receive
;
#X obj 0 20 msg-map 1 1004-1-send 1004-1-receive 1004-send 1004-receive
;
#X obj 0 40 msg-map 2 1004-2-send 1004-2-receive 1004-send 1004-receive
;
#X obj 0 60 msg-map 3 1004-3-send 1004-3-receive 1004-send 1004-receive
;
#X restore 442 -84 pd \$0-handlers;
#X obj 147 -140 route set;
#X obj 147 -76 s \$0-set;
#N canvas 1 49 958 1150 guifeedback 0;
#X obj -45 -27 inlet;
#N canvas 359 456 450 300 mem 0;
#X obj 155 124 f;
#X obj 182 169 f;
#X obj 155 9 inlet;
#X obj 155 250 outlet;
#X obj 182 214 outlet;
#X text 151 263 current;
#X text 180 228 last;
#X obj 197 9 loadbang;
#X obj 155 38 t f b;
#X msg 197 39 1;
#X obj 110 78 select 0;
#X connect 0 0 1 1;
#X connect 0 0 3 0;
#X connect 1 0 4 0;
#X connect 2 0 8 0;
#X connect 7 0 9 0;
#X connect 8 0 10 0;
#X connect 8 0 0 0;
#X connect 8 1 1 0;
#X connect 9 0 0 1;
#X connect 9 0 1 1;
#X restore -45 107 pd mem 64;
#X obj 6 137 pack f \$0 0 -1 -1;
#X obj -45 164 pack f \$0 -65281 -1 -1;
#X msg -45 238 \; \$2-\$1-receive color \$3 \$4 \$5;
#X msg 6 204 \; \$2-\$1-receive color \$3 \$4 \$5;
#X obj -45 -5 unpack f f;
#X connect 0 0 6 0;
#X connect 1 0 3 0;
#X connect 1 1 2 0;
#X connect 2 0 5 0;
#X connect 3 0 4 0;
#X connect 6 0 1 0;
#X restore 29 36 pd guifeedback;
#X obj 10 -103 - 1;
#X obj 10 61 unpack f f;
#X obj 10 105 pack f f;
#X obj 10 83 + 1;
#N canvas 2701 948 421 354 limits 0;
#X obj 100 12 loadbang;
#X obj 100 34 t b b;
#X obj 102 84 *;
#X obj 19 12 inlet;
#X obj 23 250 outlet;
#X obj 58 152 moses;
#X obj 19 104 moses 1;
#X obj 102 106 + 1;
#X obj 99 55 def-f \$1 1;
#X obj 224 44 def-f \$2 1;
#X connect 0 0 1 0;
#X connect 1 0 8 0;
#X connect 1 1 9 0;
#X connect 2 0 7 0;
#X connect 3 0 6 0;
#X connect 5 0 4 0;
#X connect 6 1 5 0;
#X connect 7 0 5 1;
#X connect 8 0 2 0;
#X connect 9 0 2 1;
#X restore 10 -134 pd limits;
#X text 317 -66 init steps;
#X text 441 -66 dynamic patching;
#X obj 49 7 outlet;
#X obj 10 -52 t l l l;
#N canvas 1 49 958 1150 event-computations 0;
#X obj 14 12 inlet;
#X obj 10 267 outlet;
#X obj 14 34 unpack f f;
#X obj 14 89 t f f f;
#N canvas 1 49 958 1150 next-row 0;
#X obj 13 13 inlet;
#X obj 14 270 outlet;
#X obj 112 14 loadbang;
#X msg 14 245 nextRow;
#X obj 13 74 div;
#X obj 13 96 change;
#X obj 52 145 f;
#X obj 13 118 t f f b;
#X obj 32 172 -;
#X obj 32 194 sel 1 -1;
#X msg 70 224 previousRow;
#X obj 112 57 def-f \$2;
#X connect 0 0 4 0;
#X connect 2 0 11 0;
#X connect 3 0 1 0;
#X connect 4 0 5 0;
#X connect 5 0 7 0;
#X connect 6 0 8 1;
#X connect 7 0 6 1;
#X connect 7 1 8 0;
#X connect 7 2 6 0;
#X connect 8 0 9 0;
#X connect 9 0 3 0;
#X connect 9 1 10 0;
#X connect 10 0 1 0;
#X connect 11 0 4 1;
#X restore 53 118 pd next-row;
#X text 209 14 hop \, skip \, jump;
#N canvas 1 49 958 1150 next-previous 0;
#X obj 4 9 inlet;
#X obj 23 264 outlet;
#X obj 43 56 f;
#X obj 4 31 t f f b;
#X obj 23 78 -;
#X obj 23 126 b;
#X obj 56 128 b;
#X msg 23 160 next;
#X msg 56 160 previous;
#X obj 23 100 sel 1 -1 2;
#X obj 82 128 b;
#X msg 112 160 skip;
#X msg 149 161 jump;
#X obj 109 129 b;
#X connect 0 0 3 0;
#X connect 2 0 4 1;
#X connect 3 0 2 1;
#X connect 3 1 4 0;
#X connect 3 2 2 0;
#X connect 4 0 9 0;
#X connect 5 0 7 0;
#X connect 6 0 8 0;
#X connect 7 0 1 0;
#X connect 8 0 1 0;
#X connect 9 0 5 0;
#X connect 9 1 6 0;
#X connect 9 2 10 0;
#X connect 9 3 13 0;
#X connect 10 0 11 0;
#X connect 11 0 1 0;
#X connect 12 0 1 0;
#X connect 13 0 12 0;
#X restore 14 161 pd next-previous;
#N canvas 1 49 958 1150 begin 0;
#X obj 18 19 inlet;
#X obj 18 63 sel 1;
#X obj 18 85 b;
#X obj 18 129 outlet;
#X msg 18 107 begin;
#X obj 18 41 == 0;
#X connect 0 0 5 0;
#X connect 1 0 2 0;
#X connect 2 0 4 0;
#X connect 4 0 3 0;
#X connect 5 0 1 0;
#X restore 33 139 pd begin;
#X connect 0 0 2 0;
#X connect 2 0 3 0;
#X connect 3 0 6 0;
#X connect 3 1 7 0;
#X connect 3 2 4 0;
#X connect 4 0 1 0;
#X connect 6 0 1 0;
#X connect 7 0 1 0;
#X restore 49 -25 pd event-computations;
#N canvas 2180 582 1150 1150 read 0;
#X obj 19 19 inlet;
#X obj 19 263 outlet;
#X obj 19 98 f;
#X obj 19 120 t f f;
#X obj 19 181 pack f f;
#X obj 64 147 array get \$0-data 0 1;
#X connect 0 0 2 0;
#X connect 2 0 3 0;
#X connect 3 0 4 0;
#X connect 3 1 5 0;
#X connect 4 0 1 0;
#X connect 5 0 4 1;
#X restore 10 -78 pd read;
#N canvas 2315 1080 776 617 write 0;
#X obj 120 26 r \$0-receive;
#X obj 120 100 unpack f f;
#X obj 120 126 swap;
#X obj 49 28 r \$0-set;
#X obj 49 167 s \$0-send;
#X obj 49 80 unpack f f;
#X obj 49 106 - 1;
#X obj 49 50 t l l;
#X obj 49 134 pack f f;
#X obj 120 66 t l l l;
#X obj 120 157 array set \$0-data;
#X connect 0 0 9 0;
#X connect 1 0 2 0;
#X connect 1 1 2 1;
#X connect 2 0 10 0;
#X connect 2 1 10 1;
#X connect 3 0 7 0;
#X connect 5 0 6 0;
#X connect 5 1 8 1;
#X connect 6 0 8 0;
#X connect 7 0 5 0;
#X connect 7 1 9 0;
#X connect 8 0 4 0;
#X connect 9 0 1 0;
#X restore 68 -78 pd write;
#X obj 342 -16 savestate;
#X obj 401 17 array get \$0-data 0 -1;
#X obj 369 43 array set \$0-data;
#N canvas 990 504 450 300 to-toggles 0;
#X obj 22 14 inlet;
#X obj 22 191 s;
#X obj 110 129 pack \$0 f;
#X msg 110 176 symbol \$1-\$2-receive;
#X obj 110 99 t b f;
#X obj 22 77 each-index;
#X msg 88 27 1 0 0 0 1;
#X connect 0 0 5 0;
#X connect 2 0 3 0;
#X connect 3 0 1 1;
#X connect 4 0 2 0;
#X connect 4 1 2 1;
#X connect 5 0 1 0;
#X connect 5 1 4 0;
#X connect 6 0 5 0;
#X restore 321 81 pd to-toggles;
#X obj 342 15 t l l;
#X obj 321 57 list;
#N canvas 326 23 958 781 init-sliders 0;
#X obj 32 18 loadbang;
#X obj 98 677 s \$0-self;
#X obj 32 62 sel 0;
#X obj 98 158 b;
#X obj 98 184 t b b b;
#X obj 98 414 t b f f f;
#X obj 183 453 div;
#X obj 147 453 mod;
#X obj 147 497 + 103;
#X obj 183 475 * 20;
#X obj 147 475 * 20;
#X obj 183 497 + 120;
#X obj 98 358 for 1;
#X obj 115 319 t f f;
#X obj 115 251 t f f f;
#X obj 98 380 - 1;
#X obj 144 567 + 1;
#X obj 116 539 t f f;
#X obj 115 227 def-f \$1 1;
#X obj 59 92 t b b, f 7;
#X obj 61 702 outlet;
#X obj 32 40 f \$1;
#X obj 240 521 def-f \$2 0;
#X obj 318 522 def-f \$3 127;
#X obj 240 486 t b b;
#X obj 98 595 pack \$0 f f f f f f;
#X msg 98 636 obj \$4 \$5 vsl 15 64 \$6 \$7 0 0 \$1-\$2-send \$1-\$2-receive
empty 0 -8 0 8 -262144 -1 -1 0 1;
#X connect 0 0 21 0;
#X connect 2 1 19 0;
#X connect 3 0 4 0;
#X connect 4 0 12 0;
#X connect 4 1 18 0;
#X connect 4 2 24 0;
#X connect 5 0 25 0;
#X connect 5 1 17 0;
#X connect 5 2 7 0;
#X connect 5 3 6 0;
#X connect 6 0 9 0;
#X connect 7 0 10 0;
#X connect 8 0 25 3;
#X connect 9 0 11 0;
#X connect 10 0 8 0;
#X connect 11 0 25 4;
#X connect 12 0 15 0;
#X connect 13 0 12 1;
#X connect 13 1 12 2;
#X connect 14 0 13 0;
#X connect 14 1 7 1;
#X connect 14 2 6 1;
#X connect 15 0 5 0;
#X connect 16 0 25 2;
#X connect 17 0 25 1;
#X connect 17 1 16 0;
#X connect 18 0 14 0;
#X connect 19 0 20 0;
#X connect 19 1 3 0;
#X connect 21 0 2 0;
#X connect 22 0 25 5;
#X connect 23 0 25 6;
#X connect 24 0 22 0;
#X connect 24 1 23 0;
#X connect 25 0 26 0;
#X connect 26 0 1 0;
#X restore 322 -50 pd init-sliders;
#X connect 0 0 15 0;
#X connect 2 0 8 0;
#X connect 8 0 9 0;
#X connect 11 0 21 0;
#X connect 12 0 14 0;
#X connect 12 1 13 1;
#X connect 13 0 1 0;
#X connect 14 0 13 0;
#X connect 15 0 11 0;
#X connect 19 0 12 0;
#X connect 19 1 10 0;
#X connect 19 2 20 0;
#X connect 20 0 18 0;
#X connect 21 0 19 0;
#X connect 23 0 27 0;
#X connect 23 1 24 0;
#X connect 24 0 23 0;
#X connect 27 0 28 1;
#X connect 27 1 25 0;
#X connect 28 0 26 0;
#X connect 29 0 28 0;
#X coords 0 -1 1 1 23 95 1 100 100;
