#N canvas 590 244 450 300 10;
#X obj 8 14 inlet~;
#X obj 249 16 inlet;
#N canvas 0 22 559 475 do-it~ 0;
#X obj 71 162 *~;
#X obj 89 192 wrap~;
#X obj 71 223 -~;
#X obj 94 62 inlet~;
#X obj 66 370 outlet~;
#X obj 240 95 r \$0-steps;
#X obj 156 147 pack f 50;
#X obj 156 169 line~;
#X obj 240 118 t f f;
#X obj 273 149 swap 1;
#X obj 273 171 /;
#X obj 273 193 pack f 50;
#X obj 273 215 line~;
#X obj 71 264 *~;
#X connect 0 0 1 0;
#X connect 0 0 2 0;
#X connect 1 0 2 1;
#X connect 2 0 13 0;
#X connect 3 0 0 0;
#X connect 5 0 8 0;
#X connect 6 0 7 0;
#X connect 7 0 0 1;
#X connect 8 0 6 0;
#X connect 8 1 9 0;
#X connect 9 0 10 0;
#X connect 9 1 10 1;
#X connect 10 0 11 0;
#X connect 11 0 12 0;
#X connect 12 0 13 1;
#X connect 13 0 4 0;
#X restore 35 138 pd do-it~;
#X obj 249 38 bind \$0 steps 10;
#X obj 10 273 outlet~;
#X obj 118 275 outlet;
#N canvas 849 397 450 300 process-quantization 0;
#X obj 23 21 inlet~;
#X obj 21 270 outlet;
#X obj 23 127 vsnapshot~;
#X obj 55 67 bang~;
#X obj 23 149 change;
#X msg 28 193 quantize \$1;
#X connect 0 0 2 0;
#X connect 2 0 4 0;
#X connect 3 0 2 0;
#X connect 4 0 5 0;
#X connect 5 0 1 0;
#X restore 85 195 pd process-quantization;
#X connect 0 0 2 0;
#X connect 1 0 3 0;
#X connect 2 0 4 0;
#X connect 2 0 6 0;
#X connect 6 0 5 0;
