#N canvas 513 432 522 319 10;
#X text 18 12 [step-quantize~ 'num of steps in 1 unit'];
#X obj 46 247 snapshot~;
#X obj 53 221 metro 100;
#X obj 53 198 tgl 15 0 empty empty empty 17 7 0 10 -262144 -1 -1 0
1;
#X floatatom 46 269 5 0 0 0 - - -;
#X floatatom 140 109 5 0 0 0 - - -;
#X msg 140 128 steps \$1;
#X msg 105 75 0;
#X obj 46 138 phasor~ 0.125;
#X obj 46 171 step-quantize~ 10;
#X obj 250 84 phasor~ 0.125;
#X obj 250 106 step-quantize~ 12;
#X obj 250 128 *~ 120;
#X obj 250 150 +~ 440;
#X obj 250 172 osc~;
#X obj 250 194 *~;
#X obj 344 176 vline~;
#X obj 250 234 dac~;
#X msg 345 153 0 0 0 \, 1 200 0 \, 0 50 300;
#X floatatom 248 52 5 0 0 0 - - -;
#X connect 1 0 4 0;
#X connect 2 0 1 0;
#X connect 3 0 2 0;
#X connect 5 0 6 0;
#X connect 6 0 9 1;
#X connect 7 0 8 1;
#X connect 8 0 9 0;
#X connect 9 0 1 0;
#X connect 10 0 11 0;
#X connect 11 0 12 0;
#X connect 11 1 18 0;
#X connect 12 0 13 0;
#X connect 13 0 14 0;
#X connect 14 0 15 0;
#X connect 15 0 17 0;
#X connect 15 0 17 1;
#X connect 16 0 15 1;
#X connect 18 0 16 0;
#X connect 19 0 10 0;
