#N canvas 701 230 399 583 10;
#X obj 12 21 inlet;
#X obj 184 26 inlet;
#X obj 12 392 outlet;
#X obj 39 364 tabwrite \$1;
#X obj 281 23 inlet;
#X obj 281 45 bind \$0 table;
#X obj 12 43 pack f f;
#X obj 12 65 unpack f f;
#X obj 90 115 tabread \$1;
#X obj 12 117 tabread \$1;
#X obj 90 148 pack f f;
#X obj 90 92 t f f;
#X obj 12 95 t f f;
#X obj 12 139 pack f f;
#X obj 12 172 list append;
#X obj 39 221 list trim;
#X obj 39 246 unpack f f f f;
#X text 85 175 v1 i1 v2 i2;
#X obj 39 273 swap;
#X obj 39 299 pack f f f f;
#X obj 39 329 unpack f f f f;
#X text 123 295 v2 i1 v1 i2;
#X obj 12 194 t b l;
#X connect 0 0 6 0;
#X connect 1 0 6 1;
#X connect 4 0 5 0;
#X connect 6 0 7 0;
#X connect 7 0 12 0;
#X connect 7 1 11 0;
#X connect 8 0 10 0;
#X connect 9 0 13 0;
#X connect 10 0 14 1;
#X connect 11 0 8 0;
#X connect 11 1 10 1;
#X connect 12 0 9 0;
#X connect 12 1 13 1;
#X connect 13 0 14 0;
#X connect 14 0 22 0;
#X connect 15 0 16 0;
#X connect 16 0 18 0;
#X connect 16 1 19 1;
#X connect 16 2 18 1;
#X connect 16 3 19 3;
#X connect 18 0 19 0;
#X connect 18 1 19 2;
#X connect 19 0 20 0;
#X connect 20 0 3 0;
#X connect 20 1 3 1;
#X connect 20 2 3 0;
#X connect 20 3 3 1;
#X connect 22 0 2 0;
#X connect 22 1 15 0;
