#N canvas 1 49 958 1150 10;
#X obj 144 241 inlet;
#X obj 144 354 outlet;
#N canvas 1 50 958 1150 get-tables 0;
#X obj 393 472 filter defined 1;
#X obj 393 437 list append \$1 \$2 \$3 \$4 \$5 \$6 \$7 \$8 \$9 \$10
\$11 \$12 \$13 \$14 \$15 \$16 \$17;
#X obj 403 545 outlet;
#X obj 402 262 inlet;
#X obj 393 494 list;
#X connect 0 0 4 0;
#X connect 1 0 0 0;
#X connect 3 0 1 0;
#X connect 4 0 2 0;
#X restore 328 250 pd get-tables;
#N canvas 1 49 958 1150 wire 0;
#X obj 50 47 inlet;
#X obj 50 450 outlet;
#N canvas 1 49 958 1150 wire-trigger 0;
#X obj 111 118 inlet;
#X obj 159 665 outlet;
#X obj 361 158 collect;
#X obj 393 96 until;
#X obj 393 69 list length;
#X obj 370 305 list trim;
#X msg 133 217 connect 0 0 2 0;
#X obj 111 140 t l b l;
#X obj 393 124 list append f;
#X obj 361 45 t b b l;
#X obj 369 283 list prepend obj 100 100 trigger b;
#X obj 321 122 list append b;
#X connect 0 0 7 0;
#X connect 2 0 10 0;
#X connect 3 0 8 0;
#X connect 4 0 3 0;
#X connect 5 0 1 0;
#X connect 6 0 1 0;
#X connect 7 1 6 0;
#X connect 7 2 9 0;
#X connect 8 0 2 0;
#X connect 9 0 2 0;
#X connect 9 1 11 0;
#X connect 9 2 4 0;
#X connect 10 0 5 0;
#X connect 11 0 2 0;
#X restore 253 186 pd wire-trigger;
#N canvas 1 50 958 1150 wire-readers 0;
#X obj 111 118 inlet;
#X obj 159 665 outlet;
#X obj 111 140 t l l l;
#X obj 317 260 for-each;
#X obj 254 467 list trim;
#X obj 255 445 list prepend obj 200 200 tabread;
#X msg 318 585 connect 2 \$1 \$2 0;
#X obj 153 355 list length;
#X obj 153 377 enumerate;
#X obj 319 529 + 1;
#X obj 153 399 t f f;
#X obj 319 557 pack f f;
#X obj 370 527 + 4;
#X msg 324 616 connect \$2 0 3 0;
#X connect 0 0 2 0;
#X connect 2 1 7 0;
#X connect 2 2 3 0;
#X connect 3 0 5 0;
#X connect 4 0 1 0;
#X connect 5 0 4 0;
#X connect 6 0 1 0;
#X connect 7 0 8 0;
#X connect 8 0 10 0;
#X connect 9 0 11 0;
#X connect 10 0 9 0;
#X connect 10 1 12 0;
#X connect 11 0 6 0;
#X connect 11 0 13 0;
#X connect 12 0 11 1;
#X connect 13 0 1 0;
#X restore 246 228 pd wire-readers;
#N canvas 1 49 958 1150 wire-collector 0;
#X obj 111 118 inlet;
#X obj 159 665 outlet;
#X msg 242 441 connect 3 0 1 0;
#X obj 233 279 list trim;
#X obj 233 256 list append obj 100 400 collect;
#X msg 246 470 connect 2 0 3 0;
#X obj 111 140 t l b b b;
#X obj 265 520 list length;
#X msg 263 579 connect 2 \$1 3 1;
#X obj 265 542 + 1;
#X connect 0 0 6 0;
#X connect 2 0 1 0;
#X connect 3 0 1 0;
#X connect 4 0 3 0;
#X connect 5 0 1 0;
#X connect 6 0 7 0;
#X connect 6 1 5 0;
#X connect 6 2 2 0;
#X connect 6 3 4 0;
#X connect 7 0 9 0;
#X connect 8 0 1 0;
#X connect 9 0 8 0;
#X restore 250 207 pd wire-collector;
#X obj 50 87 t l l l l;
#X obj 98 374 s pd-\$0-dynamic;
#X connect 0 0 5 0;
#X connect 2 0 6 0;
#X connect 3 0 6 0;
#X connect 4 0 6 0;
#X connect 5 0 1 0;
#X connect 5 1 3 0;
#X connect 5 2 4 0;
#X connect 5 3 2 0;
#X restore 328 271 pd wire;
#N canvas 1 50 958 1150 \$0-dynamic 0;
#X obj 6 10 inlet;
#X obj 9 616 outlet;
#X restore 144 297 pd \$0-dynamic;
#X obj 328 172 loadbang;
#X obj 328 194 defined \$1;
#X obj 328 218 when == 1 bang;
#X connect 0 0 4 0;
#X connect 2 0 3 0;
#X connect 4 0 1 0;
#X connect 5 0 6 0;
#X connect 6 0 7 0;
#X connect 7 0 2 0;
