#N canvas 1 49 958 1150 10;
#X obj 76 57 inlet;
#X obj 382 50 inlet;
#X obj 84 777 outlet;
#X obj 382 128 route set;
#X obj 444 160 route start;
#X obj 499 190 route end;
#X obj 187 607 tabread;
#X obj 84 742 collect;
#X obj 191 519 list prepend set;
#X obj 191 541 list trim;
#X obj 105 572 enumerate;
#X obj 105 548 pack f f;
#X obj 78 412 pack f f s;
#X obj 76 79 route bang list;
#X obj 109 476 unpack f f s;
#X obj 159 127 list length;
#X obj 127 158 list prepend;
#X obj 127 104 t l l;
#X obj 127 180 route 3 2;
#X obj 157 215 list prepend \$1;
#X obj 563 427 list split 1;
#X obj 548 585 list append;
#X obj 545 539 list;
#X obj 599 512 t b l;
#X obj 106 328 unpack f f s;
#X obj 78 434 t b l b;
#X obj 476 271 print wut;
#X obj 549 348 print 3;
#X connect 0 0 13 0;
#X connect 1 0 3 0;
#X connect 3 0 12 2;
#X connect 3 1 4 0;
#X connect 4 0 12 0;
#X connect 4 1 5 0;
#X connect 5 0 12 1;
#X connect 6 0 7 0;
#X connect 7 0 2 0;
#X connect 8 0 9 0;
#X connect 9 0 6 0;
#X connect 10 0 6 0;
#X connect 11 0 10 0;
#X connect 12 0 25 0;
#X connect 13 0 12 0;
#X connect 13 1 17 0;
#X connect 14 0 11 0;
#X connect 14 1 11 1;
#X connect 14 2 8 0;
#X connect 15 0 16 1;
#X connect 16 0 18 0;
#X connect 17 0 16 0;
#X connect 17 1 15 0;
#X connect 18 0 20 0;
#X connect 18 0 27 0;
#X connect 18 1 19 0;
#X connect 18 2 26 0;
#X connect 19 0 20 0;
#X connect 20 0 23 0;
#X connect 20 1 22 1;
#X connect 21 0 24 0;
#X connect 22 0 21 0;
#X connect 23 0 22 0;
#X connect 23 1 21 1;
#X connect 24 0 12 0;
#X connect 24 1 12 1;
#X connect 24 2 12 2;
#X connect 25 0 7 0;
#X connect 25 1 14 0;
#X connect 25 2 7 1;
