#N canvas 755 22 450 300 10;
#X obj 49 28 inlet;
#X obj 49 114 tabwrite \$1;
#X obj 112 26 loadbang;
#X obj 112 79 f \$2;
#X obj 112 48 t b b;
#X obj 74 79 f \$3;
#X connect 0 0 1 0;
#X connect 2 0 4 0;
#X connect 3 0 1 1;
#X connect 4 0 5 0;
#X connect 4 1 3 0;
#X connect 5 0 1 0;
