#N canvas 381 421 398 302 10;
#X obj -16 16 inlet;
#X obj 269 19 inlet;
#X obj -4 263 outlet;
#X obj -4 142 any;
#X obj -16 38 t b a;
#X obj 171 113 r \$0-set;
#X obj 129 168 del 0;
#X obj 156 142 f;
#X obj 269 41 bind \$0 set \$1;
#X obj 68 102 spigot 1;
#X obj 41 55 t b b;
#X msg 113 72 0;
#X msg 150 85 1;
#X obj 68 125 t b b b;
#X connect 0 0 4 0;
#X connect 1 0 8 0;
#X connect 3 0 2 0;
#X connect 4 0 10 0;
#X connect 4 1 3 1;
#X connect 5 0 7 1;
#X connect 6 0 12 0;
#X connect 7 0 6 1;
#X connect 9 0 13 0;
#X connect 10 0 11 0;
#X connect 10 1 9 0;
#X connect 11 0 9 1;
#X connect 12 0 9 1;
#X connect 13 0 3 0;
#X connect 13 1 6 0;
#X connect 13 2 7 0;
