#N canvas 799 290 450 300 10;
#X msg 102 149 some shit;
#X obj 102 220 timer;
#X floatatom 102 242 6 0 0 0 - - -;
#X obj 102 98 tgl 15 0 empty empty empty 17 7 0 10 -262144 -1 -1 0
1;
#X obj 102 198 t b b;
#X floatatom 188 119 5 0 0 0 - - -;
#X msg 188 138 set \$1;
#X obj 102 127 metro 100;
#X text 107 29 throttle the time between successive messages;
#X text 107 42 messages sent within a sleep cycle are ignored!;
#X msg 269 129 1;
#X msg 300 129 2;
#X obj 279 215 t a b;
#X obj 320 239 bng 15 250 50 0 empty empty empty 17 7 0 10 -262144
-1 -1;
#X obj 279 237 print;
#X obj 102 176 throttle 200;
#X obj 278 189 throttle 1000;
#X connect 0 0 15 0;
#X connect 1 0 2 0;
#X connect 3 0 7 0;
#X connect 4 0 1 0;
#X connect 4 1 1 1;
#X connect 5 0 6 0;
#X connect 6 0 15 1;
#X connect 7 0 0 0;
#X connect 10 0 16 0;
#X connect 11 0 16 0;
#X connect 12 0 14 0;
#X connect 12 1 13 0;
#X connect 15 0 4 0;
#X connect 16 0 12 0;
