#N canvas 336 419 450 300 10;
#X obj 60 101 clip -1 1;
#X obj 60 128 t b f;
#X obj 60 181 pow;
#X obj 60 152 2;
#X obj 87 164 * 4;
#X obj 60 55 def-f \$1 0;
#X obj 60 18 loadbang;
#X obj 127 55 inlet;
#X obj 13 198 pow~;
#X obj 13 249 outlet~;
#X obj 13 17 inlet~;
#X text 164 111 incomming values from -1 to 1 0.25 is x^4;
#X connect 0 0 1 0;
#X connect 1 0 3 0;
#X connect 1 1 4 0;
#X connect 2 0 8 1;
#X connect 3 0 2 0;
#X connect 4 0 2 1;
#X connect 5 0 0 0;
#X connect 6 0 5 0;
#X connect 7 0 0 0;
#X connect 8 0 9 0;
#X connect 10 0 8 0;
