#N canvas 502 394 611 337 10;
#X obj 168 186 vcurve~;
#X obj 168 252 tabwrite~ \$0-dataz;
#X obj 169 100 line~;
#X obj 170 67 t l b;
#X obj 212 100 s \$0-write;
#X obj 229 227 r \$0-write;
#N canvas 0 22 450 300 (subpatch) 0;
#X array \$0-dataz 48000 float 2;
#X coords 0 1 48000 -1 200 140 1;
#X restore 355 134 graph;
#X msg 169 31 0 \, 1 1000;
#X floatatom 313 36 5 -1 1 1 adjust_curve_amount_from_-1_to_1 - #0-c
;
#X obj 206 162 r \$0-c;
#X msg 211 56 1 \, 0 1000;
#X connect 0 0 1 0;
#X connect 2 0 0 0;
#X connect 3 0 2 0;
#X connect 3 1 4 0;
#X connect 5 0 1 0;
#X connect 7 0 3 0;
#X connect 9 0 0 1;
#X connect 10 0 3 0;
