#N canvas 839 261 958 1150 10;
#X obj 44 113 bng 15 250 50 0 empty empty empty 17 7 0 10 -262144 -1
-1;
#X floatatom 44 35 5 0 0 0 - - -;
#X obj 45 72 when > 5 bang;
#X floatatom 395 91 5 0 0 0 - - -;
#X obj 396 148 list prepend set;
#X obj 396 128 when > 5 f 1;
#X obj 396 168 print;
#X connect 1 0 2 0;
#X connect 2 0 0 0;
#X connect 3 0 5 0;
#X connect 4 0 6 0;
#X connect 5 0 4 0;
