#N canvas 960 48 958 559 10;
#X obj 29 32 inlet;
#X obj 74 33 inlet;
#X obj 29 260 outlet;
#X obj 29 113 is \$1 \$2;
#X obj 29 135 sel 1;
#X obj 29 160 b;
#X obj 223 82 loadbang;
#N canvas 0 48 958 1150 \$0-dyn 0;
#X obj 1 39 inlet;
#X obj 17 193 outlet;
#X obj 27 84 bang;
#X connect 0 0 2 0;
#X connect 2 0 1 0;
#X restore 31 197 pd \$0-dyn;
#X obj 223 104 t b;
#N canvas 0 48 958 1150 build-it 1;
#X obj 120 81 inlet;
#X obj 119 283 outlet;
#X obj 120 103 unpack s f;
#X obj 120 125 t b b b b b s;
#X msg 208 150 obj 27 84 \$1;
#X msg 195 175 connect 0 0 2 0;
#X connect 0 0 2 0;
#X connect 2 0 3 0;
#X connect 3 4 5 0;
#X connect 3 5 4 0;
#X connect 4 0 1 0;
#X connect 5 0 1 0;
#X restore 223 245 pd build-it;
#X obj 223 267 s pd-\$0-dyn;
#X obj 223 203 symbol \$3;
#X obj 223 126 defined \$3;
#X obj 223 148 sel 1;
#X obj 223 170 t b;
#X connect 0 0 3 0;
#X connect 1 0 3 1;
#X connect 3 0 4 0;
#X connect 4 0 5 0;
#X connect 5 0 7 0;
#X connect 6 0 8 0;
#X connect 7 0 2 0;
#X connect 8 0 12 0;
#X connect 9 0 10 0;
#X connect 11 0 9 0;
#X connect 12 0 13 0;
#X connect 13 0 14 0;
#X connect 14 0 11 0;
