#N canvas 533 22 246 255 10;
#X obj 31 28 inlet;
#X obj 76 28 inlet;
#X obj 31 202 outlet;
#X obj 31 97 is \$1 \$2;
#X obj 31 119 sel 1 0;
#X obj 31 149 any \$3;
#X obj 74 149 any \$4;
#X connect 0 0 3 0;
#X connect 1 0 3 1;
#X connect 3 0 4 0;
#X connect 4 0 5 0;
#X connect 4 1 6 0;
#X connect 5 0 2 0;
#X connect 6 0 2 0;
