#N canvas 1 640 958 559 10;
#X obj 155 81 inlet~;
#X obj 224 82 inlet~;
#X obj 567 59 inlet;
#X obj 120 484 outlet~;
#X obj 382 468 outlet~;
#X obj 175 155 reflect~;
#X obj 176 210 rotate~;
#X obj 175 258 rotate~;
#X obj 199 286 del~ 5;
#X obj 175 311 rotate~;
#X obj 199 341 del~ 7;
#X obj 284 166 reflect~;
#X obj 285 221 rotate~;
#X obj 284 269 rotate~;
#X obj 284 322 rotate~;
#X obj 489 298 del~ 25;
#X obj 547 298 del~ 23;
#X obj 485 219 r~ \$0-one;
#X obj 566 219 r~ \$0-two;
#X obj 484 453 s~ \$0-one;
#X obj 565 454 s~ \$0-two;
#X obj 198 185 del~ 1;
#X obj 198 235 del~ 2;
#X obj 307 196 del~ 11;
#X obj 307 246 del~ 12;
#X obj 308 297 del~ 13;
#X obj 308 352 del~ 14;
#X obj 546 397 *~ 0.88;
#X obj 483 402 *~ 0.88;
#X obj 491 341 rotate~;
#X obj 291 102 sig~ 0.5;
#X obj 674 280 phasor~ 33;
#X connect 0 0 5 0;
#X connect 1 0 5 1;
#X connect 5 0 6 0;
#X connect 5 1 21 0;
#X connect 6 0 7 0;
#X connect 6 1 22 0;
#X connect 7 0 9 0;
#X connect 7 1 8 0;
#X connect 8 0 9 1;
#X connect 9 0 11 0;
#X connect 9 1 10 0;
#X connect 10 0 11 1;
#X connect 11 0 12 0;
#X connect 11 1 23 0;
#X connect 12 0 13 0;
#X connect 12 1 24 0;
#X connect 13 0 14 0;
#X connect 13 1 25 0;
#X connect 14 0 28 0;
#X connect 14 1 26 0;
#X connect 15 0 29 0;
#X connect 16 0 29 1;
#X connect 17 0 15 0;
#X connect 18 0 16 0;
#X connect 21 0 6 1;
#X connect 22 0 7 1;
#X connect 23 0 12 1;
#X connect 24 0 13 1;
#X connect 25 0 14 1;
#X connect 26 0 27 0;
#X connect 27 0 20 0;
#X connect 27 0 4 0;
#X connect 28 0 19 0;
#X connect 28 0 3 0;
#X connect 29 0 28 0;
#X connect 29 1 27 0;
#X connect 30 0 5 2;
#X connect 30 0 6 2;
#X connect 30 0 7 2;
#X connect 30 0 11 2;
#X connect 30 0 12 2;
#X connect 30 0 13 2;
#X connect 30 0 14 2;
#X connect 31 0 29 2;
